<svg width="24" height="24" viewBox="0 0 24 24" fill="none" xmlns="http://www.w3.org/2000/svg">
<g id="&#240;&#159;&#166;&#134; icon &#34;sun outline&#34;">
<g id="Group">
<path id="Vector" d="M12 6C12.2652 6 12.5196 5.89464 12.7071 5.70711C12.8946 5.51957 13 5.26522 13 5V3C13 2.73478 12.8946 2.48043 12.7071 2.29289C12.5196 2.10536 12.2652 2 12 2C11.7348 2 11.4804 2.10536 11.2929 2.29289C11.1054 2.48043 11 2.73478 11 3V5C11 5.26522 11.1054 5.51957 11.2929 5.70711C11.4804 5.89464 11.7348 6 12 6Z" fill="black"/>
<path id="Vector_2" d="M21 11H19C18.7348 11 18.4804 11.1054 18.2929 11.2929C18.1054 11.4804 18 11.7348 18 12C18 12.2652 18.1054 12.5196 18.2929 12.7071C18.4804 12.8946 18.7348 13 19 13H21C21.2652 13 21.5196 12.8946 21.7071 12.7071C21.8946 12.5196 22 12.2652 22 12C22 11.7348 21.8946 11.4804 21.7071 11.2929C21.5196 11.1054 21.2652 11 21 11Z" fill="black"/>
<path id="Vector_3" d="M6 12C6 11.7348 5.89464 11.4804 5.70711 11.2929C5.51957 11.1054 5.26522 11 5 11H3C2.73478 11 2.48043 11.1054 2.29289 11.2929C2.10536 11.4804 2 11.7348 2 12C2 12.2652 2.10536 12.5196 2.29289 12.7071C2.48043 12.8946 2.73478 13 3 13H5C5.26522 13 5.51957 12.8946 5.70711 12.7071C5.89464 12.5196 6 12.2652 6 12Z" fill="black"/>
<path id="Vector_4" d="M6.22023 4.99995C6.0253 4.81562 5.76512 4.71628 5.49695 4.72378C5.22877 4.73129 4.97456 4.84501 4.79023 5.03995C4.60591 5.23488 4.50657 5.49505 4.51407 5.76323C4.52157 6.03141 4.6353 6.28562 4.83023 6.46995L6.27023 7.85995C6.36687 7.95326 6.48131 8.02614 6.60673 8.07425C6.73215 8.12235 6.86598 8.1447 7.00023 8.13995C7.13494 8.13943 7.26815 8.11171 7.39187 8.05844C7.5156 8.00517 7.62728 7.92745 7.72023 7.82995C7.90648 7.64258 8.01102 7.38913 8.01102 7.12495C8.01102 6.86076 7.90648 6.60731 7.72023 6.41995L6.22023 4.99995Z" fill="black"/>
<path id="Vector_5" d="M16.9996 8.13999C17.2571 8.13897 17.5042 8.03867 17.6896 7.85999L19.1296 6.46999C19.3053 6.28644 19.4045 6.04291 19.4071 5.78886C19.4097 5.53481 19.3156 5.28929 19.1437 5.10216C18.9719 4.91503 18.7352 4.80034 18.4819 4.78136C18.2285 4.76238 17.9774 4.84055 17.7796 4.99999L16.3396 6.41999C16.1534 6.60735 16.0488 6.86081 16.0488 7.12499C16.0488 7.38918 16.1534 7.64263 16.3396 7.82999C16.5128 8.01271 16.7484 8.12341 16.9996 8.13999Z" fill="black"/>
<path id="Vector_6" d="M12 18C11.7348 18 11.4804 18.1054 11.2929 18.2929C11.1054 18.4804 11 18.7348 11 19V21C11 21.2652 11.1054 21.5196 11.2929 21.7071C11.4804 21.8946 11.7348 22 12 22C12.2652 22 12.5196 21.8946 12.7071 21.7071C12.8946 21.5196 13 21.2652 13 21V19C13 18.7348 12.8946 18.4804 12.7071 18.2929C12.5196 18.1054 12.2652 18 12 18Z" fill="black"/>
<path id="Vector_7" d="M17.7299 16.1401C17.5389 15.9558 17.2826 15.8548 17.0172 15.8595C16.7518 15.8642 16.4992 15.9741 16.3149 16.1651C16.1306 16.356 16.0296 16.6124 16.0343 16.8778C16.039 17.1431 16.1489 17.3958 16.3399 17.5801L17.7799 19.0001C17.9653 19.1788 18.2124 19.2791 18.4699 19.2801C18.6039 19.2809 18.7367 19.2547 18.8603 19.2032C18.984 19.1516 19.0961 19.0758 19.1899 18.9801C19.2836 18.8871 19.358 18.7765 19.4088 18.6547C19.4596 18.5328 19.4857 18.4021 19.4857 18.2701C19.4857 18.1381 19.4596 18.0074 19.4088 17.8855C19.358 17.7637 19.2836 17.6531 19.1899 17.5601L17.7299 16.1401Z" fill="black"/>
<path id="Vector_8" d="M6.26998 16.1401L4.82998 17.5301C4.73625 17.6231 4.66186 17.7337 4.61109 17.8555C4.56032 17.9774 4.53418 18.1081 4.53418 18.2401C4.53418 18.3721 4.56032 18.5028 4.61109 18.6247C4.66186 18.7466 4.73625 18.8572 4.82998 18.9501C4.92377 19.0458 5.03584 19.1217 5.15952 19.1732C5.28321 19.2247 5.41599 19.2509 5.54998 19.2501C5.79649 19.2522 6.03509 19.1632 6.21998 19.0001L7.65998 17.6101C7.85093 17.4258 7.96085 17.1732 7.96553 16.9078C7.97022 16.6424 7.8693 16.3861 7.68498 16.1951C7.50065 16.0042 7.24802 15.8942 6.98266 15.8896C6.71729 15.8849 6.46093 15.9858 6.26998 16.1701V16.1401Z" fill="black"/>
<path id="Vector_9" d="M12 8C11.2089 8 10.4355 8.2346 9.77772 8.67412C9.11993 9.11365 8.60723 9.73836 8.30448 10.4693C8.00173 11.2002 7.92252 12.0044 8.07686 12.7804C8.2312 13.5563 8.61216 14.269 9.17157 14.8284C9.73098 15.3878 10.4437 15.7688 11.2196 15.9231C11.9956 16.0775 12.7998 15.9983 13.5307 15.6955C14.2616 15.3928 14.8864 14.8801 15.3259 14.2223C15.7654 13.5645 16 12.7911 16 12C16 10.9391 15.5786 9.92172 14.8284 9.17157C14.0783 8.42143 13.0609 8 12 8ZM12 14C11.6044 14 11.2178 13.8827 10.8889 13.6629C10.56 13.4432 10.3036 13.1308 10.1522 12.7654C10.0009 12.3999 9.96126 11.9978 10.0384 11.6098C10.1156 11.2219 10.3061 10.8655 10.5858 10.5858C10.8655 10.3061 11.2219 10.1156 11.6098 10.0384C11.9978 9.96126 12.3999 10.0009 12.7654 10.1522C13.1308 10.3036 13.4432 10.56 13.6629 10.8889C13.8827 11.2178 14 11.6044 14 12C14 12.5304 13.7893 13.0391 13.4142 13.4142C13.0391 13.7893 12.5304 14 12 14Z" fill="black"/>
</g>
</g>
</svg>
