<svg width="24" height="24" viewBox="0 0 24 24" fill="none" xmlns="http://www.w3.org/2000/svg">
<path d="M12.001 12.0002C10.901 12.0002 9.95931 11.6085 9.17598 10.8252C8.39264 10.0419 8.00098 9.1002 8.00098 8.0002C8.00098 6.9002 8.39264 5.95853 9.17598 5.1752C9.95931 4.39186 10.901 4.0002 12.001 4.0002C13.101 4.0002 14.0426 4.39186 14.826 5.1752C15.6093 5.95853 16.001 6.9002 16.001 8.0002C16.001 9.1002 15.6093 10.0419 14.826 10.8252C14.0426 11.6085 13.101 12.0002 12.001 12.0002ZM4.00098 20.0002V17.2002C4.00098 16.6335 4.14681 16.1127 4.43848 15.6377C4.73014 15.1627 5.11764 14.8002 5.60098 14.5502C6.63431 14.0335 7.68431 13.646 8.75098 13.3877C9.81764 13.1294 10.901 13.0002 12.001 13.0002C13.101 13.0002 14.1843 13.1294 15.251 13.3877C16.3176 13.646 17.3676 14.0335 18.401 14.5502C18.8843 14.8002 19.2718 15.1627 19.5635 15.6377C19.8551 16.1127 20.001 16.6335 20.001 17.2002V20.0002H4.00098Z" fill="#141414"/>
</svg>
