<svg width="24" height="24" viewBox="0 0 24 24" fill="none" xmlns="http://www.w3.org/2000/svg">
<g id="&#240;&#159;&#166;&#134; icon &#34;chevron up outline&#34;">
<path id="Vector" d="M8.00006 9.49998C8.13167 9.49922 8.26213 9.52445 8.38397 9.57421C8.50581 9.62398 8.61662 9.6973 8.71006 9.78998L12.0001 13.1L15.3001 9.91998C15.4874 9.73373 15.7409 9.62919 16.0051 9.62919C16.2692 9.62919 16.5227 9.73373 16.7101 9.91998C16.8038 10.0129 16.8782 10.1235 16.929 10.2454C16.9797 10.3673 17.0059 10.498 17.0059 10.63C17.0059 10.762 16.9797 10.8927 16.929 11.0146C16.8782 11.1364 16.8038 11.247 16.7101 11.34L12.7101 15.2C12.5231 15.3832 12.2718 15.4858 12.0101 15.4858C11.7483 15.4858 11.497 15.3832 11.3101 15.2L7.31006 11.2C7.21633 11.107 7.14194 10.9964 7.09117 10.8746C7.0404 10.7527 7.01426 10.622 7.01426 10.49C7.01426 10.358 7.0404 10.2273 7.09117 10.1054C7.14194 9.98355 7.21633 9.87295 7.31006 9.77998C7.49544 9.6013 7.74259 9.50101 8.00006 9.49998Z" fill="#000"/>
</g>
</svg>
