<svg width="1156" height="188" viewBox="0 0 1156 188" fill="none" xmlns="http://www.w3.org/2000/svg">
<path d="M432.452 60.8382H439.595C440.485 60.8382 440.932 59.7638 440.304 59.1331L382.89 1.3975C382.119 0.622388 380.869 0.609735 380.082 1.36909L319.639 59.7386C318.907 60.445 318.472 61.4035 318.422 62.4192L313 172.541C313 183.711 321 188 328.5 188H635L342.5 172.541C330 171.544 328.5 165.56 328.5 158.578V62.4035C328.5 61.3971 328.879 60.4277 329.562 59.6886L379.995 5.1188C380.8 4.24801 382.181 4.26461 382.965 5.15449L431.701 60.4991C431.891 60.7147 432.165 60.8382 432.452 60.8382Z" fill="#E20E1A"/>
<path d="M911.575 71.623V153.377H900.847V71.623H911.575ZM938 71.623V80.4947H874.479V71.623H938Z" fill="#E20E1A"/>
<path d="M857.201 127.38H868.042C867.478 132.545 865.991 137.168 863.582 141.249C861.173 145.329 857.766 148.567 853.362 150.963C848.958 153.321 843.462 154.5 836.875 154.5C832.057 154.5 827.671 153.602 823.719 151.805C819.804 150.008 816.435 147.463 813.612 144.168C810.789 140.837 808.606 136.85 807.062 132.209C805.557 127.529 804.804 122.326 804.804 116.599V108.457C804.804 102.73 805.557 97.5455 807.062 92.9037C808.606 88.2246 810.808 84.2193 813.668 80.8877C816.567 77.5561 820.049 74.992 824.114 73.1952C828.179 71.3984 832.753 70.5 837.835 70.5C844.046 70.5 849.297 71.6604 853.588 73.9813C857.879 76.3021 861.21 79.5214 863.582 83.639C865.991 87.7193 867.478 92.4545 868.042 97.8449H857.201C856.675 94.0267 855.696 90.7513 854.265 88.0187C852.835 85.2487 850.802 83.115 848.167 81.6176C845.532 80.1203 842.088 79.3717 837.835 79.3717C834.183 79.3717 830.965 80.0642 828.179 81.4492C825.432 82.8342 823.117 84.7995 821.234 87.3449C819.39 89.8904 817.997 92.9412 817.056 96.4973C816.115 100.053 815.645 104.003 815.645 108.345V116.599C815.645 120.604 816.059 124.366 816.887 127.885C817.753 131.404 819.051 134.492 820.783 137.15C822.514 139.807 824.716 141.904 827.389 143.439C830.062 144.936 833.223 145.684 836.875 145.684C841.505 145.684 845.194 144.955 847.942 143.495C850.689 142.035 852.76 139.939 854.152 137.206C855.583 134.473 856.599 131.198 857.201 127.38Z" fill="#E20E1A"/>
<path d="M794.075 144.562V153.377H750.542V144.562H794.075ZM752.744 71.623V153.377H741.847V71.623H752.744ZM788.316 106.773V115.588H750.542V106.773H788.316ZM793.51 71.623V80.4947H750.542V71.623H793.51Z" fill="#E20E1A"/>
<path d="M688.828 71.623V153.377H677.931V71.623H688.828ZM723.271 108.401V117.273H686.457V108.401H723.271ZM728.86 71.623V80.4947H686.457V71.623H728.86Z" fill="#E20E1A"/>
<path d="M606.674 71.623H633.889C640.062 71.623 645.276 72.5589 649.529 74.4305C653.821 76.3022 657.077 79.0722 659.297 82.7407C661.556 86.3717 662.685 90.845 662.685 96.1605C662.685 99.9038 661.914 103.329 660.37 106.436C658.865 109.505 656.681 112.126 653.821 114.297C650.997 116.431 647.61 118.021 643.657 119.07L640.608 120.249H615.03L614.917 111.433H634.228C638.143 111.433 641.399 110.759 643.996 109.412C646.593 108.027 648.551 106.174 649.868 103.853C651.186 101.532 651.844 98.968 651.844 96.1605C651.844 93.0161 651.223 90.2648 649.981 87.9065C648.739 85.5482 646.781 83.7327 644.109 82.4599C641.474 81.1498 638.067 80.4947 633.889 80.4947H617.571V153.377H606.674V71.623ZM654.724 153.377L634.736 116.318L646.085 116.262L666.355 152.703V153.377H654.724Z" fill="#E20E1A"/>
<path d="M593.179 144.562V153.377H549.646V144.562H593.179ZM551.848 71.623V153.377H540.95V71.623H551.848ZM587.419 106.773V115.588H549.646V106.773H587.419ZM592.614 71.623V80.4947H549.646V71.623H592.614Z" fill="#E20E1A"/>
<path d="M498.321 121.316H476.357V112.5H498.321C502.574 112.5 506.019 111.826 508.653 110.479C511.288 109.131 513.208 107.259 514.413 104.864C515.655 102.468 516.276 99.7353 516.276 96.6658C516.276 93.8583 515.655 91.2193 514.413 88.7487C513.208 86.2781 511.288 84.2942 508.653 82.7968C506.019 81.2621 502.574 80.4947 498.321 80.4947H478.897V153.377H468V71.623H498.321C504.532 71.623 509.783 72.6899 514.074 74.8236C518.365 76.9573 521.621 79.9145 523.842 83.6952C526.063 87.4386 527.173 91.7247 527.173 96.5535C527.173 101.794 526.063 106.267 523.842 109.973C521.621 113.679 518.365 116.505 514.074 118.452C509.783 120.361 504.532 121.316 498.321 121.316Z" fill="#E20E1A"/>
<rect x="340" y="67.5" width="42" height="42" rx="2" fill="#E20E1A"/>
<rect x="340" y="113.5" width="42" height="42" rx="2" fill="#E20E1A"/>
<rect x="386" y="67.5" width="42" height="42" rx="2" fill="#E20E1A"/>
<rect x="386" y="113.5" width="42" height="42" rx="2" fill="#E20E1A"/>
<path d="M928.855 98.4686H925.936L925.909 96.7585H928.627C929.002 96.7496 929.35 96.6828 929.672 96.5581C930.002 96.4334 930.265 96.2553 930.462 96.0237C930.667 95.7832 930.77 95.4893 930.77 95.142C930.77 94.6966 930.694 94.3448 930.542 94.0865C930.39 93.8282 930.136 93.6412 929.779 93.5254C929.431 93.4096 928.953 93.3517 928.346 93.3517H926.525V102.984H924.637V91.655H928.346C929.23 91.655 929.993 91.7797 930.636 92.0291C931.278 92.2784 931.774 92.657 932.122 93.1647C932.47 93.6634 932.644 94.2958 932.644 95.0618C932.644 95.5428 932.533 95.9747 932.309 96.3577C932.086 96.7407 931.76 97.0703 931.332 97.3464C930.903 97.6225 930.381 97.8451 929.765 98.0144C929.739 98.0144 929.707 98.0455 929.672 98.1079C929.645 98.1613 929.618 98.188 929.591 98.188C929.44 98.2771 929.341 98.3439 929.297 98.3884C929.261 98.4241 929.221 98.4463 929.176 98.4552C929.14 98.4642 929.033 98.4686 928.855 98.4686ZM928.721 98.4686L928.989 97.2662C930.372 97.2662 931.314 97.5601 931.814 98.148C932.323 98.7269 932.577 99.4617 932.577 100.352V101.074C932.577 101.403 932.595 101.72 932.631 102.022C932.666 102.316 932.724 102.566 932.805 102.771V102.984H930.863C930.774 102.753 930.72 102.423 930.703 101.996C930.694 101.568 930.689 101.256 930.689 101.06V100.366C930.689 99.7155 930.537 99.239 930.234 98.9362C929.939 98.6245 929.435 98.4686 928.721 98.4686ZM920.54 97.48C920.54 98.6646 920.745 99.769 921.156 100.793C921.566 101.818 922.138 102.713 922.87 103.479C923.602 104.245 924.45 104.841 925.414 105.269C926.378 105.696 927.409 105.91 928.507 105.91C929.605 105.91 930.631 105.696 931.586 105.269C932.55 104.841 933.394 104.245 934.117 103.479C934.849 102.713 935.42 101.818 935.831 100.793C936.241 99.769 936.447 98.6646 936.447 97.48C936.447 96.2865 936.241 95.182 935.831 94.1667C935.42 93.1513 934.849 92.2651 934.117 91.508C933.394 90.742 932.55 90.1497 931.586 89.7311C930.631 89.3036 929.605 89.0898 928.507 89.0898C927.409 89.0898 926.378 89.3036 925.414 89.7311C924.45 90.1497 923.602 90.742 922.87 91.508C922.138 92.2651 921.566 93.1513 921.156 94.1667C920.745 95.182 920.54 96.2865 920.54 97.48ZM919 97.48C919 96.0638 919.245 94.7501 919.736 93.5387C920.227 92.3274 920.91 91.272 921.785 90.3724C922.66 89.4639 923.669 88.7603 924.811 88.2615C925.963 87.7538 927.195 87.5 928.507 87.5C929.819 87.5 931.046 87.7538 932.189 88.2615C933.34 88.7603 934.349 89.4639 935.215 90.3724C936.09 91.272 936.773 92.3274 937.264 93.5387C937.755 94.7501 938 96.0638 938 97.48C938 98.8961 937.755 100.21 937.264 101.421C936.773 102.632 936.09 103.697 935.215 104.614C934.349 105.523 933.34 106.231 932.189 106.738C931.046 107.246 929.819 107.5 928.507 107.5C927.195 107.5 925.963 107.246 924.811 106.738C923.669 106.231 922.66 105.523 921.785 104.614C920.91 103.697 920.227 102.632 919.736 101.421C919.245 100.21 919 98.8961 919 97.48Z" fill="#E20E1A"/>
<path d="M254.031 79.1423L228.334 151.657H217.832L247.42 72.093H254.191L254.031 79.1423ZM275.569 151.657L249.819 79.1423L249.659 72.093H256.43L286.125 151.657H275.569ZM274.236 122.203V130.837H230.627V122.203H274.236Z" fill="#E20E1A"/>
<path d="M206.103 72.093V151.657H195.761L156.683 90.29V151.657H146.394V72.093H156.683L195.921 133.624V72.093H206.103Z" fill="#E20E1A"/>
<path d="M88.1239 72.093V151.657H77.8347V72.093H88.1239ZM134.985 72.093L102.731 109.197L84.6053 128.487L82.8993 117.23L96.5472 101.82L122.617 72.093H134.985ZM125.069 151.657L96.3339 112.859L102.465 104.498L137.331 151.657H125.069Z" fill="#E20E1A"/>
<path d="M62.4282 109.361V114.389C62.4282 120.363 61.6996 125.719 60.2425 130.455C58.7853 135.191 56.6883 139.216 53.9516 142.531C51.215 145.846 47.9274 148.378 44.0889 150.127C40.286 151.876 36.0211 152.75 31.2941 152.75C26.7093 152.75 22.4976 151.876 18.6592 150.127C14.8562 148.378 11.5509 145.846 8.74315 142.531C5.97093 139.216 3.82069 135.191 2.29241 130.455C0.764137 125.719 0 120.363 0 114.389V109.361C0 103.387 0.746367 98.0496 2.2391 93.3501C3.76737 88.6141 5.91762 84.5886 8.68984 81.2734C11.4621 77.9218 14.7496 75.3717 18.5525 73.623C22.391 71.8743 26.6026 71 31.1875 71C35.9145 71 40.1794 71.8743 43.9823 73.623C47.8208 75.3717 51.1083 77.9218 53.845 81.2734C56.6172 84.5886 58.7319 88.6141 60.1891 93.3501C61.6819 98.0496 62.4282 103.387 62.4282 109.361ZM52.2457 114.389V109.252C52.2457 104.516 51.7659 100.327 50.8062 96.6835C49.8822 93.0404 48.5138 89.9803 46.7012 87.503C44.8886 85.0257 42.6673 83.1496 40.0372 81.8745C37.4427 80.5994 34.4928 79.9619 31.1875 79.9619C27.9887 79.9619 25.0921 80.5994 22.4976 81.8745C19.9387 83.1496 17.7351 85.0257 15.8869 87.503C14.0743 89.9803 12.6705 93.0404 11.6753 96.6835C10.6802 100.327 10.1826 104.516 10.1826 109.252V114.389C10.1826 119.161 10.6802 123.387 11.6753 127.067C12.6705 130.71 14.0921 133.788 15.9403 136.302C17.8239 138.779 20.0453 140.655 22.6042 141.93C25.1988 143.205 28.0954 143.843 31.2941 143.843C34.635 143.843 37.6027 143.205 40.1972 141.93C42.7917 140.655 44.9775 138.779 46.7545 136.302C48.5671 133.788 49.9355 130.71 50.8596 127.067C51.7836 123.387 52.2457 119.161 52.2457 114.389Z" fill="#E20E1A"/>
<g clip-path="url(#clip0_2867_112)">
<path d="M1071 0L986 85.9658L994.019 94L986 102.034L1071 188L1156 102.034L1147.98 94L1156 85.9658L1071 0Z" fill="#0074B8"/>
<path d="M990.972 102.034L1071 21.3708L1150.71 102.034L1071 182.858L990.972 102.034Z" fill="#0074B8"/>
<path d="M1071 183.983L990.01 102.034L1071 20.0854L1151.99 102.034L1071 183.983ZM992.255 102.034L1071 181.573L1149.58 102.034L1071 22.4957L992.255 102.034Z" fill="white"/>
<path d="M990.972 85.9657L1071 5.30249L1150.71 85.9657L1071 166.79L990.972 85.9657Z" fill="#0074B8"/>
<path d="M1071 167.915L990.01 85.9658L1071 4.01709L1151.99 85.9658L1071 167.915ZM992.255 85.9658L1071 165.504L1149.58 85.9658L1071 6.42735L992.255 85.9658Z" fill="white"/>
<path d="M1006.53 86.4478L1071 21.3708L1135.31 86.4478L1071 151.364L1006.53 86.4478Z" fill="#0074B8"/>
<path d="M1071 152.489L1005.57 86.4478L1071 20.0854L1136.43 86.4478L1071 152.489ZM1007.81 86.4478L1071 150.239L1134.19 86.4478L1071 22.4957L1007.81 86.4478Z" fill="white"/>
<path d="M1129.06 66.5232H1012.78V104.766H1129.06V66.5232Z" fill="white"/>
<mask id="mask0_2867_112" style="mask-type:luminance" maskUnits="userSpaceOnUse" x="986" y="0" width="170" height="188">
<path d="M1156 0H986V188H1156V0Z" fill="white"/>
</mask>
<g mask="url(#mask0_2867_112)">
<path d="M1034.11 102.195L1043.74 69.4153H1033.47C1033.47 69.4153 1030.1 83.5555 1029.78 86.1264H1029.62C1029.3 83.5555 1026.25 69.4153 1026.25 69.4153H1016.31L1024.33 102.195H1034.11Z" fill="#0074B8"/>
</g>
<mask id="mask1_2867_112" style="mask-type:luminance" maskUnits="userSpaceOnUse" x="986" y="0" width="170" height="188">
<path d="M1156 0H986V188H1156V0Z" fill="white"/>
</mask>
<g mask="url(#mask1_2867_112)">
<path d="M1047.26 102.195H1065.07V94.482H1056.89V89.3401H1063.14V81.4666H1056.89V76.9675H1065.07V69.2546H1047.26V102.195Z" fill="#0074B8"/>
</g>
<mask id="mask2_2867_112" style="mask-type:luminance" maskUnits="userSpaceOnUse" x="986" y="0" width="170" height="188">
<path d="M1156 0H986V188H1156V0Z" fill="white"/>
</mask>
<g mask="url(#mask2_2867_112)">
<path fill-rule="evenodd" clip-rule="evenodd" d="M1096.98 102.195L1088.48 85.1623L1096.02 69.2546H1086.08L1080.78 80.9846H1080.62H1080.78H1080.62H1080.78V69.2546H1071.16V102.195H1080.78V89.3401H1080.94H1080.78L1086.72 102.195H1096.98Z" fill="#0074B8"/>
</g>
<mask id="mask3_2867_112" style="mask-type:luminance" maskUnits="userSpaceOnUse" x="986" y="0" width="170" height="188">
<path d="M1156 0H986V188H1156V0Z" fill="white"/>
</mask>
<g mask="url(#mask3_2867_112)">
<path fill-rule="evenodd" clip-rule="evenodd" d="M1109.97 89.6614L1111.25 83.2341C1111.58 81.3059 1111.9 79.217 1112.06 76.9674H1112.22C1112.54 79.0563 1112.54 81.1452 1113.02 83.2341L1113.98 89.6614H1109.97ZM1125.69 102.195L1118.15 69.4153H1106.6L1098.1 102.195H1108.05L1108.85 98.017H1115.26L1116.07 102.195H1125.69Z" fill="#0074B8"/>
</g>
</g>
<defs>
<clipPath id="clip0_2867_112">
<rect width="170" height="188" fill="white" transform="translate(986)"/>
</clipPath>
</defs>
</svg>
