<svg width="24" height="24" viewBox="0 0 24 24" fill="none" xmlns="http://www.w3.org/2000/svg">
<path d="M6.44446 18.8572H22M6.44446 12H22M6.44446 5.14287H22" stroke="#000" stroke-width="2" stroke-linecap="round"/>
<path d="M4.22222 12C4.22222 12.6312 3.72476 13.1429 3.11111 13.1429C2.49746 13.1429 2 12.6312 2 12C2 11.3688 2.49746 10.8571 3.11111 10.8571C3.72476 10.8571 4.22222 11.3688 4.22222 12Z" fill="#000"/>
<path d="M4.22222 5.14286C4.22222 5.77404 3.72476 6.28571 3.11111 6.28571C2.49746 6.28571 2 5.77404 2 5.14286C2 4.51167 2.49746 4 3.11111 4C3.72476 4 4.22222 4.51167 4.22222 5.14286Z" fill="#000"/>
<path d="M4.22222 18.8571C4.22222 19.4883 3.72476 20 3.11111 20C2.49746 20 2 19.4883 2 18.8571C2 18.226 2.49746 17.7143 3.11111 17.7143C3.72476 17.7143 4.22222 18.226 4.22222 18.8571Z" fill="#000"/>
</svg>
