<svg width="24" height="24" viewBox="0 0 24 24" fill="none" xmlns="http://www.w3.org/2000/svg">
<g id="nights_stay">
<mask id="mask0_1003_5645" style="mask-type:alpha" maskUnits="userSpaceOnUse" x="0" y="0" width="24" height="24">
<rect id="Bounding box" width="24" height="24" fill="#D9D9D9"/>
</mask>
<g mask="url(#mask0_1003_5645)">
<path id="nights_stay_2" d="M13.1 23H10.5L11 22.6875C11.3333 22.4792 11.6958 22.2458 12.0875 21.9875C12.4792 21.7292 12.8417 21.4958 13.175 21.2875L13.675 20.975C15.025 20.875 16.2708 20.4667 17.4125 19.75C18.5542 19.0333 19.4583 18.075 20.125 16.875C18.6917 16.7417 17.3333 16.3792 16.05 15.7875C14.7667 15.1958 13.6167 14.3917 12.6 13.375C11.5833 12.3583 10.775 11.2083 10.175 9.925C9.575 8.64167 9.21667 7.28333 9.1 5.85C7.81667 6.56667 6.8125 7.55417 6.0875 8.8125C5.3625 10.0708 5 11.4333 5 12.9V13.2L4.7 13.3375C4.5 13.4292 4.27917 13.525 4.0375 13.625C3.79583 13.725 3.575 13.8208 3.375 13.9125L3.075 14.05C3.04167 13.8667 3.02083 13.675 3.0125 13.475C3.00417 13.275 3 13.0833 3 12.9C3 10.4667 3.775 8.32083 5.325 6.4625C6.875 4.60417 8.85 3.45 11.25 3C10.95 4.65 11.0417 6.2625 11.525 7.8375C12.0083 9.4125 12.8417 10.7917 14.025 11.975C15.2083 13.1583 16.5875 13.9917 18.1625 14.475C19.7375 14.9583 21.35 15.05 23 14.75C22.5667 17.15 21.4167 19.125 19.55 20.675C17.6833 22.225 15.5333 23 13.1 23ZM6 21H10.5C10.9167 21 11.2708 20.8542 11.5625 20.5625C11.8542 20.2708 12 19.9167 12 19.5C12 19.0833 11.8583 18.7292 11.575 18.4375C11.2917 18.1458 10.95 18 10.55 18H9.25L8.75 16.8C8.51667 16.25 8.15 15.8125 7.65 15.4875C7.15 15.1625 6.6 15 6 15C5.16667 15 4.45833 15.2875 3.875 15.8625C3.29167 16.4375 3 17.15 3 18C3 18.8333 3.29167 19.5417 3.875 20.125C4.45833 20.7083 5.16667 21 6 21ZM6 23C4.61667 23 3.4375 22.5125 2.4625 21.5375C1.4875 20.5625 1 19.3833 1 18C1 16.6167 1.4875 15.4375 2.4625 14.4625C3.4375 13.4875 4.61667 13 6 13C7 13 7.9125 13.2708 8.7375 13.8125C9.5625 14.3542 10.175 15.0833 10.575 16C11.525 16.0333 12.3333 16.3875 13 17.0625C13.6667 17.7375 14 18.55 14 19.5C14 20.4667 13.6583 21.2917 12.975 21.975C12.2917 22.6583 11.4667 23 10.5 23H6Z" fill="#141414"/>
</g>
</g>
</svg>
