<svg width="49" height="48" viewBox="0 0 49 48" fill="none" xmlns="http://www.w3.org/2000/svg">
<path fill-rule="evenodd" clip-rule="evenodd" d="M14.1224 0.0433535C11.7118 0.495664 11.2713 3.77861 13.4764 4.85806C14.1017 5.16418 14.9277 5.2044 15.518 4.9577L15.8974 4.79904L17.8556 6.74979L19.8137 8.70045H23.919H28.0242L28.1968 8.9643C28.7989 9.8847 27.9572 11.3196 26.8103 11.328C26.1278 11.333 25.4977 11.9761 25.4977 12.6678V12.9859H22.7806H20.0636L19.8546 12.5539C18.66 10.0849 14.9955 10.9272 14.9864 13.6729C14.9773 16.3889 18.6953 17.2089 19.8487 14.7452L20.0809 14.249L22.7638 14.2749L25.4467 14.3008L25.5145 14.7759C25.6256 15.553 26.0477 15.8781 27.1741 16.0538C28.1304 16.2031 28.695 17.4611 28.2113 18.3653C28.1255 18.5258 27.8404 18.5375 24.015 18.5375H19.9109L17.9099 20.5154L15.909 22.4934L15.4223 22.3216C12.7862 21.3908 10.7657 24.996 12.9524 26.7288C15.0267 28.3723 18.0002 26.1848 16.9816 23.7646L16.8245 23.3913L18.6129 21.5975L20.4013 19.8037H23.9598H27.5183L27.6317 20.0776C27.8274 20.5501 29.6021 22.2407 29.9958 22.3296C30.4159 22.4243 30.9152 22.269 31.3403 21.9111C32.3803 21.0355 33.727 21.6892 33.9707 23.1877C34.145 24.2587 34.6619 24.5188 36.5056 24.4632C38.1441 24.4137 38.3967 24.2383 38.6275 22.9892C38.8827 21.6079 40.049 21.1476 41.2537 21.9524C42.2709 22.6321 42.6333 22.5457 43.8789 21.3269C44.796 20.4294 44.9672 20.1637 44.9666 19.6381C44.9663 19.2935 44.9043 19.1623 44.3591 18.3518C44.1178 17.9931 44.1362 17.2445 44.3976 16.779C44.6414 16.3451 45.1853 16.039 45.8628 15.9545C46.8425 15.8321 47.1541 15.1744 47.0901 13.3638C47.0358 11.823 46.8221 11.5134 45.6856 11.3283C44.7277 11.1723 44.1879 10.5972 44.1886 9.73305C44.1889 9.24471 44.2153 9.18344 44.7962 8.31993C45.2319 7.67204 45.0027 7.11075 43.8302 5.95406C42.6024 4.74274 42.3189 4.66979 41.3519 5.31592C40.0429 6.19054 38.7822 5.67064 38.596 4.1793C38.4614 3.10161 38.0236 2.85666 36.2318 2.85666C34.562 2.85666 33.9668 3.20271 33.9668 4.17375C33.9668 5.52133 32.3745 6.21129 31.2634 5.34524C30.7405 4.93754 30.2878 4.82991 29.8523 5.00951C29.4367 5.18093 27.8938 6.67324 27.6917 7.09925L27.5328 7.4343H23.9589H20.385L18.606 5.65243L16.827 3.87065L16.9862 3.48954C17.7384 1.68829 16.068 -0.321787 14.1224 0.0433535ZM15.2724 1.45765C16.3727 2.10787 15.8808 3.83062 14.5949 3.83062C13.318 3.83062 12.8207 2.1331 13.9011 1.46233C14.2318 1.25692 14.9289 1.25458 15.2724 1.45765ZM37.327 4.39065C37.5995 5.74164 38.1348 6.45069 39.1806 6.84563C40.172 7.22003 40.9711 7.08737 42.1197 6.35777C42.3278 6.22561 42.3734 6.25327 43.0324 6.91274L43.7262 7.60679L43.4358 8.03183C42.222 9.80922 43.2316 12.283 45.2834 12.5592L45.7458 12.6214V13.6667V14.7119L45.2491 14.7708C43.1936 15.0143 42.124 17.8927 43.5317 19.3919L43.7418 19.6157L43.0096 20.3483L42.2773 21.0809L41.7714 20.7402C40.0197 19.5609 37.6807 20.6697 37.3271 22.8473L37.2678 23.2126H36.2633H35.2588L35.1976 22.7654C34.9115 20.6774 32.6385 19.6272 30.8013 20.7341L30.2314 21.0775L29.5282 20.3788L28.8252 19.6801L29.1029 19.2965C30.1784 17.811 29.645 15.7563 27.98 14.9707C27.7123 14.8443 27.3291 14.7405 27.1282 14.74L26.7632 14.739V13.6677V12.5963H27.0379C27.8665 12.5963 28.9078 11.8841 29.3699 11.0013C29.8655 10.0545 29.65 8.40223 28.9555 7.82564C28.8129 7.7072 28.87 7.61935 29.5053 6.97955C30.3216 6.15723 30.2513 6.18188 30.7506 6.5438C32.4584 7.78152 35.2323 6.42683 35.2323 4.3551C35.2323 4.12505 35.2423 4.12281 36.2526 4.12281H37.2729L37.327 4.39065ZM35.4757 8.11695C32.3442 8.54667 30.1526 11.6752 30.8029 14.7877C31.7097 19.1279 37.0945 20.7254 40.197 17.5746C43.9582 13.7548 40.7803 7.38901 35.4757 8.11695ZM38.0953 9.75507C41.6366 11.4229 41.2792 16.6374 37.5458 17.772C34.5347 18.687 31.4979 16.0734 32.0132 13.0103C32.4924 10.1609 35.5183 8.54141 38.0953 9.75507ZM18.2194 12.5629C19.0007 12.9567 18.9845 14.3066 18.1928 14.7745C16.9834 15.4894 15.6287 13.8952 16.5517 12.8434C17.0121 12.3187 17.554 12.2276 18.2194 12.5629ZM15.3441 23.6724C15.873 24.0191 16.0419 25.0007 15.6571 25.4902C14.8825 26.4754 13.3294 26.016 13.3294 24.8016C13.3294 23.6789 14.4209 23.0671 15.3441 23.6724ZM22.4799 31.3848C22.1855 31.4812 19.7449 32.4431 17.0564 33.5224L12.1683 35.4845H9.82839H7.48857V34.5062C7.48857 33.5929 7.47241 33.5116 7.24569 33.2847L7.00281 33.0417L3.93922 33.0701C1.15053 33.0958 0.860146 33.1139 0.701958 33.2723C0.4326 33.542 0.432697 47.5566 0.702152 47.826C0.861801 47.9858 1.13057 48 3.99617 48H7.11642L7.30244 47.7701C7.45771 47.5783 7.48857 47.3802 7.48857 46.5769C7.48857 46.0472 7.52147 45.6138 7.56158 45.6139C8.10925 45.6147 12.2183 45.9853 15.0329 46.2878C27.5189 47.6297 32.7571 47.4794 36.5465 45.6706C37.4103 45.2583 47.3311 39.0671 47.7754 38.6631C49.1018 37.4569 48.5173 35.1613 46.7531 34.6482C45.8169 34.3759 45.734 34.4136 40.0892 37.6756L34.9595 40.64L30.8857 39.2203C28.6451 38.4394 26.7699 37.7612 26.7187 37.7132C26.4272 37.4401 26.979 37.2864 29.6885 36.8859C31.1878 36.6643 32.6171 36.4055 32.8649 36.3108C34.5979 35.6486 35.0745 33.5642 33.7873 32.2764C33.0172 31.5059 32.926 31.4915 28.8145 31.4902C25.9426 31.4893 25.1619 31.4611 24.7764 31.3441C24.1407 31.1512 23.1395 31.1689 22.4799 31.3848ZM24.5442 32.6166C25.9727 33.1037 26.6937 34.8293 26.0474 36.215C25.0367 38.3821 21.8178 38.1628 21.1506 35.8814C20.5431 33.8046 22.5017 31.9203 24.5442 32.6166ZM32.6139 32.9778C33.4041 33.5044 33.4535 34.4624 32.7158 34.9508C32.3929 35.1646 28.5981 35.8652 27.7218 35.8728C27.586 35.8739 27.5553 35.7329 27.5259 34.9732C27.4915 34.0832 27.4533 33.9559 26.8815 32.8305C26.861 32.7902 28.068 32.7574 29.5638 32.7574C32.2263 32.7574 32.29 32.762 32.6139 32.9778ZM19.8778 34.0966C19.8366 34.2439 19.8052 34.7589 19.8081 35.241C19.8169 36.7343 20.6627 38.0222 22.0659 38.6791C22.7218 38.9861 24.2182 39.0513 25.011 38.8073L25.449 38.6724L29.8254 40.1991C32.2324 41.0388 34.2131 41.7371 34.227 41.7509C34.2609 41.7849 33.3023 45.3372 33.2433 45.3962C32.8841 45.7555 26.9988 46.0167 23.7941 45.8156C21.1736 45.6511 11.7121 44.7098 11.6053 44.603C11.5869 44.5846 11.7226 44.4546 11.9067 44.314C12.0909 44.1735 12.4385 43.762 12.6791 43.3996C14.0119 41.3924 13.8693 39.1219 12.288 37.1646L11.9535 36.7507L12.2277 36.7461C12.3785 36.7436 14.1227 36.0882 16.1037 35.2897C20.0973 33.6802 19.9842 33.7159 19.8778 34.0966ZM23.4534 34.2874C22.7002 34.5645 22.6273 35.5721 23.3391 35.8671C24.2815 36.2577 24.9743 34.939 24.1052 34.4089C23.7829 34.2123 23.6999 34.1969 23.4534 34.2874ZM6.20214 35.1927L6.22998 36.0209L5.86259 36.2154C4.54209 36.9142 3.40342 38.921 3.40342 40.5492C3.40342 42.158 4.54968 44.1758 5.86415 44.8811L6.22307 45.0737V45.8794V46.6851H4.03277H1.84247V40.4986V34.3121L4.00843 34.3383L6.17439 34.3645L6.20214 35.1927ZM46.9869 36.2187C47.3126 36.5913 47.2902 37.2398 46.9383 37.625C46.6439 37.9472 37.2806 43.8746 37.172 43.8075C37.0731 43.7463 35.8989 41.603 35.9411 41.5607C36.1068 41.3949 45.7832 35.8813 45.9568 35.8537C46.3205 35.7959 46.7507 35.9483 46.9869 36.2187ZM10.1575 37.129C12.8074 38.4342 13.0147 42.1637 10.5255 43.7484C7.32853 45.7839 3.42844 42.2473 5.11799 38.8447C6.02438 37.0193 8.33665 36.2321 10.1575 37.129ZM7.9828 39.9247C7.58718 40.2577 7.56363 40.7923 7.92926 41.1361C8.73646 41.8948 9.83696 40.741 9.05361 39.9573C8.70073 39.6042 8.3753 39.5943 7.9828 39.9247ZM35.9498 44.5381C35.7891 44.6854 34.7456 45.0265 34.7456 44.9317C34.7456 44.8406 35.0952 43.4795 35.1955 43.1798C35.2257 43.0898 35.3944 43.3058 35.6394 43.7476C35.8567 44.1397 35.9964 44.4955 35.9498 44.5381Z" fill="white"/>
</svg>
