<svg width="45" height="48" viewBox="0 0 45 48" fill="none" xmlns="http://www.w3.org/2000/svg">
<path fill-rule="evenodd" clip-rule="evenodd" d="M29.7011 0.109702C27.9228 0.745397 27.4654 2.05076 25.3317 12.5816C24.7856 15.2774 24.2849 17.6529 24.2192 17.8605C24.0309 18.455 24.0105 16.0419 24.1885 14.2277C24.2674 13.4233 24.3762 11.5974 24.4304 10.1702C24.4845 8.74307 24.5909 6.87476 24.6668 6.01845C24.8959 3.43444 24.8299 2.55322 24.3353 1.58321C23.4907 -0.0729773 21.351 -0.333785 19.852 1.03668C18.3571 2.40347 18.0957 3.79121 17.4034 14.039C16.6933 24.5496 16.2794 26.5597 14.6712 27.3089C13.3937 27.9041 12.3677 27.1936 11.1779 24.8902C9.36237 21.3755 7.37847 19.4608 4.71778 18.6557C2.19717 17.8929 0 19.0375 0 21.1135C0 21.7159 0.224113 22.1161 1.0252 22.9438C2.7501 24.7261 6.47183 29.8994 9.24777 34.3733C12.0238 38.8473 12.575 40.0711 12.9707 42.6378C13.3189 44.8964 13.7619 45.7952 14.9426 46.638C16.3697 47.6568 17.4048 47.924 20.1381 47.9796C22.1656 48.0208 22.2229 48.0167 22.6377 47.8026C23.0305 47.5999 23.0643 47.5532 23.0915 47.1755C23.1392 46.5121 23.1693 46.5211 20.7234 46.4729C17.8393 46.4161 16.6955 46.0856 15.5792 44.9865C14.764 44.1837 14.6066 43.7773 14.3889 41.9133C14.13 39.6967 14.1933 39.8201 9.54253 32.4861C6.84789 28.2369 5.38644 26.0018 4.73382 25.1316L4.45481 24.7597L4.71967 24.4948C5.76242 23.4516 4.7707 21.5455 2.33602 19.9136C1.89996 19.6212 1.9376 19.5542 2.61908 19.4101C4.229 19.0694 6.52106 20.0528 8.14692 21.7819C9.02696 22.7176 9.61177 23.5973 10.4893 25.3054C11.6134 27.4935 12.5875 28.3193 14.0542 28.3275C14.9047 28.3323 15.4296 28.124 16.0818 27.5226C17.5323 26.185 17.9404 23.9114 18.629 13.3313C19.0504 6.85862 19.2938 4.78226 19.8295 3.09333C20.1693 2.0216 20.2325 2.02783 20.3483 3.14466C20.475 4.36651 20.6562 4.76075 21.2247 5.05128C22.1395 5.51892 22.9795 5.18649 23.7931 4.03465L23.9582 3.80102L23.9116 4.13128C23.807 4.87332 23.6634 6.91458 23.4838 10.2174C23.3792 12.1376 23.2527 14.1758 23.2024 14.7466C23.0159 16.8632 23.1356 19.4902 23.4459 20.0905C23.6396 20.4652 24.0059 20.602 24.2998 20.4093C24.8506 20.0483 25.1525 18.934 26.5121 12.2461C27.5352 7.21294 28.0585 4.85803 28.4002 3.74865L28.6165 3.04615L28.6842 3.65948C28.8315 4.99617 29.4615 5.72707 30.4716 5.7333C30.8843 5.73585 31.72 5.33143 31.9767 5.00504C32.0814 4.8719 32.1832 4.78009 32.203 4.80094C32.37 4.97683 31.0878 11.6884 29.9089 16.8103C29.1257 20.2126 29.1086 20.3709 29.5099 20.4983C29.9754 20.6461 29.6788 21.2966 32.5617 13.8031C35.2113 6.9159 35.6994 5.78303 35.3033 7.43903C34.8334 9.40367 36.4433 10.5148 37.9235 9.24732L38.3046 8.92093L38.2411 9.19174C37.8088 11.0329 35.5324 17.8322 34.4543 20.5025C33.5784 22.672 33.4894 23.0975 33.8504 23.3899C34.3646 23.8065 34.5294 23.6817 35.9889 21.7708C37.7334 19.4867 39.0602 17.9009 40.8787 15.9261C41.6592 15.0787 41.7419 15.0312 41.5077 15.5651C41.1049 16.4834 41.1768 17.1746 41.731 17.712C42.192 18.1589 42.8116 18.218 43.3292 17.8645C43.5298 17.7274 43.71 17.6314 43.7298 17.651C43.8347 17.7561 42.7953 19.6 41.8229 21.0336C40.8256 22.504 40.033 23.7728 36.9969 28.7589C35.9579 30.4654 35.4267 31.4979 34.6185 33.3825C32.4655 38.4026 30.547 41.4297 27.5366 44.5565C26.5389 45.5927 25.8351 46.0599 25.0936 46.1785C24.4231 46.2858 24.1743 46.6558 24.5011 47.0596C24.8929 47.5436 26.3017 47.0356 27.7977 45.8706C30.8131 43.5228 32.6248 40.7928 35.5706 34.1584C36.8957 31.1741 37.1448 30.7049 39.18 27.3621C40.1816 25.7172 41.3553 23.7556 41.7885 23.0031C42.2215 22.2505 42.8417 21.2286 43.1666 20.7322C45.3245 17.4357 45.6091 14.4596 43.8524 13.563C43.3476 13.3054 42.5436 13.3163 42 13.5879C41.3134 13.9309 37.7712 17.7939 35.5936 20.5745C35.2516 21.0113 35.2791 20.878 35.8058 19.5465C36.6415 17.4339 38.1958 12.5872 38.9791 9.65127C39.7208 6.87127 38.3111 4.53645 36.1607 4.98305C35.0129 5.22141 34.5607 5.91617 33.1171 9.65873C32.1841 12.0776 31.7089 13.2183 31.6982 13.0649C31.6952 13.0221 31.8391 12.2763 32.018 11.4074C32.3557 9.76714 32.6896 7.94262 32.9785 6.15999C33.2619 4.41048 33.2227 2.4297 32.8912 1.75438C32.2471 0.442222 30.8236 -0.291607 29.7011 0.109702ZM31.2404 1.43393C31.7464 1.67587 31.7933 1.77051 31.7974 2.5585C31.8047 3.95228 30.9865 5.0208 30.1545 4.70432C29.6071 4.49616 29.4483 3.06625 29.8011 1.52263L29.912 1.03715L30.4015 1.15199C30.6707 1.21512 31.0482 1.34203 31.2404 1.43393ZM22.9297 1.27371C23.1912 1.42818 23.2036 1.46602 23.2036 2.10577C23.2036 3.48171 22.7084 4.35632 21.96 4.30207C21.3867 4.26045 21.3203 4.07862 21.3186 2.54775C21.3171 1.33561 21.3241 1.29164 21.5294 1.20908C21.888 1.0649 22.6347 1.09934 22.9297 1.27371ZM37.5069 6.05054C38.0599 6.4308 38.1038 6.62716 37.8344 7.51423C37.4149 8.89621 36.1006 9.26581 36.2544 7.95866C36.3161 7.43384 36.8704 5.73538 36.9799 5.73538C37.0177 5.73538 37.2548 5.8772 37.5069 6.05054ZM6.20017 12.0338C6.02436 12.229 5.51105 15.6035 5.60207 15.9661C5.69667 16.3434 6.3178 16.4076 6.45334 16.054C6.53672 15.8368 6.97995 12.8161 6.97995 12.4651C6.97995 11.9427 6.51437 11.6851 6.20017 12.0338ZM2.67294 12.4348C2.56079 12.48 2.44317 12.5983 2.41167 12.6976C2.33658 12.9342 3.6956 16.8773 3.89566 17.0035C4.09808 17.1313 4.56309 16.9637 4.6046 16.7481C4.66091 16.4557 3.30406 12.5373 3.1107 12.4338C2.91139 12.3271 2.93988 12.327 2.67294 12.4348ZM10.8041 12.8359C10.7237 12.9527 10.3644 13.494 10.0057 14.039C9.64695 14.5839 9.01045 15.4019 8.59118 15.8568C8.17192 16.3117 7.82886 16.747 7.82886 16.824C7.82886 17.0145 8.16909 17.3415 8.36717 17.3415C8.86133 17.3415 11.6018 13.7776 11.6018 13.1349C11.6018 12.6607 11.0637 12.459 10.8041 12.8359ZM43.5827 14.3249C44.1561 14.6318 44.1627 15.2554 43.6011 16.0664C42.8268 17.1846 42.3378 17.3492 42.2755 16.5126C42.2452 16.1061 42.3821 15.7686 42.982 14.7702C43.34 14.1748 43.3243 14.1864 43.5827 14.3249ZM1.78017 20.899C3.1489 21.8705 4.05592 22.8981 4.05592 23.4775C4.05592 24.228 3.88425 24.1476 2.53136 22.7632C1.1483 21.3478 1.04577 21.2102 1.04086 20.762C1.03662 20.3714 1.03681 20.3715 1.78017 20.899Z" fill="white"/>
</svg>
