<svg width="49" height="48" viewBox="0 0 49 48" fill="none" xmlns="http://www.w3.org/2000/svg">
<path fill-rule="evenodd" clip-rule="evenodd" d="M0.5 0.774975V1.54995H2.04839H3.59677V3.86092V6.172L2.91326 6.23554C1.78874 6.34017 1.17897 6.71022 0.773677 7.53401C0.47929 8.13229 0.425871 11.8889 0.703032 12.4965C1.25735 13.7114 1.75265 13.9011 4.37097 13.9011H6.45161L6.97806 13.6105C7.34571 13.4075 7.59084 13.1812 7.79087 12.8597L8.07732 12.3996H13.5789H19.0806L19.083 13.9253C19.0863 16.1273 19.3286 16.7317 20.2985 16.9568C20.7923 17.0715 28.2077 17.0715 28.7015 16.9568C29.6714 16.7317 29.9137 16.1273 29.917 13.9253L29.9194 12.3996H35.4211H40.9227L41.2091 12.8597C41.4092 13.1812 41.6543 13.4075 42.0219 13.6105L42.5484 13.9011H44.5806C46.9156 13.9011 47.127 13.8557 47.7665 13.2154C48.4062 12.5751 48.4516 12.3636 48.4516 10.0262C48.4516 8.09209 48.4405 7.96936 48.2263 7.53401C47.821 6.71022 47.2113 6.34017 46.0867 6.23554L45.4032 6.172V3.86092V1.54995H46.9516H48.5V0.774975V0H44.629H40.7581V0.774975V1.54995H42.3064H43.8548V3.86092V6.172L43.1625 6.23642C42.2374 6.32244 41.5958 6.66837 41.2091 7.28961L40.9227 7.74975H37.5719H34.221L33.4516 6.1998L32.6823 4.64985H24.5H16.3177L15.5484 6.1998L14.779 7.74975H11.4281H8.07732L7.79087 7.28961C7.40416 6.66837 6.76264 6.32244 5.83748 6.23642L5.14516 6.172V3.86092V1.54995H6.69355H8.24194V0.774975V0H4.37097H0.5V0.774975ZM32.5806 7.74975L33.35 9.2997H37.054H40.7581V10.0747V10.8496H24.5H8.24194V10.0747V9.2997H11.946H15.65L16.4194 7.74975L17.1887 6.1998H24.5H31.8113L32.5806 7.74975ZM6.46961 7.96035C6.80803 8.27867 6.81945 11.817 6.48316 12.1754C6.16516 12.5142 2.63039 12.5256 2.27232 12.189C1.9339 11.8707 1.92248 8.33234 2.25877 7.97391C2.57677 7.63515 6.11155 7.62372 6.46961 7.96035ZM19.0806 8.52472V9.2997H19.8548H20.629V8.52472V7.74975H19.8548H19.0806V8.52472ZM22.1774 8.52472V9.2997H22.9516H23.7258V8.52472V7.74975H22.9516H22.1774V8.52472ZM25.2742 8.52472V9.2997H26.0484H26.8226V8.52472V7.74975H26.0484H25.2742V8.52472ZM28.371 8.52472V9.2997H29.1452H29.9194V8.52472V7.74975H29.1452H28.371V8.52472ZM46.7277 7.96035C47.0661 8.27867 47.0775 11.817 46.7412 12.1754C46.4232 12.5142 42.8885 12.5256 42.5304 12.189C42.192 11.8707 42.1805 8.33234 42.5168 7.97391C42.8348 7.63515 46.3696 7.62372 46.7277 7.96035ZM22.7581 12.4358C22.7581 12.4558 22.6448 12.6748 22.5065 12.9227C22.3142 13.2671 22.2548 13.5092 22.2548 13.9495C22.2548 14.3899 22.3142 14.632 22.5065 14.9764C22.6448 15.2243 22.7581 15.4433 22.7581 15.4633C22.7581 15.4832 22.279 15.4995 21.6935 15.4995H20.629V13.9495V12.3996H21.6935C22.279 12.3996 22.7581 12.4159 22.7581 12.4358ZM28.371 13.9495V15.4995H27.3064C26.721 15.4995 26.2419 15.4832 26.2419 15.4633C26.2419 15.4433 26.3552 15.2243 26.4935 14.9764C26.6858 14.632 26.7452 14.3899 26.7452 13.9495C26.7452 13.5092 26.6858 13.2671 26.4935 12.9227C26.3552 12.6748 26.2419 12.4558 26.2419 12.4358C26.2419 12.4159 26.721 12.3996 27.3064 12.3996H28.371V13.9495ZM25.0503 13.3852C25.5493 13.8545 25.2006 14.7245 24.5135 14.7245C24.051 14.7245 23.7258 14.4103 23.7258 13.9631C23.7258 13.2588 24.5386 12.9041 25.0503 13.3852ZM8.45232 18.6987C7.27177 18.8707 6.06984 19.7791 5.56642 20.8798C5.25065 21.5703 5.14952 22.3155 5.1471 23.9694L5.14516 25.3192L3.71165 26.7787C2.13558 28.3833 1.55145 29.2076 1.08597 30.4843C0.364226 32.4639 0.387645 33.3272 1.31155 38.7972C2.09 43.4057 2.20081 43.8439 3.24645 46.4501L3.86842 48H9.01913H14.1698L14.4628 47.2492L14.7556 46.4985H24.5H34.2444L34.5372 47.2492L34.8302 48H39.9809H45.1316L45.7535 46.4501C46.7894 43.8682 46.9136 43.3835 47.639 39.0878C48.6064 33.359 48.6367 32.6684 48.0056 30.7568C47.5296 29.3154 46.9959 28.5312 45.3306 26.8261L43.8548 25.3152L43.8529 23.9674C43.8518 23.2261 43.8083 22.3238 43.756 21.9623C43.512 20.2723 42.1835 18.9426 40.4946 18.6982C39.7106 18.5847 9.23145 18.5852 8.45232 18.6987ZM41.2551 20.4911C41.4844 20.6524 41.8039 20.9722 41.965 21.2018L42.2581 21.6191L42.2838 30.005C42.3076 37.7274 42.2969 38.405 42.1478 38.5698C41.9865 38.7484 41.5924 38.8029 41.2935 38.6881C40.9877 38.5707 40.1506 36.6264 39.5534 34.6463L39.2073 33.4985L39.535 33.0479C42.0169 29.6364 40.3544 24.8141 36.2581 23.5422C33.134 22.5722 29.6804 24.4872 28.6625 27.7538C27.6859 30.8875 29.724 34.5148 32.9435 35.3728C33.2977 35.4672 33.4032 35.5397 33.4032 35.6888C33.4032 35.7952 33.3388 36.7344 33.2601 37.7757C33.1813 38.817 33.0974 39.93 33.0736 40.249C33.0076 41.1329 33.1845 42.9521 33.4388 44.0051L33.6666 44.9485H24.4954H15.324L15.4598 44.44C15.9352 42.6604 16.0126 40.8727 15.7505 37.7326C15.5447 35.2697 15.5096 35.5141 16.0906 35.365C17.5814 34.9826 19.1786 33.6731 19.88 32.2583C21.9425 28.0984 19.0354 23.3319 14.4355 23.3319C12.6704 23.3319 11.3984 23.8649 10.1277 25.1369C7.95123 27.3155 7.67697 30.5901 9.46497 33.0479L9.79274 33.4985L9.44658 34.6463C8.84939 36.6264 8.01229 38.5707 7.70648 38.6881C7.4239 38.7967 7.05132 38.7522 6.87055 38.5884C6.63326 38.3735 6.59135 22.1317 6.82661 21.568C7.02171 21.1007 7.51119 20.5836 7.97784 20.3518L8.3871 20.1486L24.6126 20.1732L40.8382 20.1978L41.2551 20.4911ZM20.629 24.0242V26.3491H24.5H28.371V24.0242V21.6993H24.5H20.629V24.0242ZM26.8226 24.0242V24.7992H24.5H22.1774V24.0242V23.2492H24.5H26.8226V24.0242ZM16.3979 25.2138C20.1383 26.9543 19.9324 32.3522 16.0693 33.8214C15.4556 34.0549 15.4361 34.0352 15.3815 33.1227L15.3377 32.3886L15.8551 32.1175C18.0633 30.9601 17.9632 27.7155 15.6877 26.6934C13.7307 25.8142 11.4706 27.2006 11.415 29.3143C11.4016 29.8249 11.3715 29.8949 11.0345 30.1997C10.8332 30.3817 10.5625 30.7539 10.4329 31.0268L10.1974 31.5229L9.99384 30.8633C9.47677 29.1874 9.91758 27.3687 11.1366 26.1484C12.509 24.7747 14.6404 24.3961 16.3979 25.2138ZM36.5269 25.2138C38.6528 26.2031 39.7046 28.5996 39.0062 30.8633L38.8026 31.5229L38.5671 31.0268C38.4375 30.7539 38.1668 30.3817 37.9655 30.1997C37.628 29.8944 37.5984 29.8254 37.5848 29.3105C37.5429 27.7148 36.1934 26.429 34.5607 26.429C31.4296 26.429 30.3751 30.6658 33.1449 32.1175L33.6623 32.3886L33.6185 33.1227C33.5639 34.0352 33.5444 34.0549 32.9307 33.8214C30.2553 32.8039 29.1455 29.8032 30.4737 27.1778C31.5134 25.1225 34.3515 24.2016 36.5269 25.2138ZM5.40239 38.9909C6.17803 40.4298 8.00948 40.6672 9.00519 39.4578C9.644 38.6822 10.5913 36.1672 11.2998 33.3661C11.6834 31.8491 11.8094 31.4857 12.0276 31.2654C12.5747 30.7132 13.6761 31.0472 13.8035 31.804C13.8321 31.974 13.9899 33.8567 14.1543 35.9879C14.6006 41.7775 14.52 43.0386 13.5409 45.5782L13.2048 46.4501H9.02058H4.83635L4.40716 45.3845C3.61874 43.4271 3.43119 42.6476 2.71777 38.3613C2.08013 34.5302 2.03552 34.1668 2.07558 33.1302C2.15165 31.1632 2.70887 29.9131 4.22581 28.306L5.09677 27.3833L5.14516 32.9934C5.19277 38.51 5.19703 38.6099 5.40239 38.9909ZM45.9866 29.8298C47.1692 31.8223 47.2046 32.8324 46.2844 38.3128C45.46 43.2222 45.4285 43.3484 44.4001 45.8688L44.1629 46.4501H39.979H35.7952L35.4591 45.5782C34.4781 43.0336 34.4011 41.8273 34.8467 35.9879C35.0134 33.8034 35.1727 31.9125 35.2008 31.7858C35.3668 31.0367 36.435 30.7229 36.9724 31.2654C37.1906 31.4857 37.3166 31.8491 37.7002 33.3661C38.4087 36.1672 39.356 38.6822 39.9948 39.4578C40.9905 40.6672 42.822 40.4298 43.5976 38.9909C43.8036 38.6087 43.8068 38.5274 43.8371 32.9849L43.8678 27.3663L44.7256 28.2584C45.1974 28.749 45.7649 29.4562 45.9866 29.8298ZM15.1728 28.0563C16.1341 28.513 16.269 30.0913 15.3996 30.7109L15.1296 30.9034L14.5649 30.3419C14.0299 29.8102 13.5212 29.5459 13.0325 29.5459C12.8893 29.5459 12.87 29.4838 12.9129 29.163C13.0488 28.1486 14.1904 27.5897 15.1728 28.0563ZM22.1774 28.6741V29.449H22.9516H23.7258V28.6741V27.8991H22.9516H22.1774V28.6741ZM25.2742 28.6741V29.449H26.0484H26.8226V28.6741V27.8991H26.0484H25.2742V28.6741ZM35.3018 28.0563C35.8979 28.3395 36.4371 29.5459 35.9675 29.5459C35.4788 29.5459 34.9701 29.8102 34.4351 30.3419L33.8704 30.9034L33.6004 30.7109C32.7385 30.0965 32.8634 28.528 33.8114 28.0602C34.2207 27.8583 34.8813 27.8566 35.3018 28.0563ZM22.1774 31.774V32.5489H22.9516H23.7258V31.774V30.999H22.9516H22.1774V31.774ZM25.2742 31.774V32.5489H26.0484H26.8226V31.774V30.999H26.0484H25.2742V31.774ZM22.1774 34.8739V35.6488H22.9516H23.7258V34.8739V34.0989H22.9516H22.1774V34.8739ZM25.2742 34.8739V35.6488H26.0484H26.8226V34.8739V34.0989H26.0484H25.2742V34.8739ZM17.5323 40.2987V43.3986H20.629H23.7258V40.2987V37.1988H20.629H17.5323V40.2987ZM25.2742 40.2987V43.3986H28.371H31.4677V40.2987V37.1988H28.371H25.2742V40.2987ZM22.1774 40.2987V41.8486H20.629H19.0806V40.2987V38.7487H20.629H22.1774V40.2987ZM29.9194 40.2987V41.8486H28.371H26.8226V40.2987V38.7487H28.371H29.9194V40.2987Z" fill="white"/>
</svg>
