<svg width="49" height="48" viewBox="0 0 49 48" fill="none" xmlns="http://www.w3.org/2000/svg">
<path fill-rule="evenodd" clip-rule="evenodd" d="M23.0637 0.148547C21.3 0.52888 21.9348 -0.036078 10.9769 10.9046C3.43301 18.4365 1.03302 20.8917 0.831341 21.2834C0.000398219 22.8971 0.797488 25.0938 2.49528 25.8687C2.93517 26.0694 3.21635 26.108 4.47005 26.1401L5.9319 26.1775L5.93343 34.6601C5.93508 44.0579 5.92123 43.8407 6.60311 45.1389C7.22488 46.3227 8.44196 47.3594 9.69053 47.769C10.6294 48.077 38.3704 48.077 39.3092 47.769C40.5578 47.3594 41.7749 46.3227 42.3967 45.1389C43.0785 43.8408 43.0647 44.0577 43.0663 34.6619L43.0679 26.1809L44.5297 26.1431C45.8809 26.108 46.0359 26.0834 46.5766 25.8186C48.2477 25.0001 48.9742 22.961 48.1742 21.3347C47.9418 20.8624 46.2842 19.16 38.0191 10.9046C28.4587 1.35564 28.1169 1.02703 27.3723 0.666297C26.0372 0.0196483 24.5116 -0.163642 23.0637 0.148547ZM25.2048 2.14114C26.5733 2.40078 26.0108 1.89104 36.571 12.4382C47.0783 22.9323 46.6372 22.4452 46.3171 23.2022C46.0126 23.9223 45.935 23.9461 43.6987 24.0035C41.5908 24.0576 41.4154 24.0952 41.1083 24.557C40.9891 24.7364 40.9563 26.3548 40.9136 34.163L40.8623 43.5533L40.6137 44.0586C40.282 44.733 39.6855 45.3109 38.9796 45.642L38.4002 45.9137L34.7378 45.9452L31.0754 45.9768L31.0447 39.5824L31.0141 33.1881L30.7438 32.6113C30.3631 31.799 29.8428 31.2662 29.0918 30.9192L28.4494 30.6224H24.4999H20.5503L19.9738 30.8928C19.1618 31.2737 18.6292 31.7941 18.2824 32.5454L17.9857 33.1881L17.955 39.5824L17.9244 45.9768L14.2619 45.9452L10.5995 45.9137L10.0201 45.642C9.31425 45.3109 8.71781 44.733 8.38605 44.0586L8.13749 43.5533L8.08619 34.163C8.04352 26.3548 8.01069 24.7364 7.89149 24.557C7.58434 24.0951 7.40903 24.0576 5.29864 24.0035C3.34459 23.9533 3.27216 23.9439 3.01908 23.7057C2.69707 23.4025 2.50964 22.8654 2.59325 22.4848C2.70548 21.9733 22.0491 2.74664 22.7399 2.45979C23.6852 2.06745 24.3579 1.98043 25.2048 2.14114ZM28.5754 33.062L28.8598 33.3466L28.8877 39.6558L28.9157 45.965H24.4999H20.0841L20.1121 39.6642C20.1393 33.5284 20.1453 33.3575 20.3452 33.1353C20.6927 32.749 20.8533 32.7348 24.6259 32.7565L28.2911 32.7776L28.5754 33.062Z" fill="white"/>
</svg>
