<svg width="80" height="80" viewBox="0 0 80 80" fill="none" xmlns="http://www.w3.org/2000/svg">
<circle cx="40" cy="40" r="40" fill="#182D3B"/>
<path d="M32.0174 55.2512C31.7215 55.1692 31.4249 55.0914 31.1275 55.0151C30.9101 54.9597 30.6905 54.9042 30.4745 54.8524C30.1729 54.7804 29.8698 54.7142 29.5667 54.6494C29.5359 54.6427 29.5052 54.636 29.4744 54.6293C29.2892 54.5891 29.104 54.5489 28.9187 54.5118L32.0174 55.2512ZM32.0174 55.2512C32.2334 55.3117 32.4494 55.3751 32.6653 55.4384L32.0174 55.2512ZM22.2585 53.6803C21.8849 53.6485 21.5984 53.3353 21.5997 52.9604V27.8622V27.7622H21.4997H19.5399H19.4399V27.8622V56.4615V56.5615L22.2585 53.6803ZM22.2585 53.6803L24.1959 53.8459L22.2585 53.6803ZM59.857 56.6601H59.757H43.2558L43.2197 56.4668C43.2604 56.4511 43.3028 56.4342 43.3458 56.4172C43.4024 56.3947 43.4599 56.3718 43.5152 56.3508C43.7321 56.2677 43.9489 56.1889 44.1702 56.1103C44.453 56.0079 44.737 55.9086 45.0223 55.8124L45.0233 55.812C45.1716 55.7638 45.3206 55.7157 45.4695 55.6675C45.5434 55.6437 45.6171 55.6198 45.6908 55.596L45.6912 55.5959C45.9765 55.5048 46.2631 55.4182 46.5491 55.3332L46.5493 55.3331C46.7741 55.2669 47 55.2012 47.2261 55.1391C47.2262 55.139 47.2263 55.139 47.2264 55.139L47.2529 55.2354C47.5409 55.1548 47.8289 55.0792 48.1241 55.005L59.857 56.6601ZM59.857 56.6601V56.5601V27.7622V27.6622H59.757H57.5972H57.4972V27.7622L57.4972 52.9604L57.4972 52.9607C57.4982 53.2842 57.2504 53.5541 56.9281 53.5806L55.0844 53.7304L55.084 53.7304C54.5496 53.7756 54.0178 53.8303 53.4887 53.8942L53.4877 53.8943C53.4012 53.9056 53.315 53.9181 53.2297 53.9305L53.2278 53.9308C53.1429 53.9431 53.0589 53.9554 52.9751 53.9663L52.9748 53.9664C52.6184 54.0139 52.2617 54.0623 51.9055 54.1186L51.9039 54.1189C51.767 54.1427 51.6308 54.1666 51.4945 54.1904C51.4251 54.2026 51.3556 54.2147 51.2862 54.2269L51.2701 54.2297C50.9582 54.2841 50.6443 54.3389 50.3316 54.4008M59.857 56.6601L51.3034 54.3254M51.3034 54.3254C51.3734 54.3131 51.4433 54.3009 51.5132 54.2887C51.649 54.2649 51.7847 54.2411 51.9211 54.2174C52.276 54.1612 52.6317 54.113 52.988 54.0655C53.0725 54.0544 53.1569 54.0422 53.2415 54.0299C53.3277 54.0173 53.4141 54.0048 53.5007 53.9935C54.0286 53.9297 54.5592 53.8751 55.0925 53.8301L51.3034 54.3254ZM51.3034 54.3254L51.2876 54.3281C50.9753 54.3827 50.6624 54.4373 50.3509 54.4989M50.3509 54.4989L50.3316 54.4008M50.3509 54.4989L50.3315 54.4008C50.3315 54.4008 50.3316 54.4008 50.3316 54.4008M50.3509 54.4989C50.1734 54.5337 49.9988 54.5718 49.8247 54.6097C49.7826 54.6189 49.7406 54.628 49.6986 54.6371L50.3316 54.4008M57.4972 26.3223V26.4223H57.5972H60.477C60.8193 26.4223 61.0969 26.6999 61.0969 27.0422V57.2801C61.0969 57.6224 60.8193 57.9 60.477 57.9H18.7199C18.3776 57.9 18.1 57.6224 18.1 57.2801V27.0422C18.1 26.6999 18.3776 26.4223 18.7199 26.4223H21.5997H21.6997V26.3223L21.6997 22.7225L21.6997 22.7221C21.6997 22.704 21.7004 22.6859 21.7019 22.6681L21.7019 22.6679C21.7307 22.3268 22.0305 22.0735 22.3717 22.1022C22.3717 22.1022 22.3717 22.1022 22.3718 22.1022L24.2507 22.2628L24.251 22.2628C28.796 22.6389 33.254 23.726 37.462 25.4844L37.4622 25.4845L39.5601 26.3549L39.5985 26.3708L39.6368 26.3549L41.7369 25.4816L41.7371 25.4815C45.9446 23.7234 50.402 22.6365 54.9466 22.2606L54.9468 22.2606L56.8249 22.1023C56.8249 22.1022 56.825 22.1022 56.8251 22.1022C56.8434 22.1007 56.8615 22.1 56.8793 22.1001L56.8794 22.1001C57.2218 22.1012 57.4984 22.3798 57.4972 22.7222V22.7225V26.3223ZM19.3399 56.5615V56.6615L35.6855 56.4564L35.7211 56.363C35.7211 56.363 35.721 56.3629 35.721 56.3629C35.5152 56.2845 35.3062 56.2057 35.0975 56.1332C34.8051 56.0273 34.5122 55.9234 34.2169 55.8245C34.0034 55.7524 33.7894 55.6822 33.5749 55.6139C33.2819 55.5201 32.9882 55.4296 32.6937 55.3425L32.6935 55.3425L32.6928 55.3423C32.4772 55.279 32.2608 55.2155 32.0444 55.1549L32.0441 55.1549C31.7473 55.0726 31.45 54.9946 31.1524 54.9182L31.1522 54.9182C30.9347 54.8627 30.7146 54.8072 30.4979 54.7551L30.4978 54.7551C30.195 54.6829 29.8911 54.6165 29.5879 54.5516C29.5573 54.545 29.5267 54.5384 29.4961 54.5317C29.3108 54.4915 29.1246 54.451 28.9383 54.4138L28.9381 54.4137C28.6232 54.3516 28.307 54.296 27.992 54.2407L27.9917 54.2406C27.9368 54.2309 27.8817 54.2209 27.8265 54.2109C27.6749 54.1836 27.5221 54.156 27.3693 54.1316L27.3693 54.1316C27.0202 54.0759 26.6699 54.029 26.321 53.9822L26.3208 53.9822L26.3204 53.9822C26.2502 53.973 26.1781 53.9627 26.1054 53.9523C26.001 53.9374 25.8952 53.9223 25.7917 53.91C25.2625 53.8451 24.7334 53.7905 24.2042 53.7462L22.267 53.5807L22.267 53.5807C21.9453 53.5532 21.6986 53.2836 21.6997 52.9607V52.9604V27.7622V27.6622H21.5997H19.4399H19.3399V27.7622V56.5615ZM38.84 56.2924L38.9785 56.3503V56.2001V27.5224V27.4557L38.9168 27.4301L36.9854 26.6281C36.9854 26.6281 36.9854 26.6281 36.9853 26.6281C32.8958 24.9194 28.5635 23.8633 24.1465 23.4983L23.048 23.4062L22.9396 23.3971V23.5058V52.2994V52.3915L23.0313 52.3991L24.3092 52.5057C28.8523 52.8856 33.3075 53.9764 37.5123 55.738L37.5124 55.738L38.84 56.2924ZM40.2184 56.2001V56.35L40.3568 56.2925L41.7657 55.7072L41.7657 55.7071C45.9775 53.9551 50.4367 52.8708 54.9827 52.4934L56.1654 52.397L56.2573 52.3895V52.2973V23.5058V23.3971L56.1489 23.4062L55.0504 23.4983C50.6341 23.8632 46.3025 24.9191 42.2138 26.6274C42.2137 26.6274 42.2137 26.6274 42.2136 26.6274L40.2801 27.4301L40.2184 27.4557V27.5224V56.2001Z" fill="white" stroke="#182D3B" stroke-width="0.2"/>
</svg>
