<svg width="80" height="80" viewBox="0 0 80 80" fill="none" xmlns="http://www.w3.org/2000/svg">
<circle cx="40" cy="40" r="40" fill="#182D3B"/>
<path d="M27.4499 56.75V56.8H27.4999H43.8051C44.1918 56.8 44.5051 57.1134 44.5051 57.5C44.5051 57.8865 44.1918 58.2 43.8051 58.2H26.75C26.3634 58.2 26.05 57.8866 26.05 57.5V23.75C26.05 23.3635 26.3634 23.05 26.75 23.05H33.5H33.55V23V21.5C33.55 21.1135 33.8633 20.8 34.2499 20.8H36.4999H36.5499V20.75C36.5499 18.71 38.21 17.05 40.25 17.05C42.29 17.05 43.95 18.71 43.9499 20.75L43.9499 20.8H43.9999H46.2499C46.6364 20.8 46.9499 21.1134 46.9499 21.5V23V23.05H46.9999H53.7499C54.1364 23.05 54.4499 23.3634 54.4499 23.75V40.9999C54.4499 41.3865 54.1364 41.6999 53.7499 41.6999C53.3634 41.6999 53.0499 41.3866 53.0499 40.9999V24.5V24.45H52.9999H46.9999H46.9499V24.5V26C46.9499 26.3865 46.6365 26.7 46.2499 26.7H34.2499C33.8634 26.7 33.55 26.3866 33.55 26V24.5V24.45H33.5H27.4999H27.4499V24.5V56.75ZM42.5 20.8H42.55V20.75C42.55 19.4817 41.5183 18.45 40.25 18.45C38.9816 18.45 37.95 19.4817 37.95 20.75V20.8H38H42.5ZM35 22.2H34.95V22.25V25.2499V25.2999H35H45.5H45.55V25.2499V22.25V22.2H45.5H35Z" fill="white" stroke="#182D3B" stroke-width="0.1"/>
<path d="M44.05 52.25C44.05 46.9012 48.4012 42.55 53.75 42.55C59.0987 42.55 63.4499 46.9013 63.4499 52.2501C63.4499 57.5988 59.0987 61.95 53.75 61.95C48.4012 61.95 44.05 57.5987 44.05 52.25ZM45.4499 52.25C45.4499 56.8267 49.1733 60.55 53.75 60.55C58.3266 60.55 62.05 56.8267 62.05 52.25C62.05 47.6732 58.3267 43.9499 53.75 43.9499C49.1732 43.9499 45.4499 47.6733 45.4499 52.25Z" fill="white" stroke="#182D3B" stroke-width="0.1"/>
<path d="M30.55 48.5C30.55 48.1134 30.8634 47.8 31.25 47.8H42.3949C42.7814 47.8 43.0948 48.1134 43.0948 48.5C43.0948 48.8865 42.7815 49.1999 42.3949 49.1999H31.25C30.8634 49.1999 30.55 48.8865 30.55 48.5Z" fill="white" stroke="#182D3B" stroke-width="0.1"/>
<path d="M45.5073 42.55C45.8939 42.55 46.2073 42.8634 46.2073 43.25C46.2073 43.6365 45.8939 43.9499 45.5073 43.9499H31.25C30.8634 43.9499 30.55 43.6365 30.55 43.25C30.55 42.8634 30.8634 42.55 31.25 42.55H45.5073Z" fill="white" stroke="#182D3B" stroke-width="0.1"/>
<path d="M49.25 37.3C49.6365 37.3 49.9499 37.6134 49.9499 38C49.9499 38.3866 49.6366 38.7 49.25 38.6999H31.25C30.8634 38.6999 30.55 38.3865 30.55 38C30.55 37.6134 30.8634 37.3 31.25 37.3H49.25Z" fill="white" stroke="#182D3B" stroke-width="0.1"/>
<path d="M31.25 32.05H49.25C49.6366 32.05 49.9499 32.3634 49.9499 32.75C49.9499 33.1365 49.6366 33.4499 49.25 33.4499H31.25C30.8634 33.4499 30.55 33.1365 30.55 32.75C30.55 32.3634 30.8634 32.05 31.25 32.05Z" fill="white" stroke="#182D3B" stroke-width="0.1"/>
<path d="M52.2146 54.9748L52.2499 55.0102L52.2853 54.9748L58.5051 48.7551C58.5051 48.7551 58.5051 48.7551 58.5051 48.7551C58.7786 48.4816 59.2215 48.4817 59.4949 48.7551C59.7683 49.0285 59.7683 49.4714 59.4948 49.7449L52.7448 56.4949L52.7448 56.4949C52.6082 56.6317 52.4291 56.7 52.2499 56.7C52.0708 56.7 51.8918 56.6317 51.7551 56.4949L48.005 52.7449C48.005 52.7449 48.005 52.7449 48.005 52.7449C47.7316 52.4714 47.7316 52.0284 48.005 51.755C48.2785 51.4816 48.7215 51.4816 48.9949 51.755L52.2146 54.9748Z" fill="white" stroke="#182D3B" stroke-width="0.1"/>
</svg>
