<svg width="80" height="80" viewBox="0 0 80 80" fill="none" xmlns="http://www.w3.org/2000/svg">
<circle cx="40" cy="40" r="40" fill="#182D3B"/>
<path d="M29.8957 23.4228L29.8227 23.3461L29.7503 23.4233C27.729 25.5793 26.3817 28.4762 26.1796 31.7099L26.1729 31.8161H26.2794H37.6464H37.8795L37.7188 31.6472L29.8957 23.4228ZM38.5825 55.8874H38.6825V55.7874V45.0891V44.9891H38.5825H26.2794H26.1794V45.0891V55.7874V55.8874H26.2794H38.5825ZM38.5825 43.8518H38.6825V43.7518V33.0534V32.9534H38.5825H26.2794H26.1794V33.0534V43.7518V43.8518H26.2794H38.5825ZM38.51 30.782L38.6825 30.9634V30.7131V19.413V19.3059L38.5757 19.3132C35.6117 19.5153 32.9171 20.6606 30.7617 22.4792L30.6806 22.5476L30.7537 22.6245L38.51 30.782ZM52.156 31.8161H52.2603L52.256 31.7119C52.1212 28.4781 50.8409 25.5796 48.7509 23.4222L48.6784 23.3473L48.6066 23.4228L40.7834 31.6472L40.6228 31.8161H40.8559H52.156ZM39.9243 19.3131L39.8198 19.3083V19.413V30.7131V30.9634L39.9923 30.782L47.7486 22.6245L47.8193 22.5502L47.7431 22.4814C45.6528 20.5934 42.8891 19.4478 39.9243 19.3131ZM52.2229 55.8874H52.3229V55.7874V45.0891V44.9891H52.2229H39.9198H39.8198V45.0891V55.7874V55.8874H39.9198H52.2229ZM52.2229 43.8518H52.3229V43.7518V33.0534V32.9534H52.2229H39.9198H39.8198V33.0534V43.7518V43.8518H39.9198H52.2229ZM25.0421 32.3847C25.0421 24.5499 31.4163 18.1757 39.2511 18.1757C47.086 18.1757 53.4602 24.5499 53.4602 32.3847V56.4561C53.4602 56.6339 53.4014 56.7744 53.3056 56.8701C53.2099 56.9659 53.0694 57.0247 52.8916 57.0247H25.6107C25.4329 57.0247 25.2924 56.9659 25.1967 56.8701C25.1009 56.7744 25.0421 56.6339 25.0421 56.4561V32.3847Z" fill="white" stroke="#182D3B" stroke-width="0.2"/>
<path d="M51.3498 19.9518L51.3506 19.9526C54.3412 22.8768 56.1354 26.864 56.3354 30.9163V59.3314C56.3354 59.5092 56.2765 59.6497 56.1808 59.7454C56.085 59.8411 55.9446 59.9 55.7667 59.9H22.6686C22.4908 59.9 22.3503 59.8411 22.2546 59.7454C22.1589 59.6497 22.1 59.5092 22.1 59.3314V30.9164C22.5664 21.8797 29.8747 15.1 39.2511 15.1C43.9068 15.1 48.2271 16.8291 51.3498 19.9518ZM55.1649 58.8296H55.2649V58.7296V30.9807H55.2651L55.2648 30.9756C54.7935 21.7511 46.7148 16.2373 39.2511 16.2373C30.5759 16.2373 23.6409 22.5611 23.3042 30.9767L23.3042 30.9767V30.9807V58.7296V58.8296H23.4042H55.1649Z" fill="white" stroke="#182D3B" stroke-width="0.2"/>
</svg>
