<svg width="80" height="80" viewBox="0 0 80 80" fill="none" xmlns="http://www.w3.org/2000/svg">
<circle cx="40" cy="40" r="40" fill="#182D3B"/>
<path d="M53.7982 56H24.8958C22.1963 56 20 53.8037 20 51.1042V30.9943C20 28.2948 22.1963 26.0986 24.8958 26.0986H33.1397L46.8793 21.0373C47.0336 20.9806 47.204 20.9889 47.3518 21.06C47.4997 21.1313 47.6125 21.2596 47.6642 21.4155L48.2488 23.1815L51.8532 22.0384C52.0118 21.9883 52.1842 22.0053 52.3296 22.0857C52.4753 22.1661 52.5813 22.3028 52.6232 22.4639L53.566 26.0984H53.7982C56.4977 26.0984 58.6939 28.2946 58.6939 30.9941V36.0299C59.8635 36.3574 60.7237 37.4328 60.7237 38.7055V43.3934C60.7237 44.666 59.8635 45.7416 58.6939 46.0691V51.1044C58.6939 53.8037 56.4977 56 53.7982 56ZM24.8958 27.3109C22.8646 27.3109 21.2122 28.9633 21.2122 30.9945V51.1044C21.2122 53.1356 22.8646 54.788 24.8958 54.788H53.7982C55.8294 54.788 57.4817 53.1356 57.4817 51.1044V46.1713H46.6639C45.2105 46.1713 44.0281 44.9888 44.0281 43.5354V38.5637C44.0281 37.1103 45.2105 35.9279 46.6639 35.9279H57.4817V30.9945C57.4817 28.9633 55.8294 27.3109 53.7982 27.3109H53.1101C53.1012 27.3111 53.0923 27.3111 53.0834 27.3109H48.7911C48.7818 27.3111 48.7725 27.3111 48.763 27.3109H33.2622C33.2527 27.3111 33.2432 27.3111 33.2339 27.3109H24.8958ZM45.2402 43.3932C45.2402 44.2565 45.9427 44.9589 46.806 44.9589H57.946C58.8093 44.9589 59.5117 44.2565 59.5117 43.3932V38.7053C59.5117 37.8421 58.8093 37.1396 57.946 37.1396H46.806C45.9427 37.1396 45.2402 37.8421 45.2402 38.7053V43.3932ZM49.2147 26.0988H52.3137L51.6102 23.3873L48.6299 24.3324L49.2147 26.0988ZM36.6465 26.0988H47.9379L47.2892 24.1393C47.2874 24.134 47.2856 24.1288 47.284 24.1235C47.284 24.1233 47.2838 24.1229 47.2838 24.1225L46.7106 22.3915L36.6465 26.0988ZM48.7769 43.3437C47.5118 43.3437 46.4827 42.3144 46.4827 41.0495C46.4827 39.7844 47.5118 38.7552 48.7769 38.7552C50.042 38.7552 51.0712 39.7844 51.0712 41.0495C51.0714 42.3144 50.042 43.3437 48.7769 43.3437ZM48.7769 39.9672C48.1802 39.9672 47.6949 40.4527 47.6949 41.0493C47.6949 41.6459 48.1804 42.1313 48.7769 42.1313C49.3735 42.1313 49.859 41.6459 49.859 41.0493C49.859 40.4527 49.3737 39.9672 48.7769 39.9672Z" fill="white"/>
</svg>
