<svg width="80" height="80" viewBox="0 0 80 80" fill="none" xmlns="http://www.w3.org/2000/svg">
<circle cx="40" cy="40" r="40" fill="#182D3B"/>
<path d="M28.0076 47.6728H22.6066C22.3087 47.6728 22.0674 47.9148 22.0674 48.2134V59.4595C22.0674 59.758 22.3087 60 22.6066 60H28.0076C28.3054 60 28.5467 59.758 28.5467 59.4595V48.2134C28.5467 47.9148 28.3054 47.6728 28.0076 47.6728ZM27.4684 58.9189H23.1458V48.7539H27.4684V58.9189ZM37.9991 37.1511H32.5981C32.3003 37.1511 32.059 37.393 32.059 37.6916V59.204C32.059 59.5026 32.3003 59.7445 32.5981 59.7445H37.9991C38.297 59.7445 38.5383 59.5026 38.5383 59.204V37.6916C38.5383 37.393 38.297 37.1511 37.9991 37.1511ZM37.46 58.6634H33.1374V38.2322H37.46V58.6634ZM47.9908 40.7298H42.5898C42.2919 40.7298 42.0506 40.9718 42.0506 41.2704V58.9484C42.0506 59.247 42.2919 59.489 42.5898 59.489H47.9908C48.2886 59.489 48.5299 59.247 48.5299 58.9484V41.2704C48.5299 40.9718 48.2886 40.7298 47.9908 40.7298ZM47.4516 58.408H43.129V41.8109H47.4516V58.408ZM57.9826 30.761H52.5814C52.2836 30.761 52.0422 31.003 52.0422 31.3016V58.6928C52.0422 58.9914 52.2836 59.2334 52.5814 59.2334H57.9826C58.2804 59.2334 58.5217 58.9914 58.5217 58.6928V31.3016C58.5217 31.003 58.2804 30.761 57.9826 30.761ZM57.4434 58.1523H53.1206V31.8421H57.4434V58.1523ZM45.2228 35.747C47.0091 35.747 48.4624 34.29 48.4624 32.4993C48.4624 31.7816 48.2262 31.1198 47.8316 30.5816L53.1929 25.7813C53.7476 26.2272 54.45 26.4955 55.2146 26.4955C57.0009 26.4955 58.4542 25.0384 58.4542 23.2476C58.4541 21.457 57.0009 20 55.2145 20C53.4282 20 51.975 21.457 51.975 23.2477C51.975 23.8825 52.1603 24.4734 52.4757 24.9743L47.0576 29.8253C46.5355 29.4641 45.9038 29.2513 45.2228 29.2513C44.0423 29.2513 43.0103 29.8897 42.4441 30.8382L38.4188 29.2715C38.451 29.0881 38.471 28.9006 38.471 28.7083C38.471 26.9174 37.0176 25.4605 35.2313 25.4605C33.4451 25.4605 31.9919 26.9174 31.9919 28.7083C31.9919 29.3963 32.2078 30.0339 32.5734 30.5598L27.0022 36.026C26.4943 35.6943 25.8896 35.4995 25.2396 35.4995C23.4532 35.4995 22 36.9565 22 38.7472C22 40.538 23.4532 41.995 25.2396 41.995C27.0259 41.995 28.4793 40.538 28.4793 38.7472C28.4793 37.9982 28.2226 37.3097 27.7961 36.7597L33.3287 31.3313C33.8637 31.7225 34.52 31.9563 35.2313 31.9563C36.4446 31.9563 37.5028 31.2832 38.0578 30.2908L42.0496 31.8445C42.0062 32.056 41.9834 32.275 41.9834 32.4993C41.9833 34.29 43.4364 35.747 45.2228 35.747ZM25.2394 40.9139C24.0477 40.9139 23.0782 39.942 23.0782 38.7472C23.0782 37.5526 24.0477 36.5806 25.2394 36.5806C26.4313 36.5806 27.4008 37.5526 27.4008 38.7472C27.4008 39.942 26.4314 40.9139 25.2394 40.9139ZM35.2312 30.8752C34.0396 30.8752 33.0701 29.9033 33.0701 28.7084C33.0701 27.5136 34.0396 26.5416 35.2312 26.5416C36.4231 26.5416 37.3926 27.5136 37.3926 28.7084C37.3926 29.9032 36.4231 30.8752 35.2312 30.8752ZM55.2145 21.0811C56.4063 21.0811 57.3758 22.053 57.3758 23.2477C57.3758 24.4426 56.4063 25.4145 55.2145 25.4145C54.0228 25.4145 53.0533 24.4426 53.0533 23.2477C53.0533 22.053 54.0229 21.0811 55.2145 21.0811ZM45.2228 30.3324C46.4146 30.3324 47.384 31.3044 47.384 32.4993C47.384 33.6939 46.4146 34.6659 45.2228 34.6659C44.0311 34.6659 43.0616 33.6939 43.0616 32.4993C43.0615 31.3044 44.0311 30.3324 45.2228 30.3324Z" fill="white"/>
</svg>
