<svg width="80" height="80" viewBox="0 0 80 80" fill="none" xmlns="http://www.w3.org/2000/svg">
<circle cx="40" cy="40" r="40" fill="#182D3B"/>
<path d="M26.5519 55.88V55.73H26.4019H15.7611C15.3781 55.73 15.0871 55.4319 15.162 55.0201L15.1644 55.0067V54.9932V52.053C15.1644 47.5886 17.9722 43.5387 22.2056 42.0201L22.5115 41.9104L22.2295 41.7488C18.1601 39.4169 17.3379 33.839 20.6288 30.4564C23.4185 27.6211 27.991 27.5304 30.8713 30.3192L31.0484 30.4908L31.1193 30.2546C31.9449 27.5027 34.1006 25.347 36.8525 24.5214L36.8529 24.5213C41.3934 23.1453 46.1637 25.7135 47.5399 30.255L47.6079 30.4794L47.7831 30.3236C48.1998 29.9531 48.6567 29.5884 49.1554 29.3164L49.1554 29.3164L49.1595 29.3141C52.5872 27.3031 57.0227 28.4909 59.0349 31.9208C61.0458 35.3486 59.8581 39.7841 56.4282 41.7962L56.1515 41.9585L56.4534 42.0668C60.6872 43.5854 63.4946 47.589 63.4946 52.0997V55.0399C63.4946 55.4238 63.1884 55.73 62.8045 55.73H52.1637H52.0137V55.88V56.1522C51.9703 56.5579 51.6931 56.85 51.3237 56.85H27.2497C26.844 56.8065 26.5519 56.5294 26.5519 56.1599V55.88ZM50.6336 55.314L50.6336 55.17H50.6334C50.6332 55.0778 50.6329 54.9476 50.6322 54.7914C50.6307 54.4644 50.6278 54.0235 50.6219 53.5795C50.6161 53.1359 50.6074 52.688 50.5942 52.3477C50.5876 52.1779 50.5798 52.0327 50.5706 51.9276C50.566 51.8756 50.5607 51.8298 50.5544 51.7945C50.5514 51.7775 50.5472 51.7578 50.5409 51.7393C50.5407 51.7388 50.5405 51.7382 50.5403 51.7376C50.5212 45.9775 45.8414 41.2622 40.0296 41.2622H38.3502C32.525 41.2152 27.8386 45.951 27.8386 51.773V55.32V55.47H27.9886H50.4836V55.3871C50.5294 55.3885 50.5815 55.3726 50.6336 55.3205V55.3204V55.3203V55.3203V55.3201V55.32V55.3195L50.6336 55.314ZM29.3615 41.7951L29.0558 41.9683L29.3923 42.0693C29.8471 42.2057 30.2572 42.3878 30.6695 42.6167L30.7583 42.666L30.8371 42.6019C32.0822 41.5873 33.4649 40.8499 34.9861 40.389L35.336 40.2829L35.0125 40.1127C34.1441 39.6557 33.3661 39.0153 32.7249 38.2366L32.5676 38.0457L32.471 38.2734C31.8301 39.784 30.7322 41.0184 29.3615 41.7951ZM43.4546 40.1157L43.1555 40.2888L43.4862 40.389C45.0075 40.85 46.3903 41.5874 47.6354 42.6021L47.7068 42.6603L47.7911 42.6228C48.2113 42.436 48.6289 42.2505 49.0926 42.065L49.3785 41.9506L49.1122 41.796C47.6925 40.9717 46.5958 39.7365 46.0023 38.2756L45.9107 38.0502L45.7504 38.2333C45.1079 38.9675 44.3273 39.6104 43.4546 40.1157ZM61.9179 54.3966H62.0679V54.2466V52.0998C62.0679 49.6324 61.0715 47.261 59.317 45.5066C56.5664 42.7559 52.4396 41.9966 48.929 43.5622L48.7351 43.6487L48.8814 43.8026C50.675 45.6881 51.9671 48.6846 51.9671 51.7731V54.2466V54.3966H52.1171H61.9179ZM47.8393 32.2274L47.812 32.2676L47.8135 32.3162C47.8595 33.8334 47.444 35.5809 46.9438 36.5357L46.9197 36.5818L46.9293 36.6329C47.216 38.1625 48.077 39.5524 49.3733 40.4167C52.0539 42.2353 55.7408 41.5662 57.5615 38.883C59.3806 36.2023 58.7117 32.515 56.0282 30.6941C53.3475 28.875 49.6602 29.5439 47.8393 32.2274ZM30.6585 32.3216L30.6619 32.2702L30.6331 32.2276C29.5319 30.5998 27.712 29.6414 25.7951 29.6414C22.5404 29.6414 19.8581 32.2738 19.8581 35.5318C19.8581 38.3575 21.8691 40.7982 24.6447 41.3725L24.6447 41.3725L24.6486 41.3732C27.8566 41.9478 30.9205 39.8409 31.5428 36.6338L31.5523 36.5849L31.5306 36.5401C30.8873 35.2074 30.567 33.6931 30.6585 32.3216ZM29.5907 43.8025L29.7379 43.6478L29.5425 43.5618C28.3572 43.0402 27.0299 42.7557 25.7485 42.7557C20.5786 42.7557 16.4045 46.9298 16.4045 52.0997V54.2465V54.3965H16.5545H26.3551H26.5051V54.2465V51.773C26.5051 48.6845 27.7971 45.688 29.5907 43.8025ZM35.8054 39.0711C40.4252 41.5475 46.1461 38.5476 46.4797 33.1609C46.718 29.3477 43.8587 25.8689 39.8557 25.5351C35.5656 25.1539 31.9923 28.5857 31.9924 32.7316C31.9924 35.3537 33.4694 37.8315 35.8054 39.0711Z" fill="white" stroke="#182D3B" stroke-width="0.3"/>
</svg>
