<svg width="101" height="100" viewBox="0 0 101 100" fill="none" xmlns="http://www.w3.org/2000/svg">
<path fill-rule="evenodd" clip-rule="evenodd" d="M48.7437 0.02302C18.3278 0.930925 -4.33875 29.3475 1.389 59.3904C6.54456 86.4312 32.827 104.273 59.9017 99.1107C92.2327 92.9466 109.906 57.4649 95.3411 27.9621C86.6013 10.2594 68.5432 -0.56796 48.7437 0.02302ZM57.729 3.69007C86.3478 8.29478 103.987 37.2182 94.9416 64.7088C89.743 80.509 76.1314 92.6121 59.9017 95.8655C33.5329 101.152 8.38934 83.6202 4.16968 57.0065C3.67305 53.8736 3.67305 46.1148 4.16968 42.9819C7.46656 22.1878 23.7325 6.28929 44.5476 3.51605C47.4175 3.13374 54.8841 3.2322 57.729 3.69007ZM42.3909 21.8135C36.4539 22.5257 32.4666 29.0478 34.4481 34.8065C35.1093 36.7288 36.7589 38.8807 38.3028 39.8348L38.9561 40.2384V44.4197V48.6012L37.6224 48.4893C35.5854 48.3186 34.0992 49.0714 32.9132 50.8751L32.3983 51.6581V59.8798C32.3983 68.8885 32.4054 68.9586 33.611 71.9063C35.7344 77.098 39.9961 80.9211 45.5553 82.6212C48.1089 83.4023 52.9021 83.4023 55.4557 82.6212C61.7944 80.6829 66.3273 76.0719 68.2543 69.6026C68.6574 68.2494 68.897 49.8474 68.5293 48.482C67.8698 46.0327 64.6442 44.4591 62.2486 45.4177L61.4554 45.735L60.7654 45.0246C59.3256 43.5422 57.1198 43.0301 55.3812 43.7747L54.6778 44.076L54.1309 43.3905C53.2478 42.2837 51.7221 41.6958 50.0882 41.8328L48.7437 41.9456V41.0986C48.7437 40.3972 48.8334 40.1928 49.2652 39.91C53.5579 37.0972 54.9591 31.01 52.3417 26.5439C50.354 23.1521 46.5012 21.3206 42.3909 21.8135ZM46.28 25.3398C50.1567 26.7902 51.749 31.7731 49.4522 35.2669L48.843 36.1936L48.7324 34.0403C48.6474 32.3879 48.5263 31.7048 48.2113 31.104C46.6047 28.0393 42.5337 27.5047 40.2388 30.0573C39.1659 31.2504 38.9586 31.9385 38.9572 34.3089C38.9559 36.3993 38.7613 36.4657 37.8581 34.6831C35.0764 29.1942 40.5 23.1771 46.28 25.3398ZM45.0393 32.0984L45.5138 32.6035L45.568 42.444L45.6221 52.2847L46.1046 52.7381C46.7245 53.3206 47.6467 53.3312 48.2164 52.7627C48.6147 52.3648 48.6529 52.0995 48.7437 49.0912L48.8416 45.8485L49.3909 45.3766C50.0927 44.7735 50.9184 44.7735 51.6201 45.3766L52.1694 45.8487L52.2293 49.8623C52.2881 53.786 52.3 53.8874 52.7585 54.382C53.3246 54.993 54.18 55.0474 54.8393 54.5144C55.2831 54.1557 55.3054 54.0122 55.3994 50.9082C55.4927 47.8225 55.5188 47.6526 55.9718 47.171C56.6381 46.4624 57.7795 46.4687 58.4429 47.1844C58.9186 47.6976 58.9229 47.7374 58.9229 51.5454C58.9229 54.752 58.9748 55.4622 59.2363 55.8357C59.6654 56.4482 60.3652 56.6872 61.0114 56.4415C61.9559 56.0823 62.0421 55.7811 62.0487 52.8129C62.0558 49.7178 62.2366 48.9383 63.0453 48.5202C63.8722 48.0925 64.3686 48.1668 65.0169 48.8152L65.5997 49.3979L65.5367 58.6518L65.4738 67.9057L64.9394 69.4717C62.6886 76.0688 57.2708 80.033 50.5055 80.033C43.7399 80.033 38.3128 76.0613 36.0738 69.4717L35.5417 67.9057L35.475 60.3621C35.4004 51.9466 35.3973 51.9668 36.7908 51.6607C38.4395 51.2987 38.9537 52.3595 38.9623 56.1407C38.969 59.1089 39.0551 59.4101 39.9996 59.7694C40.6458 60.015 41.3456 59.776 41.7747 59.1635C42.0545 58.7642 42.0881 57.3281 42.0881 45.827C42.0881 32.5809 42.0965 32.4259 42.8541 31.8443C43.4145 31.4141 44.5166 31.5421 45.0393 32.0984ZM29.8535 36.8703C29.6382 36.9645 28.2299 38.2821 26.724 39.7986C25.2183 41.3149 23.9189 42.5556 23.8366 42.5556C23.7546 42.5556 23.6873 41.8469 23.6873 40.9807C23.6873 39.152 23.2506 38.4447 22.1213 38.4447C21.7399 38.4447 21.3386 38.6223 21.0358 38.9253C20.5574 39.4035 20.5552 39.4239 20.5552 43.339V47.2723L21.0732 47.7524C21.5867 48.2281 21.6254 48.2324 25.4491 48.2324C29.2727 48.2324 29.3115 48.2281 29.8249 47.7524C30.5013 47.1256 30.5167 46.2351 29.8623 45.5809C29.4252 45.1436 29.2271 45.1004 27.6627 45.1004H25.9433L28.8186 42.213C30.4001 40.6249 31.7842 39.0833 31.8944 38.7873C32.3484 37.5687 31.049 36.3482 29.8535 36.8703Z" fill="white"/>
</svg>
