<svg width="101" height="100" viewBox="0 0 101 100" fill="none" xmlns="http://www.w3.org/2000/svg">
<path fill-rule="evenodd" clip-rule="evenodd" d="M49.9579 0.0745754C49.3698 0.246584 48.9909 0.52791 48.6238 1.06549C48.1605 1.74333 48.1334 7.83514 48.5899 8.71772C49.103 9.71 50.3004 10.124 51.3173 9.66063C52.2324 9.24374 52.4842 8.58959 52.569 6.40931L52.6472 4.40124L53.6534 4.40477C55.815 4.4126 60.2389 5.20643 63.3777 6.14973C78.2467 10.6186 89.8773 22.2492 94.3462 37.1182C95.2895 40.257 96.0833 44.6809 96.0911 46.8425L96.0947 47.8487L94.0866 47.9269C91.5352 48.0262 90.6092 48.5961 90.6092 50.0672C90.6092 51.5573 91.711 52.2032 94.2533 52.2032H96.1536L96.0267 54.1133C94.5971 75.6303 76.2014 93.921 54.121 95.7796L52.6027 95.9073V94.1298C52.6027 91.5133 51.9305 90.3403 50.4314 90.3403C48.833 90.3403 48.2927 91.2454 48.2927 93.9222C48.2927 95.6693 48.2539 95.891 47.9487 95.891C47.7594 95.891 46.5033 95.7592 45.157 95.598C23.9778 93.0615 7.43437 76.5181 4.89793 55.3389C4.73669 53.9926 4.60485 52.7365 4.60485 52.5472C4.60485 52.242 4.82662 52.2032 6.57374 52.2032C9.25045 52.2032 10.1556 51.6629 10.1556 50.0645C10.1556 48.5638 8.98304 47.8932 6.35883 47.8932H4.5737L4.6983 46.5708C5.69273 36.0244 9.84132 26.4044 16.4462 19.3284C18.6886 16.9263 18.9758 16.1787 18.1193 14.9757C17.2784 13.7949 15.9088 13.8206 14.6248 15.0413C9.32901 20.0764 4.2095 29.1721 2.14363 37.2161C-7.36621 74.2495 25.9529 107.743 63.0324 98.4236C88.9516 91.909 105.156 65.4919 99.3036 39.2933C94.9358 19.7414 79.5569 4.73899 59.9493 0.902686C56.8933 0.304769 50.8756 -0.194017 49.9579 0.0745754ZM49.0305 14.7684L48.3907 15.3399L48.338 30.0493C48.3092 38.1394 48.2214 44.7586 48.1432 44.7586C48.0651 44.7586 45.157 41.9156 41.6807 38.4405L35.3603 32.1225H34.4638C33.2553 32.1225 32.424 32.9809 32.424 34.2291V35.056L40.8971 43.5203C46.5538 49.1711 49.5493 52.028 49.909 52.1152C51.0662 52.3956 52.2397 51.6188 52.4809 50.4128C52.6965 49.3345 52.619 16.5159 52.3988 15.7234C51.9787 14.211 50.2144 13.7107 49.0305 14.7684Z" fill="white"/>
</svg>
