<svg width="107" height="100" viewBox="0 0 107 100" fill="none" xmlns="http://www.w3.org/2000/svg">
<path fill-rule="evenodd" clip-rule="evenodd" d="M73.105 0.245444C64.3978 1.57332 58.2147 5.51068 55.1784 11.6612C52.8866 16.3038 52.7235 21.8857 54.7527 26.2382L55.3579 27.5364L54.6543 27.8304C52.2704 28.8265 51.1755 30.8934 51.0612 34.6133C50.9309 38.8613 51.5926 40.6907 53.7962 42.1748C54.378 42.5665 54.7842 42.887 54.6988 42.887C53.7618 42.887 30.8868 49.2974 29.4756 49.9555C20.2659 54.2497 16.0899 65.3584 20.302 74.3596L20.9029 75.6437L15.5771 75.7082C8.18349 75.7978 8.12249 75.8318 4.70611 81.8096C1.9404 86.6486 1.60428 87.8234 2.36698 89.9851C2.53815 90.4702 2.6782 90.9022 2.6782 90.9449C2.6782 90.9877 2.3676 91.0225 1.98812 91.0225C0.762737 91.0225 3.8445e-05 92.3851 0.599035 93.5042C0.998435 94.2505 1.90969 94.3422 8.93353 94.3422H15.7495V94.924C15.7495 96.5284 17.7851 98.9867 19.6364 99.6174C22.8019 100.696 25.5347 99.4813 27.4779 96.1319L28.5095 94.3538L64.7501 94.2962L100.991 94.2385L101.526 93.7355C102.617 92.711 101.849 91.0225 100.293 91.0225C99.6428 91.0225 99.5592 90.9678 99.6614 90.6076C99.7262 90.3793 99.8322 90.0053 99.8973 89.7762C100.286 88.4079 99.2286 86.1957 97.5974 84.9629C96.8306 84.3832 96.2668 83.6651 95.3948 82.1575C93.7466 79.308 92.8648 78.81 91.6932 80.0678C91.0323 80.7769 91.1715 81.3035 92.7546 84.0815C94.1593 86.5461 94.9334 87.4954 95.5386 87.4954C95.9668 87.4954 96.6669 88.5353 96.6669 89.1716C96.6669 90.5719 95.9687 90.9111 92.9308 90.9875C90.6412 91.0451 88.9901 90.8524 88.9901 90.5277C88.9901 89.9571 87.4261 87.0642 84.3257 81.9C81.0836 76.4995 80.4828 75.3762 80.7189 75.1559C81.0619 74.8353 85.648 72.1406 85.8432 72.1447C85.9194 72.1464 86.4835 73.0236 87.097 74.0944C88.1577 75.9455 88.7185 76.4989 89.5345 76.4989C89.9818 76.4989 91.0649 75.364 91.0649 74.8953C91.0649 74.6803 88.9544 70.7807 86.375 66.2294C83.7954 61.6781 81.6424 57.8433 81.5905 57.7078C81.52 57.5242 82.6501 57.4325 86.021 57.348C93.5173 57.1605 96.8345 56.0125 100.511 52.3341C104.669 48.1728 105.833 42.6206 103.926 36.0402C103.588 34.8758 103.526 33.8222 103.472 28.3296L103.41 21.9676L104.157 21.8483C107.871 21.2553 107.281 15.5878 102.962 10.3809C98.8286 5.39615 92.9436 1.98828 85.9698 0.540273C83.2682 -0.0205465 75.9499 -0.188398 73.105 0.245444ZM84.4255 3.59771C92.5015 4.92703 99.939 9.9601 102.659 15.9368C103.55 17.8937 103.641 18.6118 102.998 18.6118C102.162 18.6118 100.408 17.857 98.4305 16.6457C96.3745 15.3865 95.9473 15.2936 95.1388 15.9297C94.2896 16.5976 94.3779 17.6336 95.3608 18.5338C96.0772 19.1899 96.1061 19.2614 95.7851 19.5824C95.0626 20.3049 91.3224 18.8087 87.2265 16.1586C85.3936 14.9728 84.9492 14.8801 84.1423 15.5148C83.2589 16.2096 83.3724 17.3059 84.4255 18.2514C85.3986 19.1249 85.4521 19.4644 84.7087 20.049C84.0409 20.5746 83.0277 20.6018 81.2019 20.143C79.9593 19.831 79.8263 19.8318 79.3344 20.154C77.7044 21.2219 78.3248 22.81 80.5871 23.3613C83.6184 24.0999 85.4874 23.7619 87.1049 22.1824C87.655 21.645 88.1423 21.0842 88.1878 20.936C88.2469 20.7437 88.8349 20.9344 90.2478 21.6037C94.5809 23.6561 97.1727 23.5503 98.6307 21.2614C98.9195 20.8078 99.0668 20.735 99.3681 20.8962C100.052 21.262 100.231 22.8438 100.334 29.4008C100.419 34.8638 100.487 35.9093 100.832 37.0475C101.368 38.8154 101.368 38.8148 100.282 38.126C95.8328 35.3047 90.8443 40.8504 94.0501 45.0536C95.4801 46.9284 98.4535 47.3462 100.453 45.9534C101.173 45.4521 101.168 45.5341 100.369 47.2145C99.4511 49.1453 97.2794 51.2852 95.2145 52.2938C92.1038 53.8132 91.2512 53.9356 82.8265 54.0725L75.3142 54.1947L74.2625 55.3751C69.6303 60.5746 61.8066 56.1845 63.7557 49.4795C64.2229 47.8722 64.2163 47.8379 63.0687 45.9339C62.5056 44.9998 61.7915 43.4887 61.4815 42.5758C60.6731 40.1946 60.5599 40.1083 58.0682 39.9769C56.0092 39.8686 55.9924 39.8634 55.2208 39.0924L54.4446 38.3167L54.3846 35.5704C54.2948 31.4489 54.7958 30.7816 58.2182 30.4658C63.4308 29.9849 69.5728 25.1149 71.1366 20.2231L71.3841 19.4486L72.1908 19.86C73.5988 20.5783 74.7183 20.2412 74.987 19.0181C75.1976 18.0593 74.7094 17.5279 72.435 16.2401C69.4261 14.5365 68.6338 14.7788 68.3842 17.479C68.0752 20.8202 65.5189 23.9488 61.3699 26.0637L59.2278 27.1555L58.7508 26.5664C55.8621 22.9992 55.9333 16.2287 58.9071 11.6818C63.2328 5.0675 73.5324 1.80466 84.4255 3.59771ZM73.5328 27.9866C72.4157 28.6408 72.134 31.8592 73.1085 32.8336C74.1023 33.8276 75.5514 33.2658 75.8304 31.7781C76.3174 29.1827 75.053 27.0963 73.5328 27.9866ZM94.0335 27.9524C93.1503 28.3045 92.8812 29.0386 92.9644 30.8708C93.0503 32.7593 93.4422 33.3429 94.6244 33.3429C96.7424 33.3429 96.9943 28.4078 94.9033 27.8767C94.6751 27.8186 94.2838 27.8526 94.0335 27.9524ZM84.3427 29.8488C83.9529 30.1843 83.7408 30.6086 83.6591 31.2167C83.5834 31.7821 83.4358 32.0981 83.2477 32.0981C82.7124 32.0981 81.9358 33.0807 81.9358 33.7579C81.9358 35.7561 85.3349 36.0362 86.4949 34.1334C87.0582 33.2097 87.0933 30.6986 86.5522 30.0469C85.9781 29.3554 85.0166 29.2693 84.3427 29.8488ZM68.4161 37.6015C67.7331 37.8189 67.1754 38.2136 66.5177 38.9451C62.4249 43.4972 68.895 49.7001 73.2322 45.3818C76.7303 41.899 73.1394 36.0983 68.4161 37.6015ZM78.0368 38.2625C76.5788 38.5418 75.7242 40.4162 76.1354 42.4337C77.1971 47.6433 82.7634 50.4719 87.4456 48.1813C91.7647 46.0681 93.4482 39.8321 90.086 38.3994C89.4432 38.1256 79.351 38.0108 78.0368 38.2625ZM70.9393 41.0197C71.1698 41.2502 71.3542 41.7113 71.3542 42.0571C71.3542 43.3543 69.7517 43.9989 68.8726 43.0553C67.63 41.7216 69.6508 39.7313 70.9393 41.0197ZM98.7417 41.0197C99.323 41.6011 99.2983 42.7642 98.6954 43.1864C98.0416 43.6446 97.1713 43.5881 96.675 43.0553C95.4324 41.7216 97.4532 39.7313 98.7417 41.0197ZM88.5751 41.8579C88.5751 42.0907 88.3959 42.6325 88.1768 43.062C86.313 46.7153 81.3602 46.6134 79.6709 42.887C78.974 41.35 78.7269 41.4347 83.9068 41.4347C88.4672 41.4347 88.5751 41.4444 88.5751 41.8579ZM59.1135 45.4287C59.1137 45.5714 59.4478 46.2416 59.8557 46.918L60.5972 48.1479L60.3455 49.8399C58.9735 59.062 69.9529 64.7493 76.217 58.0613C77.3531 56.8484 77.366 56.8625 80.9639 63.2548C82.9142 66.7195 84.1697 69.1609 84.0585 69.2721C83.9556 69.3751 82.7024 70.1415 81.2737 70.9753L78.676 72.4912L77.7021 70.866C76.1798 68.3258 75.5929 68.2148 73.7513 70.1189C73.0614 70.8322 72.1232 71.7316 71.6663 72.1177L70.8355 72.8196L70.7318 69.3898C70.6125 65.4483 70.472 65.0875 69.0549 65.0875C67.5354 65.0875 67.4121 65.4943 67.4121 70.51V74.8391H64.1962H60.9802V70.51C60.9802 65.4819 60.8595 65.0875 59.3204 65.0875C57.7236 65.0875 57.6605 65.3389 57.6605 71.7109V77.2406L56.4366 77.5687C55.2353 77.8905 55.2087 77.8884 55.0089 77.457C54.2927 75.9107 52.1023 74.2274 47.9577 72.0381L45.6007 70.7932L43.5319 66.4361C42.3941 64.0397 41.2692 61.9157 41.0322 61.7159C40.0919 60.9237 38.5723 61.651 38.5723 62.8932C38.5723 63.4984 42.5663 72.3453 43.1973 73.1373C43.3151 73.2854 44.699 74.0598 46.2723 74.8581C49.7132 76.6041 51.4318 77.8272 52.1386 79.0331C54.0786 82.3434 52.7061 87.165 49.1476 89.5413C47.1797 90.8555 46.0472 91.0225 39.102 91.0225H33.1778V87.8066V84.5906H35.6446C38.4047 84.5906 38.8823 84.4022 39.1095 83.224C39.2054 82.7268 39.1168 82.4482 38.7136 81.9791L38.1941 81.3747L34.908 81.2709C31.6414 81.1678 31.6134 81.1628 30.236 80.441C19.238 74.678 19.2692 58.545 30.2887 53.1959C33.2486 51.7591 32.8809 51.6228 34.3453 54.6981C35.6954 57.5333 36.2707 58.1871 37.2077 57.952C38.7522 57.5642 38.8352 56.6378 37.5677 53.9379C36.9911 52.7098 36.4911 51.5796 36.4566 51.4265C36.4108 51.2234 39.3709 50.3429 47.3903 48.1739C58.8977 45.0616 59.1125 45.0112 59.1135 45.4287ZM80.4016 81.7378C83.1522 86.3308 85.4542 90.2988 85.5171 90.5557L85.6316 91.0225H79.8612H74.0909L74.2034 89.7826C74.4102 87.4999 73.1921 85.1894 71.4495 84.5593L70.7318 84.2997L70.736 80.4512L70.7401 76.6026L71.7889 75.9802C72.3659 75.6378 73.3678 74.9195 74.0154 74.3838C74.6629 73.8481 75.2395 73.4047 75.2968 73.3983C75.3541 73.3919 77.6513 77.1448 80.4016 81.7378ZM67.4121 82.0778C67.4121 86.8725 67.4515 86.9891 69.1821 87.3055C70.4266 87.5331 70.9393 88.073 70.9393 89.1552C70.9393 90.8128 70.686 90.9101 66.1826 90.9833L62.2185 91.0478L61.5993 90.4287L60.9802 89.8096V83.8804V77.9513H64.1962H67.4121V82.0778ZM16.9944 81.9971V85.2131H15.3208C13.1485 85.2131 13.0742 85.2641 11.6926 87.7043C9.96948 90.7476 8.90987 91.4373 7.08135 90.7055C5.98896 90.2685 5.37544 89.328 5.37544 88.0904C5.37544 87.3132 5.68459 86.6414 7.46374 83.5503C10.2027 78.7922 10.1255 78.8438 14.5565 78.8034L16.9944 78.7812V81.9971ZM24.2825 80.1107L25.6577 81.4266L24.6705 81.5436C23.3669 81.6979 21.9849 82.3664 21.0624 83.2891L20.314 84.0373V81.4093V78.7812L21.6108 78.788L22.9075 78.7951L24.2825 80.1107ZM57.6605 85.3033C57.6605 87.8634 57.7516 90.1976 57.8628 90.4903L58.0651 91.0225H55.3814H52.6976L53.7277 89.6615C55.5011 87.3188 56.2082 85.3326 56.2082 82.6947C56.2082 81.1832 56.2459 81.0348 56.675 80.8624C57.6811 80.458 57.6605 80.3655 57.6605 85.3033ZM29.8581 87.8066V91.0225H28.4419C26.742 91.0225 26.6428 91.1053 25.0936 93.8235C23.5059 96.6085 22.4351 97.2391 20.6404 96.445C18.2785 95.4002 18.3411 94.0802 20.972 89.4614C23.7126 84.65 23.7234 84.6421 27.6277 84.6093L29.8581 84.5906V87.8066ZM17.6168 88.6396C17.6168 88.6983 17.3278 89.2585 16.9746 89.8845L16.3323 91.0225H15.0036C13.4527 91.0225 13.5006 91.1171 14.3168 89.6708L14.9592 88.5328H16.2879C17.0188 88.5328 17.6168 88.5809 17.6168 88.6396Z" fill="white"/>
</svg>
