<svg width="101" height="100" viewBox="0 0 101 100" fill="none" xmlns="http://www.w3.org/2000/svg">
<path fill-rule="evenodd" clip-rule="evenodd" d="M0.755798 0.255798C0.414734 0.596862 0.414734 99.4031 0.755798 99.7442C1.09686 100.085 99.9031 100.085 100.244 99.7442C100.585 99.4031 100.585 0.596862 100.244 0.255798C99.9031 -0.085266 1.09686 -0.085266 0.755798 0.255798ZM98.1357 50V97.6357H50.5H2.86427V50V2.36427H50.5H98.1357V50ZM6.68508 4.62325C6.40805 4.90048 6.37838 9.25895 6.37838 49.6837C6.37838 88.027 6.41801 94.4918 6.65541 94.8165C6.92677 95.1876 7.37033 95.1954 27.9511 95.1954C48.5319 95.1954 48.9755 95.1876 49.2468 94.8165C49.4842 94.4918 49.5239 88.0293 49.5239 49.7001C49.5239 6.60716 49.5108 4.95085 49.1668 4.63965C48.8394 4.3433 47.0829 4.31655 27.9009 4.31655C9.15316 4.31655 6.96016 4.34818 6.68508 4.62325ZM51.9753 4.75054C51.7024 5.14002 51.6714 9.73141 51.6714 49.7595V94.3346L52.1507 94.8137L52.6298 95.293H73.3329C93.7757 95.293 94.0408 95.2881 94.4264 94.9025C94.8145 94.5144 94.8169 94.2519 94.8169 49.7919C94.8169 19.3386 94.7524 4.95124 94.6148 4.69412C94.4168 4.32436 93.9743 4.31655 73.346 4.31655H52.2791L51.9753 4.75054ZM47.1811 9.09965V11.54H27.9511H8.72112V9.09965V6.65929H27.9511H47.1811V9.09965ZM92.4741 49.7072V92.755H73.3417H54.2093V73.525V54.295H60.1593H66.1093L66.4209 53.8195C66.6794 53.4249 66.7217 52.8404 66.6694 50.3868C66.6126 47.7264 66.5683 47.4019 66.2274 47.153C65.9205 46.9289 64.7425 46.8764 60.0289 46.8764H54.2093V26.7678V6.65929H73.3417H92.4741V49.7072ZM47.1811 16.9088V19.9348H27.9511H8.72112V16.9088V13.8827H27.9511H47.1811V16.9088ZM47.1811 25.206V28.1344H27.9511H8.72112V25.206V22.2776H27.9511H47.1811V25.206ZM47.1811 33.0151V35.5531H27.9511H8.72112V33.0151V30.4772H27.9511H47.1811V33.0151ZM13.7971 52.1545V66.4133L12.284 69.3239C10.8071 72.1651 10.7782 72.2475 11.0711 72.7822L11.3713 73.3298L14.9087 73.3829C19.8538 73.4573 19.8954 73.3927 17.604 69.2107L16.1398 66.5386V52.2172V37.8958H31.6605H47.1811V65.3254V92.755H27.9511H8.72112V65.3254V37.8958H11.2591H13.7971V52.1545ZM64.166 50.5857V51.9523H59.1877H54.2093V50.5857V49.2191H59.1877H64.166V50.5857ZM15.4143 70.285C15.8716 71.0589 15.8571 71.0847 14.9684 71.0847C14.5389 71.0847 14.1875 71.0324 14.1875 70.9683C14.1875 70.7766 14.8486 69.7181 14.9684 69.7181C15.0295 69.7181 15.2302 69.9732 15.4143 70.285Z" fill="white"/>
</svg>
