<svg width="95" height="100" viewBox="0 0 95 100" fill="none" xmlns="http://www.w3.org/2000/svg">
<path fill-rule="evenodd" clip-rule="evenodd" d="M22.1966 0.195863C20.1284 1.22755 21.3121 3.41353 23.9428 3.42056C31.2271 3.44034 38.0029 10.0934 38.6788 17.8896C38.8808 20.2202 39.2628 20.8566 40.4591 20.8566C41.7174 20.8566 42.115 20.1727 42.0415 18.1357C41.7229 9.32192 34.096 1.04406 25.5437 0.229704C24.8524 0.163781 23.9404 0.0675346 23.5168 0.0156757C23.0933 -0.0361832 22.4992 0.0449012 22.1966 0.195863ZM22.2822 7.17088C21.6294 7.41194 21.2433 7.98832 21.2433 8.72159C21.2433 9.7814 21.9166 10.256 23.6972 10.4512C27.9814 10.921 31.1919 14.1272 31.6623 18.4058C31.8592 20.1987 32.3307 20.8566 33.4181 20.8566C36.3835 20.8566 35.1181 14.3507 31.4379 10.6753C28.9612 8.20191 24.3103 6.42156 22.2822 7.17088ZM1.72338 11.6099C1.31874 11.8823 0.784294 12.4508 0.535661 12.8734C-0.178554 14.0877 -0.178554 92.9619 0.535661 94.1762C1.43338 95.7023 3.48317 96.4134 4.88388 95.6847C5.14813 95.5472 9.38985 92.5312 14.3099 88.9826L23.2556 82.5306L47.5343 82.5383L71.8132 82.546L79.8443 88.3845C90.2981 95.9845 90.2215 95.9348 91.5074 95.9348C92.7441 95.9348 93.7988 95.3077 94.4643 94.1762C95.1786 92.9619 95.1786 14.0877 94.4643 12.8734C93.5657 11.346 91.5107 10.6342 90.1161 11.3675C89.8519 11.5066 85.613 14.5225 80.6964 18.0696L71.7573 24.519H47.5059H23.2548L14.6395 18.2858C9.9012 14.8576 5.67796 11.8421 5.25441 11.5846C4.20465 10.9465 2.69305 10.9572 1.72338 11.6099ZM22.299 14.1927C20.5959 14.8359 21.0063 17.1073 22.8798 17.4066C23.8865 17.5673 24.5151 18.2093 24.7041 19.27C25.1301 21.6593 28.0743 21.3101 27.9687 18.8829C27.8441 16.0269 24.5837 13.3298 22.299 14.1927ZM12.5968 20.8816L21.0965 27.0229V53.5248V80.0266L12.5968 86.168C7.92182 89.5456 3.96129 92.3882 3.79561 92.4849C3.54082 92.6332 3.49417 86.596 3.49417 53.5248C3.49417 20.4536 3.54082 14.4164 3.79561 14.5647C3.96129 14.6614 7.92182 17.504 12.5968 20.8816ZM91.4519 73.0831L91.3958 92.6411L82.6497 86.3288L73.9035 80.0163V53.5239V27.0315L82.6497 20.7126L91.3958 14.3935L91.4519 33.9593C91.4829 44.7202 91.4829 62.3261 91.4519 73.0831ZM70.383 53.5248V79.0147H47.5H24.617V53.5248V28.0348H47.5H70.383V53.5248ZM29.242 30.0705C28.1403 30.6361 28.133 30.717 28.1922 41.488L28.2474 51.5353L28.7487 52.0356L29.2499 52.536H36.9386H44.6273L45.1285 52.0354L45.6297 51.5348V41.2193V30.9038L45.1287 30.4032C44.6297 29.9044 44.6009 29.9024 37.2077 29.8464C31.5329 29.8035 29.6594 29.8561 29.242 30.0705ZM50.3648 30.0705C49.2631 30.6361 49.2558 30.717 49.315 41.488L49.3702 51.5353L49.8715 52.0356L50.3727 52.536H58.0614H65.7501L66.2513 52.0354L66.7525 51.5348V41.2193V30.9038L66.2515 30.4032C65.7525 29.9044 65.7237 29.9024 58.3305 29.8464C52.6557 29.8035 50.7822 29.8561 50.3648 30.0705ZM42.2193 41.2193V49.13H36.9386H31.6579V41.2193V33.3086H36.9386H42.2193V41.2193ZM63.3421 41.2193V49.13H58.0614H52.7807V41.2193V33.3086H58.0614H63.3421V41.2193ZM38.1488 35.2832C37.9067 35.3847 36.7762 36.4096 35.6367 37.5604C33.3638 39.856 33.0828 40.5425 34.0294 41.4878C34.9938 42.4512 35.6604 42.1633 38.0924 39.7347C39.9609 37.8687 40.3123 37.4086 40.3123 36.8293C40.3123 35.7234 39.1239 34.8741 38.1488 35.2832ZM59.2716 37.0411C58.2304 37.478 54.6877 41.3852 54.6877 42.0965C54.6877 42.9911 55.4085 43.7096 56.306 43.7096C57.3278 43.7096 61.4351 39.6077 61.4351 38.5872C61.4351 37.4813 60.2467 36.632 59.2716 37.0411ZM38.1488 42.3145C37.9067 42.4158 36.9742 43.2433 36.0767 44.1535C34.2696 45.9857 34.0149 46.7471 34.9095 47.6406C35.8275 48.5575 36.567 48.2892 38.5321 46.3265C40.001 44.8595 40.3123 44.4284 40.3123 43.8606C40.3123 42.7553 39.1241 41.906 38.1488 42.3145ZM29.242 54.6815C28.1403 55.2471 28.133 55.328 28.1922 66.099L28.2474 76.1462L28.7487 76.6466L29.2499 77.1469H36.9386H44.6273L45.1285 76.6464L45.6297 76.1458V65.8303V55.5148L45.1287 55.0142C44.6297 54.5154 44.6009 54.5134 37.2077 54.4574C31.5329 54.4145 29.6594 54.467 29.242 54.6815ZM50.3648 54.6815C49.2631 55.2471 49.2558 55.328 49.315 66.099L49.3702 76.1462L49.8715 76.6466L50.3727 77.1469H58.0614H65.7501L66.2513 76.6464L66.7525 76.1458V65.8303V55.5148L66.2515 55.0142C65.7525 54.5154 65.7237 54.5134 58.3305 54.4574C52.6557 54.4145 50.7822 54.467 50.3648 54.6815ZM42.2193 65.8303V73.741H36.9386H31.6579V65.8303V57.9196H36.9386H42.2193V65.8303ZM63.3421 65.8303V73.741H58.0614H52.7807V65.8303V57.9196H58.0614H63.3421V65.8303ZM57.5113 59.8929C56.5595 60.2897 54.6877 62.4786 54.6877 63.1947C54.6877 64.0855 55.41 64.8048 56.3051 64.8048C57.3025 64.8048 59.6749 62.4355 59.6749 61.4394C59.6749 60.3348 58.4874 59.4859 57.5113 59.8929ZM37.2686 62.5307C36.2627 62.9519 33.5649 65.9951 33.5649 66.7086C33.5649 67.6018 34.2864 68.3206 35.1828 68.3206C36.1953 68.3206 39.4322 65.088 39.4322 64.0768C39.4322 62.9715 38.244 62.1222 37.2686 62.5307ZM59.2716 65.1675C59.0295 65.2688 58.0973 66.0964 57.1995 67.0066C55.3924 68.8388 55.1377 69.6002 56.0323 70.4936C56.9503 71.4106 57.6898 71.1423 59.6548 69.1796C61.1238 67.7126 61.4351 67.2814 61.4351 66.7136C61.4351 65.6083 60.2469 64.759 59.2716 65.1675ZM27.5797 84.4997C25.9037 85.1706 26.3429 87.6578 28.1374 87.6578C29.029 87.6578 29.7509 86.9368 29.7509 86.0464C29.7509 84.9453 28.5694 84.1035 27.5797 84.4997ZM53.4232 86.26C46.621 87.4666 45.5618 96.465 51.8742 99.421L53.1107 100H61.5819H70.053L71.4308 99.3645C76.869 96.8564 76.8512 89.2938 71.4009 86.7784L70.053 86.1563L62.2419 86.1187C57.9459 86.0983 53.9774 86.1618 53.4232 86.26ZM70.2992 89.9189C72.7134 91.0631 72.7134 95.0932 70.2992 96.2374C69.1689 96.7729 53.9948 96.7729 52.8645 96.2374C50.4695 95.1022 50.4466 91.1003 52.8287 89.9277C53.9163 89.3924 69.1718 89.3848 70.2992 89.9189ZM27.5797 91.5314C25.9037 92.2023 26.3429 94.6895 28.1374 94.6895C29.029 94.6895 29.7509 93.9686 29.7509 93.0782C29.7509 91.977 28.5694 91.1352 27.5797 91.5314ZM34.6206 91.5314C32.9446 92.2023 33.3838 94.6895 35.1784 94.6895C36.0699 94.6895 36.7918 93.9686 36.7918 93.0782C36.7918 91.977 35.6103 91.1352 34.6206 91.5314ZM41.6615 91.5314C39.9856 92.2023 40.4247 94.6895 42.2193 94.6895C43.1109 94.6895 43.8328 93.9686 43.8328 93.0782C43.8328 91.977 42.6512 91.1352 41.6615 91.5314ZM68.065 91.5314C66.3891 92.2023 66.8282 94.6895 68.6228 94.6895C69.5144 94.6895 70.2363 93.9686 70.2363 93.0782C70.2363 91.977 69.0547 91.1352 68.065 91.5314Z" fill="white"/>
</svg>
