<svg width="101" height="100" viewBox="0 0 101 100" fill="none" xmlns="http://www.w3.org/2000/svg">
<path fill-rule="evenodd" clip-rule="evenodd" d="M1.31842 0.213951C0.625779 0.59301 0.293997 1.68107 0.635551 2.45326C1.04456 3.37813 1.51339 3.56097 3.47453 3.56097H5.15703L5.21829 49.1213L5.27955 94.6818L5.84229 95.1084C6.39192 95.5252 7.454 95.5352 51.4265 95.5352H96.4481V97.2196C96.4481 99.1678 97.0098 100 98.3246 100C100.341 100 100.5 99.5352 100.5 93.6317V88.8037L99.8033 88.1512C98.1134 86.5684 96.4481 87.733 96.4481 90.4976V91.9634H70.3488H44.2496V91.172C44.2496 88.693 40.4911 88.6682 40.3917 91.1464L40.3588 91.9634H24.7856H9.21231V77.5645V63.1656H9.94571C10.8524 63.1656 12.0725 62.1041 12.0725 61.3154C12.0725 60.4466 11.2109 59.6128 10.1485 59.4536L9.21231 59.3134V31.4372V3.56097H10.8965C12.8593 3.56097 13.3281 3.37813 13.7371 2.45326C14.0882 1.65942 13.7347 0.567784 13.009 0.203905C12.4543 -0.0740265 1.82801 -0.0650974 1.31842 0.213951ZM88.3251 39.5073C81.8845 40.5132 80.6517 48.8518 86.5566 51.4709C89.0395 52.5721 92.384 52.0363 94.3144 50.2285C97.9716 46.8029 96.0267 40.327 91.1262 39.6144C90.5792 39.5347 89.9709 39.4399 89.7743 39.4032C89.5777 39.3666 88.9255 39.4135 88.3251 39.5073ZM91.34 43.7584C93.7209 45.8533 91.1817 49.3963 88.2377 48.0877C86.7782 47.4392 86.2577 45.8182 87.0488 44.3857C87.7784 43.0641 90.1561 42.7166 91.34 43.7584ZM49.3937 45.624C44.0873 47.7162 42.8038 54.3926 47.0097 58.0238C49.5083 60.181 52.946 60.8033 55.8093 59.6168L56.8821 59.1724V62.5305C56.8821 66.2816 56.6738 67.0225 55.3541 67.9653C52.6564 69.8923 48.917 68.4254 48.4536 65.2583C48.1612 63.2603 46.3948 62.4756 45.0419 63.7427C44.2265 64.5064 44.3388 66.4827 45.2984 68.2564C48.4093 74.0061 57.1167 73.9019 60.1701 68.0785L60.8149 66.8491V58.9241C60.8149 49.8441 60.7586 49.5139 58.88 47.5568C56.6295 45.2124 52.5473 44.3808 49.3937 45.624ZM69.8381 45.5354C68.0597 46.1944 66.5712 47.5238 65.6503 49.2753L64.8668 50.765L64.7901 58.0689C64.7252 64.2216 64.7736 65.5947 65.0971 66.7808C66.6954 72.6408 74.1829 74.5385 78.6911 70.2262C81.0059 68.0119 81.0419 67.8568 81.1413 59.7148C81.2502 50.7712 81.0231 49.5155 78.8977 47.3124C76.9511 45.2941 72.7249 44.4652 69.8381 45.5354ZM55.1212 49.3668C58.3861 51.4356 56.6874 56.4835 52.7332 56.4636C48.3862 56.4417 46.8622 50.9907 50.686 49.1416C52.0339 48.4897 53.8856 48.5837 55.1212 49.3668ZM74.6391 49.0771C77.051 50.1196 77.1427 50.4757 77.1365 58.7712C77.1318 65.1272 77.092 65.8141 76.6787 66.6669C75.2719 69.5686 70.8375 69.6034 69.2696 66.7252C68.6609 65.6077 68.5407 52.3328 69.1278 51.0478C70.0376 49.0561 72.5295 48.1651 74.6391 49.0771ZM14.119 60.7821C13.1117 61.7255 13.6432 63.8307 14.8905 63.8376C15.1103 63.8389 16.3616 64.1905 17.6713 64.6189C21.2809 65.8001 22.5599 65.5347 22.5599 63.6045C22.5599 62.5171 22.1139 62.1796 19.4222 61.2299C16.3378 60.1414 14.9301 60.0224 14.119 60.7821ZM24.4063 64.5015C22.9548 65.571 23.3721 66.7781 25.7063 68.2602C26.6633 68.8678 27.8629 69.6777 28.3727 70.0604C29.4863 70.8962 30.3961 70.95 31.286 70.2329C32.7698 69.0377 31.9842 67.6974 28.5622 65.5849C25.9203 63.9541 25.3509 63.8057 24.4063 64.5015ZM32.5765 71.1967C31.8562 71.8713 31.7384 72.6582 32.248 73.3962C32.9183 74.3675 34.9936 76.9892 35.6984 77.7556C37.3792 79.5824 39.9558 77.5601 38.7335 75.3732C38.2578 74.5222 35.2057 71.0315 34.8143 70.8908C34.0697 70.6234 33.0382 70.7642 32.5765 71.1967ZM38.8629 79.5576C37.5253 80.103 37.5043 80.7877 38.7211 84.1849C39.9705 87.673 40.3753 88.1402 41.8797 87.8306C43.8387 87.4277 43.7012 85.0017 41.4602 80.4265C41.1937 79.8824 39.9963 79.1129 39.6259 79.2475C39.6125 79.2524 39.2693 79.392 38.8629 79.5576Z" fill="white"/>
</svg>
