<svg width="97" height="100" viewBox="0 0 97 100" fill="none" xmlns="http://www.w3.org/2000/svg">
<path fill-rule="evenodd" clip-rule="evenodd" d="M38.535 0.181359C36.4072 0.784071 36.303 0.878264 18.9074 17.8855C-0.674758 37.0308 0.513932 35.6623 0.513932 39.0639C0.513932 42.0564 0.760308 42.4421 5.96645 47.6003L10.2919 51.8854L10.1948 54.2925C9.90725 61.4324 13.6181 67.4798 20.1107 70.452C22.8447 71.7038 24.0028 71.9384 27.6565 71.9818L30.8713 72.0199L34.551 75.5827C37.4521 78.3916 38.4786 79.259 39.4012 79.6821C41.8999 80.8273 44.826 80.526 47.0164 78.8978C49.2516 77.2361 81.0278 45.8253 81.5867 44.725C82.7099 42.5133 82.7253 40.1591 81.6307 37.9751C81.2377 37.1912 77.2481 33.1811 62.7234 18.9705C44.9999 1.63041 44.2693 0.943443 43.1109 0.52852C41.5977 -0.0133844 39.7243 -0.155667 38.535 0.181359ZM4.71855 1.91517C3.78151 2.28399 3.77218 2.9348 4.66238 5.90106C5.66249 9.23396 5.6639 8.87368 4.63764 12.2567L3.79347 15.0401L4.20146 15.578C4.79703 16.3632 5.48688 16.3407 8.57743 15.4346L11.3151 14.6319L14.0093 15.4238C18.9741 16.8828 19.3247 16.5396 17.8525 11.6627L17.0479 8.99768L17.8554 6.31797C19.2854 1.57159 18.9591 1.20118 14.4888 2.49464C11.1148 3.47074 11.5658 3.46994 8.19458 2.50398C5.13222 1.62644 5.35568 1.66419 4.71855 1.91517ZM62.7944 2.12105C62.082 2.6701 62.1072 3.03495 63.0819 6.29174L63.9038 9.03802L63.0819 11.7841C61.6452 16.5845 61.9368 16.8619 66.9059 15.4216L69.6254 14.6331L72.3599 15.4244C77.245 16.8377 77.593 16.5235 76.2273 11.93L75.3655 9.03147L76.2443 6.06063C77.5881 1.51913 77.2773 1.21867 72.6288 2.56339L69.6556 3.42344L66.7184 2.57055C63.2809 1.57278 63.4765 1.59524 62.7944 2.12105ZM42.1408 3.20724C43.1764 3.62713 78.5223 38.2247 79.0954 39.3793C79.581 40.358 79.621 41.9644 79.1852 42.9991C78.7809 43.9587 45.7129 76.4551 44.5169 77.068C43.5215 77.5781 41.8072 77.6162 40.6941 77.153C39.9891 76.8595 34.0738 71.4097 34.0738 71.0534C34.0738 70.9784 34.4674 70.7696 34.9486 70.5895C37.2572 69.7255 38.7613 68.4291 49.064 58.4224C60.0356 47.7662 60.0984 47.6933 60.0954 45.6437C60.093 44.0217 58.8686 42.0652 57.5651 41.6C57.3741 41.5316 57.5136 41.2711 58.0301 40.7324C60.1635 38.5065 59.9634 35.3707 57.5876 33.8009C56.6893 33.2073 56.6853 33.199 56.9258 32.5092C58.1382 29.0308 54.99 25.7431 51.3392 26.675C50.3547 26.9262 50.1988 26.9252 50.0508 26.6659C48.8675 24.5941 46.0013 23.6323 44.01 24.6392C43.6196 24.8365 41.1946 27.052 38.6209 29.5626L33.9418 34.1272L33.6879 33.0161C32.863 29.4034 28.2733 27.8721 25.432 30.2617C24.8965 30.7122 14.5426 42.9719 13.5275 44.3576C13.1176 44.917 12.4361 46.0966 12.0129 46.9789L11.2434 48.5833L7.68155 45.167C5.72251 43.2881 3.95022 41.4378 3.74298 41.0553C3.14316 39.9472 3.21474 38.0036 3.89669 36.8822C4.64474 35.6519 37.1751 3.86082 38.2308 3.32826C39.2236 2.82729 41.0638 2.77046 42.1408 3.20724ZM9.67142 5.88159L11.3263 6.34341L13.1187 5.84284C14.1046 5.56741 14.9396 5.41321 14.9745 5.49985C15.0092 5.58669 14.8374 6.31181 14.5929 7.11125C14.0441 8.90449 14.05 9.22323 14.6663 11.1899L15.1594 12.7634L13.2158 12.2308L11.2722 11.6985L9.94862 12.0768C9.22064 12.2849 8.37506 12.5074 8.06967 12.5714L7.51426 12.6875L7.82167 11.7191C8.66057 9.07697 8.62752 8.2513 7.57489 5.56304C7.47817 5.31604 7.52197 5.24609 7.72799 5.31842C7.88677 5.37426 8.76135 5.62762 9.67142 5.88159ZM67.6337 5.77984C69.639 6.3903 69.7004 6.3905 71.6812 5.79157C72.5691 5.5231 73.3265 5.33392 73.3644 5.37108C73.4026 5.40824 73.1965 6.24663 72.9066 7.23406L72.3795 9.02908L72.8944 10.7695C73.1775 11.7265 73.3705 12.5476 73.3231 12.5941C73.2758 12.6406 72.4432 12.4478 71.4729 12.1658L69.7087 11.6532L67.8959 12.1643C66.8986 12.4454 66.0393 12.6328 65.9861 12.5806C65.933 12.5285 66.1232 11.6895 66.4089 10.7164L66.9282 8.94701L66.4193 7.28016C65.9389 5.70771 65.8419 5.28603 65.9608 5.28603C65.9886 5.28603 66.7415 5.5082 67.6337 5.77984ZM47.0752 27.5212C47.4333 27.8054 47.5495 28.0979 47.5495 28.7151C47.5495 29.528 47.497 29.5841 38.4796 38.429C28.83 47.8942 28.9062 47.8029 29.8234 48.7677C30.8841 49.8837 30.6321 50.0858 41.68 39.2668C51.2638 29.882 51.8662 29.3309 52.5468 29.3309C53.5023 29.3309 54.23 30.0668 54.23 31.0327C54.23 31.6883 53.6191 32.3294 44.0505 41.713C38.4518 47.2036 33.871 51.8461 33.871 52.0297C33.871 53.0038 34.7606 53.7705 35.696 53.6023C35.8633 53.5721 40.0152 49.6232 44.9225 44.8265C49.8297 40.0301 54.095 36.0146 54.4006 35.9033C55.4487 35.522 56.5823 36.3298 56.5823 37.4581C56.5823 38.123 56.063 38.6734 47.5706 47.0117C42.0175 52.4639 38.5108 56.0537 38.434 56.3651C38.25 57.1103 38.9821 57.9463 39.8181 57.9463C40.3957 57.9463 41.1488 57.2727 46.9515 51.5671C55.1561 43.4997 55.439 43.295 56.6928 44.5239C57.907 45.7136 58.2517 45.2981 46.6968 56.5758C36.364 66.6609 36.1766 66.8306 34.4794 67.6487C28.9697 70.3044 22.6336 69.6045 18.0873 65.8378C12.251 61.0028 11.4141 52.2278 16.1705 45.7401C17.4827 43.9502 27.4042 32.3141 27.7913 32.111C28.6933 31.638 30.0738 32.0526 30.5404 32.9366C31.1816 34.1518 31.011 34.5383 27.8889 38.9459C24.8733 43.2024 24.6651 43.6487 25.3227 44.4446C26.2895 45.6145 26.1997 45.6848 36.07 36.0212C44.6755 27.5957 45.1729 27.145 45.8684 27.145C46.2854 27.145 46.8055 27.3072 47.0752 27.5212ZM79.9051 50.7342C79.6049 51.1082 79.5111 51.426 79.5975 51.7775C79.7544 52.4176 94.2123 66.6547 94.8744 66.8213C95.5758 66.9977 96.4125 66.3123 96.4944 65.494C96.5575 64.8655 96.2077 64.4883 89.094 57.5153C80.8867 49.4702 80.9074 49.4855 79.9051 50.7342ZM70.3118 60.1354C69.01 61.1389 68.8082 60.8921 79.4504 71.3129C89.7412 81.3895 89.5853 81.2633 90.5568 80.311C91.6423 79.2475 91.8575 79.5072 81.4734 69.3372C75.519 63.5056 71.6968 59.9079 71.3764 59.8329C71.0187 59.7493 70.6924 59.8419 70.3118 60.1354ZM60.2471 69.9956C59.4571 70.9796 59.4749 71.0017 67.0722 78.4576C74.8905 86.1303 74.9913 86.2062 75.9501 85.1681C76.9084 84.1302 76.8723 84.0845 69.1318 76.5076C61.251 68.7935 61.2263 68.7755 60.2471 69.9956ZM51.1072 79.1533C50.4825 79.3745 50.0933 79.8854 50.0933 80.4847C50.0933 81.035 51.1522 82.1394 59.7809 90.5885C70.0717 100.665 69.9158 100.539 70.8873 99.5867C71.9732 98.5228 72.1883 98.7827 61.8038 88.621C52.6289 79.6433 51.7989 78.9087 51.1072 79.1533Z" fill="white"/>
</svg>
