<svg width="111" height="100" viewBox="0 0 111 100" fill="none" xmlns="http://www.w3.org/2000/svg">
<path fill-rule="evenodd" clip-rule="evenodd" d="M32.0675 0.501193C20.9627 4.04329 20.0023 23.6875 30.4576 33.4256C39.9568 42.2727 51.6187 35.8595 51.6429 21.7753C51.6655 8.51348 41.5189 -2.51375 32.0675 0.501193ZM72.935 0.41463C60.4202 3.77116 54.6321 25.1248 63.773 34.2158C73.0816 43.4729 87.893 32.0551 87.8122 15.6848C87.76 5.05354 81.1053 -1.77693 72.935 0.41463ZM38.0086 5.2246C40.2279 6.04306 43.2998 9.2021 44.7774 12.1859C49.5257 21.7727 46.3457 33.5038 39.1746 32.8554C32.1704 32.222 26.1715 21.2471 28.0429 12.4897C29.3911 6.18016 33.1566 3.43527 38.0086 5.2246ZM78.2332 5.16317C83.4883 7.59861 84.9269 17.5495 81.1151 25.0981C75.5906 36.0391 65.6446 35.316 64.0719 23.8593C62.6379 13.4144 71.3163 1.95722 78.2332 5.16317ZM7.75307 30.1857C0.0929052 32.5732 -2.3283 42.8066 2.46993 52.5151C10.2353 68.2279 27.9485 67.0225 27.9485 50.7813C27.9485 38.5157 16.9649 27.3143 7.75307 30.1857ZM96.554 30.3847C84.3461 34.6577 78.5357 53.2392 86.9718 61.0286C93.1577 66.7405 103.486 62.761 108.468 52.7463C113.046 43.5439 111.253 33.7897 104.407 30.6462C102.271 29.6653 98.9273 29.5538 96.554 30.3847ZM14.5546 35.3924C21.2863 38.7262 25.4772 49.5943 22.3811 55.6879C17.9301 64.4482 4.71026 54.6883 4.7061 42.6386C4.70376 35.8465 9.03552 32.6592 14.5546 35.3924ZM103.364 35.4005C109.416 39.6348 105.724 54.023 97.5565 58.0329C87.9094 62.7695 83.87 49.5829 91.8303 39.3394C95.1922 35.013 100.312 33.2646 103.364 35.4005ZM51.8565 41.8536C45.6298 43.2303 41.4251 46.8185 37.678 53.9535C35.5102 58.0816 33.1181 60.4727 29.1876 62.4404C21.358 66.3601 17.2663 73.0143 17.6231 81.2471C18.2481 95.668 32.4562 103.977 46.1861 97.9513C53.2426 94.8542 57.7896 94.9405 65.7753 98.3224C79.0708 103.953 93.4381 94.7484 93.462 80.5852C93.4761 72.3941 89.5105 66.3028 81.4816 62.1812C78.0622 60.4258 76.0207 58.2547 73.9505 54.1717C70.3475 47.0655 66.6953 43.6457 61.0818 42.1213C58.8911 41.5265 53.9804 41.384 51.8565 41.8536ZM59.3472 46.5316C63.9958 47.6245 66.6248 50.0348 69.6591 55.9859C72.3848 61.3319 74.9786 64.0708 79.5562 66.4368C81.1414 67.2563 83.093 68.5083 83.8929 69.2195C91.7482 76.2021 89.9925 89.3411 80.6071 93.8087C75.8497 96.0733 71.9657 95.9938 66.0399 93.5098C58.7256 90.4441 52.2637 90.4441 44.9494 93.5098C39.1967 95.9209 35.1869 96.0404 30.5709 93.9377C19.1935 88.7556 19.5859 71.5756 31.1946 66.613C35.7394 64.67 39.2409 61.0232 42.3931 54.9498C45.9684 48.0607 52.358 44.8882 59.3472 46.5316Z" fill="white"/>
</svg>
