<svg width="50" height="50" viewBox="0 0 50 50" fill="none" xmlns="http://www.w3.org/2000/svg">
<g clip-path="url(#clip0_2553_62541)">
<path d="M0.862108 41.3794H49.1379C49.614 41.3794 50 40.9933 50 40.5173V9.48283C50 9.00676 49.614 8.62073 49.1379 8.62073H0.862108C0.386034 8.62083 0 9.00676 0 9.48283V40.5173C0 40.9934 0.386034 41.3794 0.862108 41.3794Z" fill="#C8414B"/>
<path d="M49.9999 15.5177H0V34.4835H49.9999V15.5177Z" fill="#FFD250"/>
<path d="M21.1216 25.0001L21.8525 21.711C21.9199 21.408 21.6893 21.1207 21.379 21.1207H20.8641C20.5539 21.1207 20.3234 21.408 20.3906 21.711L21.1216 25.0001Z" fill="#C8414B"/>
<path d="M21.9858 23.2755H20.2617V30.6026H21.9858V23.2755Z" fill="#F5F5F5"/>
<path d="M22.4144 22.4142H19.8281V23.2763H22.4144V22.4142Z" fill="#FAB446"/>
<path d="M22.416 25.0001H18.1055V25.8622H22.416V25.0001Z" fill="#C8414B"/>
<path d="M22.4143 28.4484L19.8281 27.5864V26.7242L22.4143 27.5864V28.4484Z" fill="#C8414B"/>
<path d="M8.19188 25.0001L8.92284 21.711C8.99022 21.408 8.75965 21.1207 8.4493 21.1207H7.93446C7.62421 21.1207 7.39374 21.408 7.46093 21.711L8.19188 25.0001Z" fill="#C8414B"/>
<path d="M11.2098 22.4139C10.7337 22.4139 10.3477 22.8 10.3477 23.276V28.8795C10.3477 29.9268 11.3252 31.8967 14.658 31.8967C17.9908 31.8967 18.9683 29.9269 18.9683 28.8795V23.276C18.9683 22.8 18.5823 22.4139 18.1062 22.4139H11.2098Z" fill="#F5F5F5"/>
<path d="M14.658 26.7242H10.3477V23.2759C10.3477 22.7999 10.7337 22.4138 11.2098 22.4138H14.658V26.7242Z" fill="#C8414B"/>
<path d="M14.6562 26.7241H18.9666V28.8793C18.9666 30.0696 18.0018 31.0345 16.8114 31.0345C15.6211 31.0345 14.6562 30.0696 14.6562 28.8793V26.7241Z" fill="#C8414B"/>
<path d="M10.3477 26.7242H14.658V28.8794C14.658 30.0697 13.6932 31.0346 12.5028 31.0346C11.3125 31.0346 10.3477 30.0697 10.3477 28.8794V26.7242Z" fill="#FAB446"/>
<path d="M13.7918 30.594V26.7244H12.9297V30.9913C13.2504 30.9262 13.5401 30.7842 13.7918 30.594Z" fill="#C8414B"/>
<path d="M12.0691 30.9913V26.7244H11.207V30.594C11.4588 30.7842 11.7485 30.9262 12.0691 30.9913Z" fill="#C8414B"/>
<path d="M13.7933 25.0001H11.207V25.8622H13.7933V25.0001Z" fill="#FFB441"/>
<path d="M13.7933 23.2755H11.207V24.1376H13.7933V23.2755Z" fill="#FAB446"/>
<path d="M13.3608 23.7882H11.6367V25.3499H13.3608V23.7882Z" fill="#FAB446"/>
<path d="M9.05224 23.2755H7.32812V30.6026H9.05224V23.2755Z" fill="#F5F5F5"/>
<path d="M9.48076 30.173H6.89453V31.0351H9.48076V30.173Z" fill="#FAB446"/>
<path d="M9.48076 22.4142H6.89453V23.2763H9.48076V22.4142Z" fill="#FAB446"/>
<path d="M9.91699 31.0343H6.46875V31.8964H9.91699V31.0343Z" fill="#5064AA"/>
<path d="M22.8479 30.173H20.2617V31.0351H22.8479V30.173Z" fill="#FAB446"/>
<path d="M22.8467 31.0343H19.3984V31.8964H22.8467V31.0343Z" fill="#5064AA"/>
<path d="M17.2428 21.5519H12.0703V22.414H17.2428V21.5519Z" fill="#FAB446"/>
<path d="M15.0887 18.9661H14.2266V21.5523H15.0887V18.9661Z" fill="#FFB441"/>
<path d="M13.7931 20.2587C13.08 20.2587 12.5 19.6787 12.5 18.9657C12.5 18.2526 13.0801 17.6726 13.7931 17.6726C14.5061 17.6726 15.0861 18.2527 15.0861 18.9657C15.0862 19.6787 14.5061 20.2587 13.7931 20.2587ZM13.7931 18.5346C13.5553 18.5346 13.362 18.7278 13.362 18.9657C13.362 19.2035 13.5552 19.3967 13.7931 19.3967C14.031 19.3967 14.2241 19.2036 14.2241 18.9657C14.2241 18.7279 14.031 18.5346 13.7931 18.5346Z" fill="#F5F5F5"/>
<path d="M15.5196 20.2587C14.8065 20.2587 14.2266 19.6787 14.2266 18.9657C14.2266 18.2526 14.8066 17.6726 15.5196 17.6726C16.2327 17.6726 16.8127 18.2527 16.8127 18.9657C16.8127 19.6787 16.2326 20.2587 15.5196 20.2587ZM15.5196 18.5346C15.2818 18.5346 15.0886 18.7278 15.0886 18.9657C15.0886 19.2035 15.2817 19.3967 15.5196 19.3967C15.7574 19.3967 15.9507 19.2036 15.9507 18.9657C15.9506 18.7279 15.7574 18.5346 15.5196 18.5346Z" fill="#F5F5F5"/>
<path d="M17.2423 21.1209C16.5292 21.1209 15.9492 20.5408 15.9492 19.8279C15.9492 19.1148 16.5293 18.5348 17.2423 18.5348C17.9554 18.5348 18.5353 19.1149 18.5353 19.8279C18.5353 20.5408 17.9553 21.1209 17.2423 21.1209ZM17.2423 19.3968C17.0045 19.3968 16.8112 19.59 16.8112 19.8279C16.8112 20.0656 17.0044 20.2589 17.2423 20.2589C17.4801 20.2589 17.6733 20.0657 17.6733 19.8279C17.6733 19.59 17.4801 19.3968 17.2423 19.3968Z" fill="#F5F5F5"/>
<path d="M12.0704 21.1209C11.3573 21.1209 10.7773 20.5408 10.7773 19.8279C10.7773 19.1148 11.3574 18.5348 12.0704 18.5348C12.7835 18.5348 13.3635 19.1149 13.3635 19.8279C13.3636 20.5408 12.7835 21.1209 12.0704 21.1209ZM12.0704 19.3968C11.8326 19.3968 11.6394 19.59 11.6394 19.8279C11.6394 20.0656 11.8325 20.2589 12.0704 20.2589C12.3083 20.2589 12.5015 20.0656 12.5015 19.8278C12.5015 19.59 12.3083 19.3968 12.0704 19.3968Z" fill="#F5F5F5"/>
<path d="M17.2437 28.4484V28.8795C17.2437 29.1172 17.0504 29.3105 16.8127 29.3105C16.575 29.3105 16.3816 29.1172 16.3816 28.8795V28.4484H17.2437ZM18.1058 27.5864H15.5195V28.8795C15.5195 29.5926 16.0996 30.1726 16.8126 30.1726C17.5257 30.1726 18.1057 29.5925 18.1057 28.8795V27.5864H18.1058Z" fill="#FAB446"/>
<path d="M16.8113 25.8622C16.3353 25.8622 15.9492 25.4762 15.9492 25.0001V24.138C15.9492 23.6619 16.3353 23.2759 16.8113 23.2759C17.2874 23.2759 17.6734 23.6619 17.6734 24.138V25.0001C17.6734 25.4762 17.2874 25.8622 16.8113 25.8622Z" fill="#FFA0D2"/>
<path d="M14.6563 28.0168C15.3705 28.0168 15.9494 27.4379 15.9494 26.7237C15.9494 26.0096 15.3705 25.4307 14.6563 25.4307C13.9422 25.4307 13.3633 26.0096 13.3633 26.7237C13.3633 27.4379 13.9422 28.0168 14.6563 28.0168Z" fill="#5064AA"/>
<path d="M15.0887 17.2413H14.2266V19.8276H15.0887V17.2413Z" fill="#FAB446"/>
<path d="M12.0691 21.5519L11.207 20.6898L11.712 20.1848C12.4926 19.4043 13.5514 18.9657 14.6554 18.9657C15.7594 18.9657 16.8181 19.4043 17.5987 20.1848L18.1037 20.6898L17.2416 21.5519H12.0691Z" fill="#C8414B"/>
<path d="M14.6576 21.1205C14.8957 21.1205 15.0887 20.9275 15.0887 20.6895C15.0887 20.4514 14.8957 20.2584 14.6576 20.2584C14.4196 20.2584 14.2266 20.4514 14.2266 20.6895C14.2266 20.9275 14.4196 21.1205 14.6576 21.1205Z" fill="#FFD250"/>
<path d="M12.9311 21.1205C13.1691 21.1205 13.3621 20.9275 13.3621 20.6895C13.3621 20.4514 13.1691 20.2584 12.9311 20.2584C12.693 20.2584 12.5 20.4514 12.5 20.6895C12.5 20.9275 12.693 21.1205 12.9311 21.1205Z" fill="#FFD250"/>
<path d="M16.3803 21.1205C16.6183 21.1205 16.8113 20.9275 16.8113 20.6895C16.8113 20.4514 16.6183 20.2584 16.3803 20.2584C16.1422 20.2584 15.9492 20.4514 15.9492 20.6895C15.9492 20.9275 16.1422 21.1205 16.3803 21.1205Z" fill="#FFD250"/>
<path d="M11.2051 25.0002H6.89453V25.8624H11.2051V25.0002Z" fill="#C8414B"/>
<path d="M6.89453 28.4485L9.48066 27.5865V26.7244L6.89453 27.5865V28.4485Z" fill="#C8414B"/>
</g>
<defs>
<clipPath id="clip0_2553_62541">
<rect width="50" height="50" fill="white"/>
</clipPath>
</defs>
</svg>
