<svg width="50" height="50" viewBox="0 0 50 50" fill="none" xmlns="http://www.w3.org/2000/svg">
<g clip-path="url(#clip0_2553_62538)">
<path d="M49.1377 41.3792H0.862106C0.386034 41.3792 0 40.9931 0 40.5171V9.48271C0 9.00664 0.386034 8.62061 0.862106 8.62061H49.1378C49.6139 8.62061 49.9999 9.00664 49.9999 9.48271V40.5171C49.9998 40.9931 49.6138 41.3792 49.1377 41.3792Z" fill="#41479B"/>
<path d="M49.9998 9.48271C49.9998 9.00664 49.6138 8.62061 49.1377 8.62061H45.2808L29.3101 19.0841V8.62061H20.6895V19.0841L4.71893 8.62061H0.862106C0.386034 8.62061 0 9.00664 0 9.48271V11.7123L13.702 20.6895H0V29.3102H13.702L0 38.2875V40.5171C0 40.9931 0.386034 41.3792 0.862106 41.3792H4.71902L20.6897 30.9156V41.3792H29.3103V30.9156L45.281 41.3792H49.1379C49.614 41.3792 50 40.9931 50 40.5171V38.2875L36.298 29.3103H49.9998V20.6896H36.2978L49.9998 11.7123V9.48271Z" fill="#F5F5F5"/>
<path d="M49.9998 22.4137H27.5861V8.62061H22.4137V22.4137H0V27.5861H22.4137V41.3792H27.5861V27.5861H49.9998V22.4137Z" fill="#FF4B55"/>
<path d="M17.4743 29.3103L0.0234375 40.6381C0.0844724 41.0544 0.427733 41.3793 0.861032 41.3793H2.04843L20.6411 29.3104H17.4743V29.3103Z" fill="#FF4B55"/>
<path d="M33.8269 29.3103H30.6602L49.2258 41.3614C49.6585 41.3153 50 40.962 50 40.5171V39.8083L33.8269 29.3103Z" fill="#FF4B55"/>
<path d="M0 10.4344L15.7987 20.6896H18.9655L0.502244 8.70471C0.207323 8.84172 0 9.13616 0 9.48274V10.4344Z" fill="#FF4B55"/>
<path d="M32.4793 20.6897L49.9721 9.33462C49.8994 8.93208 49.5635 8.62085 49.14 8.62085H47.9049L29.3125 20.6897H32.4793Z" fill="#FF4B55"/>
</g>
<defs>
<clipPath id="clip0_2553_62538">
<rect width="50" height="50" fill="white"/>
</clipPath>
</defs>
</svg>
