<svg width="50" height="50" viewBox="0 0 50 50" fill="none" xmlns="http://www.w3.org/2000/svg">
<g clip-path="url(#clip0_2553_62535)">
<path d="M49.1378 41.3794H0.862108C0.386034 41.3794 0 40.9933 0 40.5173V9.48283C0 9.00676 0.386034 8.62073 0.862108 8.62073H49.1379C49.614 8.62073 50 9.00676 50 9.48283V40.5173C49.9999 40.9934 49.6139 41.3794 49.1378 41.3794Z" fill="#F5F5F5"/>
<path d="M49.9999 11.1407H0V9.48283C0 9.00676 0.386034 8.62073 0.862108 8.62073H49.1379C49.614 8.62073 50 9.00676 50 9.48283L49.9999 11.1407Z" fill="#FF4B55"/>
<path d="M49.9999 18.7002H0V21.2201H49.9999V18.7002Z" fill="#FF4B55"/>
<path d="M49.9999 13.6603H0V16.1802H49.9999V13.6603Z" fill="#FF4B55"/>
<path d="M49.9999 26.26H0.862108C0.386034 26.26 0 25.874 0 25.3979V23.74H49.9999V26.26Z" fill="#FF4B55"/>
<path d="M49.9999 33.8203H0V36.3402H49.9999V33.8203Z" fill="#FF4B55"/>
<path d="M49.1378 41.3793H0.862108C0.386034 41.3793 0 40.9933 0 40.5172V38.8594H49.9999V40.5173C49.9999 40.9934 49.6139 41.3793 49.1378 41.3793Z" fill="#FF4B55"/>
<path d="M49.9999 28.7803H0V31.3002H49.9999V28.7803Z" fill="#FF4B55"/>
<path d="M22.4137 8.62085H0.862108C0.386034 8.62085 0 9.00679 0 9.48286V25.3979C0 25.8739 0.386034 26.26 0.862108 26.26H22.4138C22.8899 26.26 23.2759 25.8739 23.2759 25.3979V9.48286C23.2758 9.00679 22.8898 8.62085 22.4137 8.62085Z" fill="#41479B"/>
<path d="M2.41956 10.5994L2.61038 11.1717L3.21361 11.1763C3.29173 11.1769 3.32405 11.2765 3.26126 11.3229L2.77601 11.6813L2.95804 12.2564C2.98167 12.3308 2.89681 12.3926 2.83324 12.3471L2.34251 11.9964L1.85179 12.3472C1.78822 12.3926 1.70355 12.3309 1.72699 12.2565L1.90902 11.6814L1.42377 11.323C1.36097 11.2765 1.3933 11.177 1.47142 11.1764L2.07464 11.1718L2.26546 10.5995C2.29007 10.5253 2.39476 10.5253 2.41956 10.5994Z" fill="#F5F5F5"/>
<path d="M2.41956 13.593L2.61038 14.1652L3.21361 14.1698C3.29173 14.1705 3.32405 14.2701 3.26126 14.3165L2.77601 14.6749L2.95804 15.25C2.98167 15.3244 2.89681 15.3861 2.83324 15.3406L2.34251 14.99L1.85179 15.3407C1.78822 15.3861 1.70355 15.3245 1.72699 15.2501L1.90902 14.675L1.42377 14.3166C1.36097 14.2701 1.3933 14.1706 1.47142 14.1699L2.07464 14.1653L2.26546 13.5931C2.29007 13.519 2.39476 13.519 2.41956 13.593Z" fill="#F5F5F5"/>
<path d="M2.41956 16.5865L2.61038 17.1588L3.21361 17.1634C3.29173 17.164 3.32405 17.2637 3.26126 17.31L2.77601 17.6684L2.95804 18.2435C2.98167 18.318 2.89681 18.3797 2.83324 18.3342L2.34251 17.9835L1.85179 18.3343C1.78822 18.3797 1.70355 18.318 1.72699 18.2436L1.90902 17.6685L1.42377 17.3101C1.36097 17.2637 1.3933 17.1641 1.47142 17.1635L2.07464 17.1589L2.26546 16.5866C2.29007 16.5125 2.39476 16.5125 2.41956 16.5865Z" fill="#F5F5F5"/>
<path d="M2.41956 19.5802L2.61038 20.1525L3.21361 20.1571C3.29173 20.1578 3.32405 20.2574 3.26126 20.3038L2.77601 20.6622L2.95804 21.2373C2.98167 21.3117 2.89681 21.3734 2.83324 21.3279L2.34251 20.9772L1.85179 21.328C1.78822 21.3734 1.70355 21.3118 1.72699 21.2374L1.90902 20.6623L1.42377 20.3039C1.36097 20.2574 1.3933 20.1579 1.47142 20.1572L2.07464 20.1526L2.26546 19.5803C2.29007 19.5061 2.39476 19.5061 2.41956 19.5802Z" fill="#F5F5F5"/>
<path d="M2.41956 22.5737L2.61038 23.146L3.21361 23.1506C3.29173 23.1513 3.32405 23.2509 3.26126 23.2973L2.77601 23.6556L2.95804 24.2307C2.98167 24.3052 2.89681 24.3669 2.83324 24.3214L2.34251 23.9707L1.85179 24.3215C1.78822 24.3669 1.70355 24.3053 1.72699 24.2308L1.90902 23.6557L1.42377 23.2973C1.36097 23.2509 1.3933 23.1514 1.47142 23.1507L2.07464 23.1461L2.26546 22.5738C2.29007 22.4995 2.39476 22.4995 2.41956 22.5737Z" fill="#F5F5F5"/>
<path d="M4.74378 12.0671L4.9346 12.6394L5.53782 12.644C5.61595 12.6447 5.64827 12.7443 5.58548 12.7906L5.10023 13.149L5.28226 13.7241C5.30589 13.7986 5.22103 13.8603 5.15745 13.8148L4.66673 13.464L4.17601 13.8148C4.11244 13.8602 4.02777 13.7986 4.05121 13.7241L4.23324 13.149L3.74798 12.7906C3.68519 12.7442 3.71752 12.6447 3.79564 12.644L4.39886 12.6394L4.58968 12.0671C4.61419 11.9931 4.71908 11.9931 4.74378 12.0671Z" fill="#F5F5F5"/>
<path d="M4.74378 15.0607L4.9346 15.633L5.53782 15.6376C5.61595 15.6383 5.64827 15.7379 5.58548 15.7842L5.10023 16.1426L5.28226 16.7177C5.30589 16.7922 5.22103 16.8539 5.15745 16.8084L4.66673 16.4576L4.17601 16.8084C4.11244 16.8538 4.02777 16.7923 4.05121 16.7177L4.23324 16.1426L3.74798 15.7842C3.68519 15.7378 3.71752 15.6383 3.79564 15.6376L4.39886 15.633L4.58968 15.0607C4.61419 14.9866 4.71908 14.9866 4.74378 15.0607Z" fill="#F5F5F5"/>
<path d="M4.74378 18.0542L4.9346 18.6265L5.53782 18.6311C5.61595 18.6318 5.64827 18.7314 5.58548 18.7778L5.10023 19.1362L5.28226 19.7113C5.30589 19.7857 5.22103 19.8474 5.15745 19.8019L4.66673 19.4511L4.17601 19.8019C4.11244 19.8473 4.02777 19.7857 4.05121 19.7113L4.23324 19.1362L3.74798 18.7778C3.68519 18.7313 3.71752 18.6318 3.79564 18.6311L4.39886 18.6265L4.58968 18.0542C4.61419 17.9801 4.71908 17.9801 4.74378 18.0542Z" fill="#F5F5F5"/>
<path d="M4.74378 21.0478L4.9346 21.6201L5.53782 21.6247C5.61595 21.6254 5.64827 21.725 5.58548 21.7714L5.10023 22.1298L5.28226 22.7049C5.30589 22.7793 5.22103 22.841 5.15745 22.7955L4.66673 22.4447L4.17601 22.7955C4.11244 22.8409 4.02777 22.7793 4.05121 22.7049L4.23324 22.1298L3.74798 21.7714C3.68519 21.7249 3.71752 21.6254 3.79564 21.6247L4.39886 21.6201L4.58968 21.0478C4.61419 20.9738 4.71908 20.9738 4.74378 21.0478Z" fill="#F5F5F5"/>
<path d="M7.068 10.5994L7.25882 11.1717L7.86204 11.1763C7.94017 11.177 7.97249 11.2766 7.9097 11.3229L7.42445 11.6813L7.60648 12.2564C7.63011 12.3309 7.54525 12.3926 7.48167 12.3471L6.99095 11.9963L6.50023 12.3471C6.43666 12.3925 6.35199 12.3309 6.37542 12.2564L6.55746 11.6813L6.0722 11.3229C6.00941 11.2765 6.04173 11.177 6.11986 11.1763L6.72308 11.1717L6.9139 10.5994C6.93851 10.5253 7.04329 10.5253 7.068 10.5994Z" fill="#F5F5F5"/>
<path d="M7.068 13.593L7.25882 14.1653L7.86204 14.1698C7.94017 14.1705 7.97249 14.2701 7.9097 14.3165L7.42445 14.6749L7.60648 15.25C7.63011 15.3244 7.54525 15.3862 7.48167 15.3406L6.99095 14.9899L6.50023 15.3406C6.43666 15.3861 6.35199 15.3244 6.37542 15.25L6.55746 14.6749L6.0722 14.3165C6.00941 14.27 6.04173 14.1705 6.11986 14.1698L6.72308 14.1653L6.9139 13.593C6.93851 13.519 7.04329 13.519 7.068 13.593Z" fill="#F5F5F5"/>
<path d="M7.068 16.5865L7.25882 17.1588L7.86204 17.1634C7.94017 17.1641 7.97249 17.2637 7.9097 17.3101L7.42445 17.6685L7.60648 18.2436C7.63011 18.318 7.54525 18.3797 7.48167 18.3342L6.99095 17.9834L6.50023 18.3342C6.43666 18.3796 6.35199 18.318 6.37542 18.2436L6.55746 17.6685L6.0722 17.3101C6.00941 17.2636 6.04173 17.1641 6.11986 17.1634L6.72308 17.1588L6.9139 16.5865C6.93851 16.5125 7.04329 16.5125 7.068 16.5865Z" fill="#F5F5F5"/>
<path d="M7.068 19.5801L7.25882 20.1524L7.86204 20.157C7.94017 20.1577 7.97249 20.2573 7.9097 20.3037L7.42445 20.6621L7.60648 21.2372C7.63011 21.3116 7.54525 21.3733 7.48167 21.3278L6.99095 20.977L6.50023 21.3278C6.43666 21.3732 6.35199 21.3116 6.37542 21.2372L6.55746 20.6621L6.0722 20.3037C6.00941 20.2572 6.04173 20.1577 6.11986 20.157L6.72308 20.1524L6.9139 19.5801C6.93851 19.506 7.04329 19.506 7.068 19.5801Z" fill="#F5F5F5"/>
<path d="M7.068 22.5737L7.25882 23.146L7.86204 23.1506C7.94017 23.1513 7.97249 23.2509 7.9097 23.2973L7.42445 23.6557L7.60648 24.2308C7.63011 24.3052 7.54525 24.3669 7.48167 24.3214L6.99095 23.9706L6.50023 24.3214C6.43666 24.3668 6.35199 24.3052 6.37542 24.2308L6.55746 23.6557L6.0722 23.2973C6.00941 23.2508 6.04173 23.1513 6.11986 23.1506L6.72308 23.146L6.9139 22.5737C6.93851 22.4995 7.04329 22.4995 7.068 22.5737Z" fill="#F5F5F5"/>
<path d="M9.39222 12.0671L9.58304 12.6394L10.1863 12.644C10.2644 12.6447 10.2967 12.7443 10.2339 12.7906L9.74866 13.149L9.9307 13.7241C9.95433 13.7986 9.86947 13.8603 9.80589 13.8148L9.31517 13.464L8.82445 13.8148C8.76087 13.8602 8.67621 13.7986 8.69964 13.7241L8.88167 13.149L8.39642 12.7906C8.33363 12.7442 8.36595 12.6447 8.44408 12.644L9.0473 12.6394L9.23812 12.0671C9.26263 11.9931 9.36751 11.9931 9.39222 12.0671Z" fill="#F5F5F5"/>
<path d="M9.39222 15.0607L9.58304 15.633L10.1863 15.6376C10.2644 15.6383 10.2967 15.7379 10.2339 15.7842L9.74866 16.1426L9.9307 16.7177C9.95433 16.7922 9.86947 16.8539 9.80589 16.8084L9.31517 16.4576L8.82445 16.8084C8.76087 16.8538 8.67621 16.7923 8.69964 16.7177L8.88167 16.1426L8.39642 15.7842C8.33363 15.7378 8.36595 15.6383 8.44408 15.6376L9.0473 15.633L9.23812 15.0607C9.26263 14.9866 9.36751 14.9866 9.39222 15.0607Z" fill="#F5F5F5"/>
<path d="M9.39222 18.0542L9.58304 18.6265L10.1863 18.6311C10.2644 18.6318 10.2967 18.7314 10.2339 18.7778L9.74866 19.1362L9.9307 19.7113C9.95433 19.7857 9.86947 19.8474 9.80589 19.8019L9.31517 19.4511L8.82445 19.8019C8.76087 19.8473 8.67621 19.7857 8.69964 19.7113L8.88167 19.1362L8.39642 18.7778C8.33363 18.7313 8.36595 18.6318 8.44408 18.6311L9.0473 18.6265L9.23812 18.0542C9.26263 17.9801 9.36751 17.9801 9.39222 18.0542Z" fill="#F5F5F5"/>
<path d="M9.39222 21.0478L9.58304 21.6201L10.1863 21.6247C10.2644 21.6254 10.2967 21.725 10.2339 21.7714L9.74866 22.1298L9.9307 22.7049C9.95433 22.7793 9.86947 22.841 9.80589 22.7955L9.31517 22.4447L8.82445 22.7955C8.76087 22.8409 8.67621 22.7793 8.69964 22.7049L8.88167 22.1298L8.39642 21.7714C8.33363 21.7249 8.36595 21.6254 8.44408 21.6247L9.0473 21.6201L9.23812 21.0478C9.26263 20.9738 9.36751 20.9738 9.39222 21.0478Z" fill="#F5F5F5"/>
<path d="M11.7126 10.5994L11.9034 11.1717L12.5067 11.1763C12.5848 11.177 12.6171 11.2766 12.5543 11.3229L12.0691 11.6813L12.2511 12.2564C12.2747 12.3309 12.1899 12.3926 12.1263 12.3471L11.6355 11.9963L11.1448 12.3471C11.0812 12.3925 10.9965 12.3309 11.02 12.2564L11.202 11.6813L10.7167 11.3229C10.6539 11.2765 10.6863 11.177 10.7644 11.1763L11.3676 11.1717L11.5584 10.5994C11.5831 10.5253 11.6879 10.5253 11.7126 10.5994Z" fill="#F5F5F5"/>
<path d="M11.7126 13.593L11.9034 14.1653L12.5067 14.1698C12.5848 14.1705 12.6171 14.2701 12.5543 14.3165L12.0691 14.6749L12.2511 15.25C12.2747 15.3244 12.1899 15.3862 12.1263 15.3406L11.6355 14.9899L11.1448 15.3406C11.0812 15.3861 10.9965 15.3244 11.02 15.25L11.202 14.6749L10.7167 14.3165C10.6539 14.27 10.6863 14.1705 10.7644 14.1698L11.3676 14.1653L11.5584 13.593C11.5831 13.519 11.6879 13.519 11.7126 13.593Z" fill="#F5F5F5"/>
<path d="M11.7126 16.5865L11.9034 17.1588L12.5067 17.1634C12.5848 17.1641 12.6171 17.2637 12.5543 17.3101L12.0691 17.6685L12.2511 18.2436C12.2747 18.318 12.1899 18.3797 12.1263 18.3342L11.6355 17.9834L11.1448 18.3342C11.0812 18.3796 10.9965 18.318 11.02 18.2436L11.202 17.6685L10.7167 17.3101C10.6539 17.2636 10.6863 17.1641 10.7644 17.1634L11.3676 17.1588L11.5584 16.5865C11.5831 16.5125 11.6879 16.5125 11.7126 16.5865Z" fill="#F5F5F5"/>
<path d="M11.7126 19.5801L11.9034 20.1524L12.5067 20.157C12.5848 20.1577 12.6171 20.2573 12.5543 20.3037L12.0691 20.6621L12.2511 21.2372C12.2747 21.3116 12.1899 21.3733 12.1263 21.3278L11.6355 20.977L11.1448 21.3278C11.0812 21.3732 10.9965 21.3116 11.02 21.2372L11.202 20.6621L10.7167 20.3037C10.6539 20.2572 10.6863 20.1577 10.7644 20.157L11.3676 20.1524L11.5584 19.5801C11.5831 19.506 11.6879 19.506 11.7126 19.5801Z" fill="#F5F5F5"/>
<path d="M11.7126 22.5737L11.9034 23.146L12.5067 23.1506C12.5848 23.1513 12.6171 23.2509 12.5543 23.2973L12.0691 23.6557L12.2511 24.2308C12.2747 24.3052 12.1899 24.3669 12.1263 24.3214L11.6355 23.9706L11.1448 24.3214C11.0812 24.3668 10.9965 24.3052 11.02 24.2308L11.202 23.6557L10.7167 23.2973C10.6539 23.2508 10.6863 23.1513 10.7644 23.1506L11.3676 23.146L11.5584 22.5737C11.5831 22.4995 11.6879 22.4995 11.7126 22.5737Z" fill="#F5F5F5"/>
<path d="M14.0368 12.0671L14.2276 12.6394L14.8308 12.644C14.9089 12.6447 14.9412 12.7443 14.8784 12.7906L14.3932 13.149L14.5752 13.7241C14.5989 13.7986 14.514 13.8603 14.4504 13.8148L13.9597 13.464L13.469 13.8148C13.4054 13.8602 13.3207 13.7986 13.3442 13.7241L13.5262 13.149L13.041 12.7906C12.9782 12.7442 13.0105 12.6447 13.0886 12.644L13.6918 12.6394L13.8827 12.0671C13.9074 11.9931 14.012 11.9931 14.0368 12.0671Z" fill="#F5F5F5"/>
<path d="M14.0368 15.0607L14.2276 15.633L14.8308 15.6376C14.9089 15.6383 14.9412 15.7379 14.8784 15.7842L14.3932 16.1426L14.5752 16.7177C14.5989 16.7922 14.514 16.8539 14.4504 16.8084L13.9597 16.4576L13.469 16.8084C13.4054 16.8538 13.3207 16.7923 13.3442 16.7177L13.5262 16.1426L13.041 15.7842C12.9782 15.7378 13.0105 15.6383 13.0886 15.6376L13.6918 15.633L13.8827 15.0607C13.9074 14.9866 14.012 14.9866 14.0368 15.0607Z" fill="#F5F5F5"/>
<path d="M14.0368 18.0542L14.2276 18.6265L14.8308 18.6311C14.9089 18.6318 14.9412 18.7314 14.8784 18.7778L14.3932 19.1362L14.5752 19.7113C14.5989 19.7857 14.514 19.8474 14.4504 19.8019L13.9597 19.4511L13.469 19.8019C13.4054 19.8473 13.3207 19.7857 13.3442 19.7113L13.5262 19.1362L13.041 18.7778C12.9782 18.7313 13.0105 18.6318 13.0886 18.6311L13.6918 18.6265L13.8827 18.0542C13.9074 17.9801 14.012 17.9801 14.0368 18.0542Z" fill="#F5F5F5"/>
<path d="M14.0368 21.0478L14.2276 21.6201L14.8308 21.6247C14.9089 21.6254 14.9412 21.725 14.8784 21.7714L14.3932 22.1298L14.5752 22.7049C14.5989 22.7793 14.514 22.841 14.4504 22.7955L13.9597 22.4447L13.469 22.7955C13.4054 22.8409 13.3207 22.7793 13.3442 22.7049L13.5262 22.1298L13.041 21.7714C12.9782 21.7249 13.0105 21.6254 13.0886 21.6247L13.6918 21.6201L13.8827 21.0478C13.9074 20.9738 14.012 20.9738 14.0368 21.0478Z" fill="#F5F5F5"/>
<path d="M16.361 10.5994L16.5518 11.1717L17.155 11.1763C17.2331 11.177 17.2655 11.2766 17.2027 11.3229L16.7174 11.6813L16.8994 12.2564C16.9231 12.3309 16.8382 12.3926 16.7746 12.3471L16.2839 11.9963L15.7932 12.3471C15.7296 12.3925 15.645 12.3309 15.6684 12.2564L15.8504 11.6813L15.3652 11.3229C15.3024 11.2765 15.3347 11.177 15.4128 11.1763L16.0161 11.1717L16.2069 10.5994C16.2314 10.5253 16.3363 10.5253 16.361 10.5994Z" fill="#F5F5F5"/>
<path d="M16.361 13.593L16.5518 14.1653L17.155 14.1698C17.2331 14.1705 17.2655 14.2701 17.2027 14.3165L16.7174 14.6749L16.8994 15.25C16.9231 15.3244 16.8382 15.3862 16.7746 15.3406L16.2839 14.9899L15.7932 15.3406C15.7296 15.3861 15.645 15.3244 15.6684 15.25L15.8504 14.6749L15.3652 14.3165C15.3024 14.27 15.3347 14.1705 15.4128 14.1698L16.0161 14.1653L16.2069 13.593C16.2314 13.519 16.3363 13.519 16.361 13.593Z" fill="#F5F5F5"/>
<path d="M16.361 16.5865L16.5518 17.1588L17.155 17.1634C17.2331 17.1641 17.2655 17.2637 17.2027 17.3101L16.7174 17.6685L16.8994 18.2436C16.9231 18.318 16.8382 18.3797 16.7746 18.3342L16.2839 17.9834L15.7932 18.3342C15.7296 18.3796 15.645 18.318 15.6684 18.2436L15.8504 17.6685L15.3652 17.3101C15.3024 17.2636 15.3347 17.1641 15.4128 17.1634L16.0161 17.1588L16.2069 16.5865C16.2314 16.5125 16.3363 16.5125 16.361 16.5865Z" fill="#F5F5F5"/>
<path d="M16.361 19.5801L16.5518 20.1524L17.155 20.157C17.2331 20.1577 17.2655 20.2573 17.2027 20.3037L16.7174 20.6621L16.8994 21.2372C16.9231 21.3116 16.8382 21.3733 16.7746 21.3278L16.2839 20.977L15.7932 21.3278C15.7296 21.3732 15.645 21.3116 15.6684 21.2372L15.8504 20.6621L15.3652 20.3037C15.3024 20.2572 15.3347 20.1577 15.4128 20.157L16.0161 20.1524L16.2069 19.5801C16.2314 19.506 16.3363 19.506 16.361 19.5801Z" fill="#F5F5F5"/>
<path d="M16.361 22.5737L16.5518 23.146L17.155 23.1506C17.2331 23.1513 17.2655 23.2509 17.2027 23.2973L16.7174 23.6557L16.8994 24.2308C16.9231 24.3052 16.8382 24.3669 16.7746 24.3214L16.2839 23.9706L15.7932 24.3214C15.7296 24.3668 15.645 24.3052 15.6684 24.2308L15.8504 23.6557L15.3652 23.2973C15.3024 23.2508 15.3347 23.1513 15.4128 23.1506L16.0161 23.146L16.2069 22.5737C16.2314 22.4995 16.3363 22.4995 16.361 22.5737Z" fill="#F5F5F5"/>
<path d="M18.6852 12.0671L18.876 12.6394L19.4792 12.644C19.5574 12.6447 19.5897 12.7443 19.5269 12.7906L19.0416 13.149L19.2237 13.7241C19.2473 13.7986 19.1624 13.8603 19.0989 13.8148L18.6081 13.464L18.1174 13.8148C18.0538 13.8602 17.9692 13.7986 17.9926 13.7241L18.1746 13.149L17.6894 12.7906C17.6266 12.7442 17.6589 12.6447 17.737 12.644L18.3403 12.6394L18.5311 12.0671C18.5557 11.9931 18.6606 11.9931 18.6852 12.0671Z" fill="#F5F5F5"/>
<path d="M18.6852 15.0607L18.876 15.633L19.4792 15.6376C19.5574 15.6383 19.5897 15.7379 19.5269 15.7842L19.0416 16.1426L19.2237 16.7177C19.2473 16.7922 19.1624 16.8539 19.0989 16.8084L18.6081 16.4576L18.1174 16.8084C18.0538 16.8538 17.9692 16.7923 17.9926 16.7177L18.1746 16.1426L17.6894 15.7842C17.6266 15.7378 17.6589 15.6383 17.737 15.6376L18.3403 15.633L18.5311 15.0607C18.5557 14.9866 18.6606 14.9866 18.6852 15.0607Z" fill="#F5F5F5"/>
<path d="M18.6852 18.0542L18.876 18.6265L19.4792 18.6311C19.5574 18.6318 19.5897 18.7314 19.5269 18.7778L19.0416 19.1362L19.2237 19.7113C19.2473 19.7857 19.1624 19.8474 19.0989 19.8019L18.6081 19.4511L18.1174 19.8019C18.0538 19.8473 17.9692 19.7857 17.9926 19.7113L18.1746 19.1362L17.6894 18.7778C17.6266 18.7313 17.6589 18.6318 17.737 18.6311L18.3403 18.6265L18.5311 18.0542C18.5557 17.9801 18.6606 17.9801 18.6852 18.0542Z" fill="#F5F5F5"/>
<path d="M18.6852 21.0478L18.876 21.6201L19.4792 21.6247C19.5574 21.6254 19.5897 21.725 19.5269 21.7714L19.0416 22.1298L19.2237 22.7049C19.2473 22.7793 19.1624 22.841 19.0989 22.7955L18.6081 22.4447L18.1174 22.7955C18.0538 22.8409 17.9692 22.7793 17.9926 22.7049L18.1746 22.1298L17.6894 21.7714C17.6266 21.7249 17.6589 21.6254 17.737 21.6247L18.3403 21.6201L18.5311 21.0478C18.5557 20.9738 18.6606 20.9738 18.6852 21.0478Z" fill="#F5F5F5"/>
<path d="M21.0094 10.5994L21.2002 11.1717L21.8034 11.1763C21.8816 11.177 21.9139 11.2766 21.8511 11.3229L21.3659 11.6813L21.5479 12.2564C21.5715 12.3309 21.4867 12.3926 21.4231 12.3471L20.9324 11.9963L20.4416 12.3471C20.3781 12.3925 20.2934 12.3309 20.3168 12.2564L20.4989 11.6813L20.0136 11.3229C19.9508 11.2765 19.9831 11.177 20.0613 11.1763L20.6645 11.1717L20.8553 10.5994C20.8799 10.5253 20.9846 10.5253 21.0094 10.5994Z" fill="#F5F5F5"/>
<path d="M21.0094 13.593L21.2002 14.1653L21.8034 14.1698C21.8816 14.1705 21.9139 14.2701 21.8511 14.3165L21.3659 14.6749L21.5479 15.25C21.5715 15.3244 21.4867 15.3862 21.4231 15.3406L20.9324 14.9899L20.4416 15.3406C20.3781 15.3861 20.2934 15.3244 20.3168 15.25L20.4989 14.6749L20.0136 14.3165C19.9508 14.27 19.9831 14.1705 20.0613 14.1698L20.6645 14.1653L20.8553 13.593C20.8799 13.519 20.9846 13.519 21.0094 13.593Z" fill="#F5F5F5"/>
<path d="M21.0094 16.5865L21.2002 17.1588L21.8034 17.1634C21.8816 17.1641 21.9139 17.2637 21.8511 17.3101L21.3659 17.6685L21.5479 18.2436C21.5715 18.318 21.4867 18.3797 21.4231 18.3342L20.9324 17.9834L20.4416 18.3342C20.3781 18.3796 20.2934 18.318 20.3168 18.2436L20.4989 17.6685L20.0136 17.3101C19.9508 17.2636 19.9831 17.1641 20.0613 17.1634L20.6645 17.1588L20.8553 16.5865C20.8799 16.5125 20.9846 16.5125 21.0094 16.5865Z" fill="#F5F5F5"/>
<path d="M21.0094 19.5801L21.2002 20.1524L21.8034 20.157C21.8816 20.1577 21.9139 20.2573 21.8511 20.3037L21.3659 20.6621L21.5479 21.2372C21.5715 21.3116 21.4867 21.3733 21.4231 21.3278L20.9324 20.977L20.4416 21.3278C20.3781 21.3732 20.2934 21.3116 20.3168 21.2372L20.4989 20.6621L20.0136 20.3037C19.9508 20.2572 19.9831 20.1577 20.0613 20.157L20.6645 20.1524L20.8553 19.5801C20.8799 19.506 20.9846 19.506 21.0094 19.5801Z" fill="#F5F5F5"/>
<path d="M21.0094 22.5737L21.2002 23.146L21.8034 23.1506C21.8816 23.1513 21.9139 23.2509 21.8511 23.2973L21.3659 23.6557L21.5479 24.2308C21.5715 24.3052 21.4867 24.3669 21.4231 24.3214L20.9324 23.9706L20.4416 24.3214C20.3781 24.3668 20.2934 24.3052 20.3168 24.2308L20.4989 23.6557L20.0136 23.2973C19.9508 23.2508 19.9831 23.1513 20.0613 23.1506L20.6645 23.146L20.8553 22.5737C20.8799 22.4995 20.9846 22.4995 21.0094 22.5737Z" fill="#F5F5F5"/>
</g>
<defs>
<clipPath id="clip0_2553_62535">
<rect width="50" height="50" fill="white"/>
</clipPath>
</defs>
</svg>
