<svg width="24" height="24" viewBox="0 0 24 24" fill="none" xmlns="http://www.w3.org/2000/svg">
<path d="M7 9.01013L7.01 8.99902" stroke="white" stroke-width="1.5" stroke-linecap="round" stroke-linejoin="round"/>
<path d="M11 9.01013L11.01 8.99902" stroke="white" stroke-width="1.5" stroke-linecap="round" stroke-linejoin="round"/>
<path d="M7 13.0101L7.01 12.999" stroke="white" stroke-width="1.5" stroke-linecap="round" stroke-linejoin="round"/>
<path d="M11 13.0101L11.01 12.999" stroke="white" stroke-width="1.5" stroke-linecap="round" stroke-linejoin="round"/>
<path d="M7 17.0101L7.01 16.999" stroke="white" stroke-width="1.5" stroke-linecap="round" stroke-linejoin="round"/>
<path d="M11 17.0101L11.01 16.999" stroke="white" stroke-width="1.5" stroke-linecap="round" stroke-linejoin="round"/>
<path d="M15 21H3.6C3.26863 21 3 20.7314 3 20.4V5.6C3 5.26863 3.26863 5 3.6 5H9V3.6C9 3.26863 9.26863 3 9.6 3H14.4C14.7314 3 15 3.26863 15 3.6V9M15 21H20.4C20.7314 21 21 20.7314 21 20.4V9.6C21 9.26863 20.7314 9 20.4 9H15M15 21V17V21ZM15 9V13V9ZM15 13H17H15ZM15 13V17V13ZM15 17H17H15Z" fill="black"/>
<path d="M15 21H3.6C3.26863 21 3 20.7314 3 20.4V5.6C3 5.26863 3.26863 5 3.6 5H9V3.6C9 3.26863 9.26863 3 9.6 3H14.4C14.7314 3 15 3.26863 15 3.6V9M15 21H20.4C20.7314 21 21 20.7314 21 20.4V9.6C21 9.26863 20.7314 9 20.4 9H15M15 21V17M15 9V13M15 17V13M15 17H17M15 13H17" stroke="black" stroke-width="1.5" stroke-linecap="round" stroke-linejoin="round"/>
<path d="M15 13H17" stroke="white" stroke-width="1.5" stroke-linecap="round"/>
<path d="M15 17H17" stroke="white" stroke-width="1.5" stroke-linecap="round"/>
<path d="M14.25 21V21.75H15.75V21H14.25ZM15.75 3C15.75 2.58579 15.4142 2.25 15 2.25C14.5858 2.25 14.25 2.58579 14.25 3H15.75ZM15.75 21L15.75 3H14.25L14.25 21H15.75Z" fill="white"/>
<circle cx="10.75" cy="8.75" r="0.75" fill="white"/>
<circle cx="6.75" cy="8.75" r="0.75" fill="white"/>
<circle cx="10.75" cy="13.25" r="0.75" fill="white"/>
<circle cx="6.75" cy="13.25" r="0.75" fill="white"/>
<circle cx="10.75" cy="17.75" r="0.75" fill="white"/>
<circle cx="6.75" cy="17.75" r="0.75" fill="white"/>
</svg>
