<svg width="400" height="85" viewBox="0 0 400 85" fill="none" xmlns="http://www.w3.org/2000/svg">
<path fill-rule="evenodd" clip-rule="evenodd" d="M0 18.2475V36.4949L3.04669 36.627C7.36552 36.8141 7.18713 37.0887 7.18713 30.2573V24.7166L26.0142 24.627L44.8414 24.5371L46.4506 23.7137C47.6518 23.0991 48.2202 22.5564 48.6927 21.5729C50.3589 18.1052 50.3532 18.1407 50.2504 11.5059C50.1876 7.43579 50.0336 5.16293 49.8111 5.01044C49.6227 4.88134 49.3767 4.37973 49.2642 3.89558C48.9824 2.68093 47.7137 1.17151 46.4381 0.533551C45.4857 0.0573074 42.9477 0.000329353 22.686 0.000329353H0V18.2475ZM57.8066 0.247344C57.7491 5.17117 57.8294 36.3599 57.8994 36.434C57.9547 36.4923 69.3119 36.5532 83.1377 36.5693L108.275 36.5987L108.474 33.038C108.72 28.6194 108.571 28.2436 106.61 28.3388C105.807 28.3777 96.1864 28.3905 85.2298 28.3671L65.3091 28.3247V25.1958V22.067H86.6957C101.337 22.067 108.146 21.9576 108.286 21.7201C108.578 21.2218 108.589 14.6964 108.298 14.201C108.151 13.951 107.539 13.8173 106.759 13.8654C106.046 13.9092 96.4283 13.9198 85.3861 13.8891L65.3091 13.8331V10.5396V7.24609H86.8369C103.793 7.24609 108.397 7.15848 108.515 6.83374C108.598 6.60681 108.594 4.97652 108.506 3.21086L108.346 0.000329353H83.0781C69.1804 0.000329353 57.8082 0.111321 57.8066 0.247344ZM116.244 18.0953C116.244 30.9845 116.344 36.2551 116.59 36.4159C117.034 36.7047 123.276 36.6984 123.721 36.4086C123.939 36.2667 124.056 34.1825 124.056 30.446V24.7018H136.85H149.645L150.053 25.4922C150.509 26.3765 154.743 32.2334 155.886 33.5607C156.291 34.032 156.746 34.754 156.896 35.1647C157.045 35.5754 157.491 36.0411 157.886 36.1995C158.449 36.4251 164.308 36.4748 166.129 36.2693C166.946 36.1774 166.735 35.2536 165.588 33.8917C164.917 33.094 164.367 32.2598 164.367 32.0375C164.367 31.8151 164.02 31.3942 163.597 31.1024C163.174 30.8103 162.753 30.3251 162.66 30.0245C162.568 29.7234 162.035 28.9254 161.476 28.2506C159.973 26.4355 158.966 25.013 159.096 24.8892C159.159 24.8289 159.968 24.6112 160.895 24.405C162.647 24.0151 164.679 23.1357 164.679 22.7672C164.679 22.6499 165.005 22.1835 165.403 21.7307C166.677 20.2829 166.866 19.0534 166.866 12.2173C166.866 5.98467 166.678 4.13469 165.951 3.227C165.763 2.99217 165.317 2.38847 164.959 1.88587C163.585 -0.0447921 164.2 0.000329353 139.173 0.000329353H116.244V18.0953ZM174.41 17.733C174.445 30.6048 174.557 35.6093 174.821 35.989C175.106 36.4004 175.897 36.5292 178.528 36.5931C181.516 36.6652 181.921 36.6062 182.328 36.0397C182.853 35.3083 182.949 34.253 182.49 34.253C182.085 34.253 182.079 24.7182 182.484 24.0431C182.772 23.5616 187.466 23.4894 225.389 23.385C225.523 23.3847 225.593 21.6431 225.545 19.5145L225.457 15.6446L203.895 15.5576L182.334 15.4707V11.4407V7.41076L203.974 7.32612L225.613 7.24148V3.6209V0.000329353H199.987H174.362L174.41 17.733ZM233.033 18.1678C233.075 28.1597 233.155 36.3829 233.21 36.4412C233.373 36.6131 283.491 36.5964 283.654 36.4241C283.989 36.0714 284.02 29.1797 283.688 28.7591C283.411 28.4073 279.316 28.3247 262.136 28.3247H240.925V25.1981V22.0716L262.408 21.9869L283.892 21.9023V17.9501V13.9978L282.173 13.9382C281.228 13.9056 271.56 13.8684 260.69 13.8559L240.925 13.8331V10.5291V7.22468L262.228 7.25762C279.558 7.28429 283.57 7.20953 283.743 6.85646C283.86 6.61801 283.889 4.97751 283.808 3.21152L283.661 0.000329353H258.309L232.956 0L233.033 18.1678ZM295.297 0.370192C294.192 0.834909 293.158 1.92836 292.376 3.45853C291.72 4.74367 291.704 5.09607 291.704 17.7854C291.704 32.2673 291.767 32.7676 293.841 34.6598C295.941 36.5753 295.88 36.571 320.149 36.4784L342.326 36.3938L342.415 32.7992C342.464 30.8221 342.381 29.0743 342.23 28.9155C342.078 28.7555 332.746 28.6359 321.289 28.6468C300.958 28.6669 300.612 28.6563 299.991 28.0019C299.388 27.3666 299.359 26.9272 299.359 18.2629C299.359 10.7833 299.443 9.01932 299.835 8.21998L300.311 7.2507L321.318 7.16606L342.326 7.08141L342.415 3.54087L342.503 0.000329353L319.291 0.0210786C304.646 0.0342527 295.79 0.163359 295.297 0.370192ZM350.232 0.576697C350.381 0.893534 350.406 2.41284 350.287 3.95256C350.103 6.33312 350.146 6.80014 350.573 7.07384C350.867 7.26223 355.106 7.41439 360.803 7.44139C366.153 7.46675 370.688 7.58993 370.88 7.71542C371.13 7.87812 371.231 11.9924 371.231 22.067C371.231 29.8347 371.35 36.268 371.496 36.3632C371.832 36.5819 379.972 36.6764 380.174 36.4643C380.256 36.3777 380.351 29.8051 380.386 21.8588L380.449 7.41076L390.214 7.32382L399.979 7.23687V3.6186V0.000329353H374.969C351.255 0.000329353 349.974 0.0303005 350.232 0.576697ZM41.0469 7.74012C41.3047 8.01183 41.6512 8.23415 41.8172 8.23415C42.3409 8.23415 42.4978 9.18696 42.4978 12.3652C42.4978 16.6843 42.4674 16.7087 36.9174 16.876C29.171 17.1095 14.2767 17.1342 10.7025 16.9192L7.18713 16.7077V12.1689C7.18713 8.84608 7.29178 7.58598 7.5777 7.46412C7.79269 7.37289 15.3054 7.28627 24.2734 7.27211C38.3723 7.24971 40.6416 7.31295 41.0469 7.74012ZM158.571 8.08429C159.315 8.86848 159.366 9.1313 159.366 12.1501C159.366 17.0819 161.157 16.6188 141.756 16.7058C132.794 16.7463 125.146 16.6919 124.759 16.5852C124.072 16.3958 124.056 16.2835 124.056 11.8185V7.24609H140.916H157.776L158.571 8.08429ZM45.4938 59.0174C44.947 59.6639 44.747 60.1181 44.9732 60.1974C45.247 60.2936 45.3413 63.491 45.3413 72.6634V85L47.9193 84.9042L50.4973 84.8086L50.5851 80.7741L50.6729 76.7395H60.7911H70.9096L72.6258 79.1431C73.5698 80.4651 74.5666 81.743 74.841 81.9828C75.1153 82.2229 75.3397 82.6102 75.3397 82.8437C75.3397 83.0769 75.7725 83.6516 76.3012 84.1206C77.1783 84.8986 77.5071 84.9733 80.051 84.9733C82.3465 84.9733 82.8393 84.8841 82.8393 84.4691C82.8393 84.1914 82.6343 83.8815 82.3837 83.7804C82.133 83.679 81.5662 82.9452 81.1237 82.1498C80.6816 81.3547 80.0429 80.5478 79.7048 80.3568C79.3663 80.1661 79.0895 79.7814 79.0895 79.5021C79.0895 79.2228 78.6676 78.5496 78.152 78.0062C77.0611 76.8564 76.9883 76.6193 77.8105 76.8943C78.8204 77.2322 81.2175 76.3943 82.1658 75.3717C83.4361 74.0026 83.8342 71.7462 83.6133 67.1685C83.3639 61.999 83.273 61.5422 82.2734 60.426C80.5981 58.5563 81.3165 58.6251 63.4697 58.6251C52.634 58.6251 46.9037 58.5112 46.9037 58.2958C46.9037 57.693 46.3919 57.9549 45.4938 59.0174ZM135.805 58.5879L134.243 58.7898V70.3171C134.243 83.178 134.314 83.7063 136.161 84.5198C136.99 84.8844 140.267 84.9733 152.904 84.9727C167.245 84.9723 168.709 84.9219 169.686 84.3963C171.461 83.4418 171.56 82.7054 171.597 70.1406C171.615 63.9962 171.545 58.8244 171.442 58.6482C171.138 58.1294 166.906 58.4087 166.569 58.9696C166.411 59.2331 166.278 63.8948 166.272 69.3291C166.267 74.9692 166.135 79.4218 165.966 79.7037C165.711 80.1295 163.937 80.1977 153.132 80.1977H140.594L139.996 79.4201C139.437 78.6926 139.399 77.998 139.399 68.6338C139.399 60.8489 139.312 58.6241 139.008 58.6205C138.793 58.6182 138.336 58.5645 137.993 58.5013C137.649 58.438 136.664 58.4772 135.805 58.5879ZM178.461 58.6251C178.088 58.8705 178.074 59.4083 178.112 72.7181L178.147 85L180.725 84.9042L183.303 84.8086L183.39 80.7869L183.478 76.7652L197.52 76.7461C205.243 76.7359 211.981 76.6391 212.493 76.531C213.004 76.4233 213.635 76.0927 213.894 75.7962C215.945 73.4522 215.792 73.9627 215.91 69.0488C216.06 62.7558 215.89 61.8093 214.334 60.2485C213.429 59.3415 212.706 58.9307 211.78 58.7977C210.155 58.5642 178.8 58.4018 178.461 58.6251ZM3.46858 58.8609C2.89299 59.0865 2.2821 59.7541 1.27278 61.2599L0.5 62.4127V72.0584C0.5 78.793 0.605307 81.775 0.848419 81.939C1.04028 82.0681 1.28995 82.4877 1.40338 82.8714C1.51681 83.2551 1.9018 83.8479 2.25928 84.1888C2.87424 84.7757 3.75671 84.8139 18.8909 84.9101C37.8627 85.0306 37.6449 85.0629 38.4467 82.0091C38.7935 80.6878 38.9885 69.9338 38.6717 69.6001C38.3111 69.2201 13.2087 69.3666 12.7687 69.7513C12.3812 70.0902 12.2394 74.2368 12.6025 74.6195C12.6943 74.7166 17.4969 74.7855 23.2747 74.7723L33.7794 74.7486V76.8347C33.7794 79.9586 33.3123 80.3574 29.6269 80.3798C20.543 80.4348 7.43899 80.3047 7.07057 80.1555C6.83465 80.06 6.43063 79.512 6.17252 78.9373C5.78441 78.0724 5.73409 76.7784 5.8822 71.4297L6.06096 64.9671L6.92215 64.4309C7.6868 63.955 9.52451 63.8948 23.2813 63.8948C35.4625 63.8948 38.7829 63.8065 38.7961 63.4831C38.9045 60.8222 38.862 59.3625 38.6664 59.0286C38.4839 58.7177 34.4788 58.631 21.1836 58.6511C11.6981 58.6653 3.72638 58.7598 3.46858 58.8609ZM93.1228 58.8952C91.9319 59.4317 90.6764 60.927 90.3523 62.195C89.8658 64.1003 89.937 81.4249 90.4357 82.4314C90.6404 82.8441 91.132 83.5479 91.5285 83.9951L92.2497 84.8086H108.82H125.391L126.145 83.8845C126.56 83.3763 126.899 82.7021 126.899 82.3859C126.899 82.0701 127.075 81.6261 127.29 81.3995C127.835 80.8251 127.772 63.901 127.22 62.6307C127.011 62.1485 126.673 61.3867 126.471 60.9381C126.268 60.4892 125.628 59.7851 125.048 59.3737L123.995 58.6251L108.807 58.6482C100.454 58.661 93.3962 58.772 93.1228 58.8952ZM77.9005 64.4859C78.5098 65.1282 78.6298 69.8201 78.058 70.6267C77.3955 71.5611 75.9768 71.6451 62.606 71.5446L50.6535 71.4547V67.6645V63.8743L64.075 63.9669C74.5485 64.039 77.5852 64.153 77.9005 64.4859ZM210.233 64.7484C210.998 65.554 211.033 65.7345 210.857 67.9596C210.555 71.7699 211.575 71.5268 196.368 71.4182L183.459 71.3259V67.6105V63.8948H196.441H209.423L210.233 64.7484ZM121.742 64.7412C122.329 65.2095 122.365 65.6314 122.367 72.1701C122.368 79.0598 122.364 79.1066 121.631 79.7327C120.933 80.3285 120.242 80.3624 108.753 80.3624C96.6666 80.3624 96.6101 80.3591 95.9758 79.6414C95.3777 78.9649 95.3386 78.5081 95.3386 72.2096C95.3386 68.2132 95.4695 65.2405 95.662 64.8611C95.9739 64.2472 96.4423 64.2244 108.552 64.2346C119.253 64.2435 121.211 64.3186 121.742 64.7412Z" fill="white"/>
</svg>
